<svg width="19" height="11" viewBox="0 0 19 11" fill="none" xmlns="http://www.w3.org/2000/svg">
<path d="M9.4851 10.9963C9.16855 10.997 8.86178 10.8692 8.61804 10.635L0.489414 2.78196C0.212747 2.51536 0.0387617 2.13227 0.00573272 1.71696C-0.0272962 1.30165 0.083337 0.888134 0.313294 0.567388C0.543251 0.246642 0.873695 0.0449373 1.23193 0.00664609C1.59017 -0.0316451 1.94685 0.0966137 2.22352 0.363208L9.4851 7.39957L16.7467 0.614508C16.8853 0.484043 17.0447 0.386615 17.2159 0.327824C17.387 0.269033 17.5665 0.250038 17.744 0.271931C17.9215 0.293825 18.0936 0.356173 18.2502 0.455395C18.4069 0.554617 18.5451 0.688756 18.6569 0.8501C18.781 1.01159 18.8749 1.20105 18.9329 1.4066C18.9909 1.61216 19.0116 1.82937 18.9938 2.04465C18.976 2.25992 18.92 2.46861 18.8294 2.65765C18.7388 2.84668 18.6155 3.01198 18.4672 3.1432L10.3386 10.7293C10.0879 10.9264 9.78735 11.0204 9.4851 10.9963Z" fill="white"/>
</svg>
