<svg width="20" height="11" viewBox="0 0 20 11" fill="none" xmlns="http://www.w3.org/2000/svg">
<path d="M9.98431 10.9963C9.65111 10.997 9.32819 10.8692 9.07163 10.635L0.515173 2.78196C0.223945 2.51537 0.0408018 2.13227 0.00603444 1.71696C-0.0287329 1.30165 0.0877231 0.888134 0.329783 0.567388C0.571843 0.246642 0.919679 0.0449373 1.29677 0.00664609C1.67386 -0.0316451 2.04932 0.0966137 2.34055 0.363208L9.98431 7.39957L17.6281 0.614508C17.774 0.484043 17.9418 0.386615 18.122 0.327824C18.3021 0.269033 18.4911 0.250038 18.6779 0.271932C18.8648 0.293825 19.0459 0.356173 19.2108 0.455395C19.3757 0.554617 19.5212 0.688756 19.6388 0.8501C19.7694 1.01159 19.8684 1.20105 19.9294 1.4066C19.9904 1.61216 20.0122 1.82937 19.9935 2.04465C19.9747 2.25992 19.9158 2.46861 19.8205 2.65765C19.7251 2.84668 19.5953 3.01198 19.4392 3.1432L10.8827 10.7293C10.6188 10.9264 10.3025 11.0204 9.98431 10.9963Z" fill="#ACACAC"/>
</svg>
