<svg width="20" height="12" viewBox="0 0 20 12" fill="none" xmlns="http://www.w3.org/2000/svg">
<path d="M10.0157 0.158153C10.3489 0.157411 10.6718 0.289691 10.9284 0.53203L19.4848 8.6598C19.7761 8.93572 19.9592 9.33221 19.994 9.76205C20.0287 10.1919 19.9123 10.6199 19.6702 10.9518C19.4282 11.2838 19.0803 11.4926 18.7032 11.5322C18.3261 11.5718 17.9507 11.4391 17.6595 11.1632L10.0157 3.88067L2.37192 10.9031C2.22605 11.0381 2.05821 11.1389 1.87804 11.1998C1.69787 11.2606 1.50893 11.2803 1.32207 11.2576C1.13521 11.235 0.954126 11.1704 0.789219 11.0677C0.624311 10.965 0.478836 10.8262 0.361153 10.6592C0.230553 10.4921 0.131643 10.296 0.0706177 10.0833C0.00959206 9.87052 -0.0122318 9.6457 0.00651169 9.4229C0.0252552 9.20009 0.0841599 8.9841 0.179541 8.78846C0.274921 8.59281 0.404722 8.42173 0.560806 8.28592L9.11726 0.434498C9.3812 0.230465 9.69753 0.133166 10.0157 0.158153Z" fill="#A32035"/>
</svg>
