<svg width="18" height="20" viewBox="0 0 18 20" fill="none" xmlns="http://www.w3.org/2000/svg">
<path d="M17.1443 18.5943L17.1443 12.6668C17.1443 12.3118 16.8565 12.0239 16.5014 12.0239C16.1463 12.0239 15.8585 12.3118 15.8585 12.6669L15.8585 17.2583C15.8585 17.8106 15.4108 18.2583 14.8585 18.2583H12.0008C11.6372 18.2583 11.5035 18.7365 11.8144 18.925C12.1188 19.1096 11.9983 19.577 11.6426 19.5914L11.5723 19.5943H16.1443C16.6966 19.5943 17.1443 19.1466 17.1443 18.5943Z" fill="#A32035"/>
<path fill-rule="evenodd" clip-rule="evenodd" d="M4.57196 10.0942H3.42898V11.2818H4.57196V10.0942ZM3.42898 8.90674C3.12585 8.90674 2.83513 9.03185 2.62078 9.25455C2.40643 9.47725 2.28601 9.7793 2.28601 10.0942V11.2818C2.28601 11.5967 2.40643 11.8987 2.62078 12.1214C2.83513 12.3441 3.12585 12.4693 3.42898 12.4693H4.57196C4.87509 12.4693 5.16581 12.3441 5.38016 12.1214C5.59451 11.8987 5.71493 11.5967 5.71493 11.2818V10.0942C5.71493 9.7793 5.59451 9.47725 5.38016 9.25455C5.16581 9.03185 4.87509 8.90674 4.57196 8.90674H3.42898Z" fill="#A32035"/>
<path fill-rule="evenodd" clip-rule="evenodd" d="M9.1441 10.0942H8.00113V11.2818H9.1441V10.0942ZM8.00113 8.90674C7.69799 8.90674 7.40727 9.03185 7.19292 9.25455C6.97857 9.47725 6.85815 9.7793 6.85815 10.0942V11.2818C6.85815 11.5967 6.97857 11.8987 7.19292 12.1214C7.40727 12.3441 7.69799 12.4693 8.00113 12.4693H9.1441C9.44724 12.4693 9.73796 12.3441 9.95231 12.1214C10.1667 11.8987 10.2871 11.5967 10.2871 11.2818V10.0942C10.2871 9.7793 10.1667 9.47725 9.95231 9.25455C9.73796 9.03185 9.44724 8.90674 9.1441 8.90674H8.00113Z" fill="#A32035"/>
<path fill-rule="evenodd" clip-rule="evenodd" d="M13.7156 10.0942H12.5727V11.2818H13.7156V10.0942ZM12.5727 8.90674C12.2695 8.90674 11.9788 9.03185 11.7645 9.25455C11.5501 9.47725 11.4297 9.7793 11.4297 10.0942V11.2818C11.4297 11.5967 11.5501 11.8987 11.7645 12.1214C11.9788 12.3441 12.2695 12.4693 12.5727 12.4693H13.7156C14.0188 12.4693 14.3095 12.3441 14.5238 12.1214C14.7382 11.8987 14.8586 11.5967 14.8586 11.2818V10.0942C14.8586 9.7793 14.7382 9.47725 14.5238 9.25455C14.3095 9.03185 14.0188 8.90674 13.7156 8.90674H12.5727Z" fill="#A32035"/>
<path fill-rule="evenodd" clip-rule="evenodd" d="M4.57196 14.8428H3.42898V16.0303H4.57196V14.8428ZM3.42898 13.6553C3.12585 13.6553 2.83513 13.7804 2.62078 14.0031C2.40643 14.2258 2.28601 14.5278 2.28601 14.8428V16.0303C2.28601 16.3452 2.40643 16.6473 2.62078 16.87C2.83513 17.0927 3.12585 17.2178 3.42898 17.2178H4.57196C4.87509 17.2178 5.16581 17.0927 5.38016 16.87C5.59451 16.6473 5.71493 16.3452 5.71493 16.0303V14.8428C5.71493 14.5278 5.59451 14.2258 5.38016 14.0031C5.16581 13.7804 4.87509 13.6553 4.57196 13.6553H3.42898Z" fill="#A32035"/>
<path fill-rule="evenodd" clip-rule="evenodd" d="M9.1441 14.8428H8.00113V16.0303H9.1441V14.8428ZM8.00113 13.6553C7.69799 13.6553 7.40727 13.7804 7.19292 14.0031C6.97857 14.2258 6.85815 14.5278 6.85815 14.8428V16.0303C6.85815 16.3452 6.97857 16.6473 7.19292 16.87C7.40727 17.0927 7.69799 17.2178 8.00113 17.2178H9.1441C9.44724 17.2178 9.73796 17.0927 9.95231 16.87C10.1667 16.6473 10.2871 16.3452 10.2871 16.0303V14.8428C10.2871 14.5278 10.1667 14.2258 9.95231 14.0031C9.73796 13.7804 9.44724 13.6553 9.1441 13.6553H8.00113Z" fill="#A32035"/>
<path fill-rule="evenodd" clip-rule="evenodd" d="M1.14297 3.56202C1.14297 3.40455 1.20318 3.25353 1.31036 3.14218C1.41753 3.03082 1.56289 2.96827 1.71446 2.96827H4.57189V1.78076H1.71446C1.25976 1.78076 0.823678 1.96843 0.502154 2.30248C0.18063 2.63653 0 3.0896 0 3.56202V17.8121C0 18.2845 0.18063 18.7376 0.502154 19.0716C0.823678 19.4057 1.25976 19.5934 1.71446 19.5934H13.2899C13.0462 19.2307 12.98 18.6813 12.8585 18.2574L1.71446 18.4059C1.56289 18.4059 1.41753 18.3433 1.31036 18.232C1.20318 18.1206 1.14297 17.9696 1.14297 17.8121V3.56202ZM15.8588 13.1036C16.2378 13.0473 16.7655 13.0473 17.1446 13.1036V3.56202C17.1446 3.0896 16.964 2.63653 16.6424 2.30248C16.3209 1.96843 15.8848 1.78076 15.4301 1.78076H13.7157V2.96827H15.4301C15.5817 2.96827 15.7271 3.03082 15.8342 3.14218C15.9414 3.25353 16.0016 3.40455 16.0016 3.56202L15.8588 13.1036ZM5.71487 2.96827H11.7515V1.78076H5.71487V2.96827Z" fill="#A32035"/>
<path fill-rule="evenodd" clip-rule="evenodd" d="M12.5734 1.78076H5.71553V3.56202C5.71553 3.7195 5.65531 3.87052 5.54814 3.98187C5.44097 4.09322 5.29561 4.15578 5.14404 4.15578C4.99247 4.15578 4.84711 4.09322 4.73994 3.98187C4.63276 3.87052 4.57255 3.7195 4.57255 3.56202V1.78076H1.71512C1.41198 1.78076 1.12126 1.90587 0.906913 2.12857C0.692564 2.35128 0.572144 2.65332 0.572144 2.96827V5.93704C0.572144 6.25198 0.692564 6.55403 0.906913 6.77673C1.12126 6.99943 1.41198 7.12454 1.71512 7.12454H15.4308C15.7339 7.12454 16.0247 6.99943 16.239 6.77673C16.4534 6.55403 16.5738 6.25198 16.5738 5.93704V2.96827C16.5738 2.65332 16.4534 2.35128 16.239 2.12857C16.0247 1.90587 15.7339 1.78076 15.4308 1.78076H13.7163V3.56202C13.7163 3.7195 13.6561 3.87052 13.549 3.98187C13.4418 4.09322 13.2964 4.15578 13.1449 4.15578C12.9933 4.15578 12.8479 4.09322 12.7408 3.98187C12.6336 3.87052 12.5734 3.7195 12.5734 3.56202V1.78076Z" fill="#A32035"/>
<path fill-rule="evenodd" clip-rule="evenodd" d="M17.1445 7.12452H1.14282V5.93701H17.1445V7.12452Z" fill="#A32035"/>
<path d="M3.42834 0.593753C3.42834 0.43628 3.48855 0.285257 3.59573 0.173906C3.7029 0.0625561 3.84826 0 3.99983 0C4.1514 0 4.29676 0.0625561 4.40393 0.173906C4.51111 0.285257 4.57132 0.43628 4.57132 0.593753V2.96877C4.57132 3.12624 4.51111 3.27726 4.40393 3.38861C4.29676 3.49996 4.1514 3.56252 3.99983 3.56252C3.84826 3.56252 3.7029 3.49996 3.59573 3.38861C3.48855 3.27726 3.42834 3.12624 3.42834 2.96877V0.593753Z" fill="#A32035"/>
<path d="M11.4297 0.593753C11.4297 0.43628 11.4899 0.285257 11.5971 0.173906C11.7042 0.0625561 11.8496 0 12.0012 0C12.1527 0 12.2981 0.0625561 12.4053 0.173906C12.5125 0.285257 12.5727 0.43628 12.5727 0.593753V2.96877C12.5727 3.12624 12.5125 3.27726 12.4053 3.38861C12.2981 3.49996 12.1527 3.56252 12.0012 3.56252C11.8496 3.56252 11.7042 3.49996 11.5971 3.38861C11.4899 3.27726 11.4297 3.12624 11.4297 2.96877V0.593753Z" fill="#A32035"/>
</svg>
