<svg width="22" height="24" viewBox="0 0 22 24" fill="none" xmlns="http://www.w3.org/2000/svg">
<path d="M20.1667 1.84615H16.5V0H14.6667V1.84615H7.33333V0H5.5V1.84615H1.83333C0.825 1.84615 0 2.67692 0 3.69231V22.1538C0 23.1692 0.825 24 1.83333 24H20.1667C21.175 24 22 23.1692 22 22.1538V3.69231C22 2.67692 21.175 1.84615 20.1667 1.84615ZM20.1667 22.1538H1.83333V9.23077H20.1667V22.1538ZM20.1667 7.38462H1.83333V3.69231H5.5V5.53846H7.33333V3.69231H14.6667V5.53846H16.5V3.69231H20.1667V7.38462Z" fill="#A32035"/>
</svg>
