<svg width="14" height="16" viewBox="0 0 14 16" fill="none" xmlns="http://www.w3.org/2000/svg">
<path d="M14 14.9999L14 10.3431C14 10.0532 13.765 9.81812 13.475 9.81812C13.1851 9.81812 12.95 10.0532 12.95 10.3431L12.95 13.9915C12.95 14.4982 12.5392 14.909 12.0325 14.909H9.79987C9.50295 14.909 9.39381 15.2995 9.64769 15.4534C9.89626 15.6042 9.79788 15.9858 9.5074 15.9976L9.45 15.9999H13C13.5523 15.9999 14 15.5522 14 14.9999Z" fill="#A9A9A9"/>
<path fill-rule="evenodd" clip-rule="evenodd" d="M3.73337 8.24234H2.80003V9.21204H3.73337V8.24234ZM2.80003 7.27264C2.5525 7.27264 2.3151 7.37481 2.14007 7.55666C1.96503 7.73852 1.8667 7.98516 1.8667 8.24234V9.21204C1.8667 9.46922 1.96503 9.71587 2.14007 9.89772C2.3151 10.0796 2.5525 10.1817 2.80003 10.1817H3.73337C3.9809 10.1817 4.2183 10.0796 4.39333 9.89772C4.56837 9.71587 4.6667 9.46922 4.6667 9.21204V8.24234C4.6667 7.98516 4.56837 7.73852 4.39333 7.55666C4.2183 7.37481 3.9809 7.27264 3.73337 7.27264H2.80003Z" fill="#A9A9A9"/>
<path fill-rule="evenodd" clip-rule="evenodd" d="M7.46676 8.24234H6.53343V9.21204H7.46676V8.24234ZM6.53343 7.27264C6.2859 7.27264 6.0485 7.37481 5.87346 7.55666C5.69843 7.73852 5.6001 7.98516 5.6001 8.24234V9.21204C5.6001 9.46922 5.69843 9.71587 5.87346 9.89772C6.0485 10.0796 6.2859 10.1817 6.53343 10.1817H7.46676C7.7143 10.1817 7.9517 10.0796 8.12673 9.89772C8.30176 9.71587 8.4001 9.46922 8.4001 9.21204V8.24234C8.4001 7.98516 8.30176 7.73852 8.12673 7.55666C7.9517 7.37481 7.7143 7.27264 7.46676 7.27264H6.53343Z" fill="#A9A9A9"/>
<path fill-rule="evenodd" clip-rule="evenodd" d="M11.2002 8.24234H10.2668V9.21204H11.2002V8.24234ZM10.2668 7.27264C10.0193 7.27264 9.7819 7.37481 9.60686 7.55666C9.43183 7.73852 9.3335 7.98516 9.3335 8.24234V9.21204C9.3335 9.46922 9.43183 9.71587 9.60686 9.89772C9.7819 10.0796 10.0193 10.1817 10.2668 10.1817H11.2002C11.4477 10.1817 11.6851 10.0796 11.8601 9.89772C12.0352 9.71587 12.1335 9.46922 12.1335 9.21204V8.24234C12.1335 7.98516 12.0352 7.73852 11.8601 7.55666C11.6851 7.37481 11.4477 7.27264 11.2002 7.27264H10.2668Z" fill="#A9A9A9"/>
<path fill-rule="evenodd" clip-rule="evenodd" d="M3.73337 12.1212H2.80003V13.0909H3.73337V12.1212ZM2.80003 11.1515C2.5525 11.1515 2.3151 11.2537 2.14007 11.4355C1.96503 11.6174 1.8667 11.864 1.8667 12.1212V13.0909C1.8667 13.3481 1.96503 13.5947 2.14007 13.7766C2.3151 13.9584 2.5525 14.0606 2.80003 14.0606H3.73337C3.9809 14.0606 4.2183 13.9584 4.39333 13.7766C4.56837 13.5947 4.6667 13.3481 4.6667 13.0909V12.1212C4.6667 11.864 4.56837 11.6174 4.39333 11.4355C4.2183 11.2537 3.9809 11.1515 3.73337 11.1515H2.80003Z" fill="#A9A9A9"/>
<path fill-rule="evenodd" clip-rule="evenodd" d="M7.46676 12.1212H6.53343V13.0909H7.46676V12.1212ZM6.53343 11.1515C6.2859 11.1515 6.0485 11.2537 5.87346 11.4355C5.69843 11.6174 5.6001 11.864 5.6001 12.1212V13.0909C5.6001 13.3481 5.69843 13.5947 5.87346 13.7766C6.0485 13.9584 6.2859 14.0606 6.53343 14.0606H7.46676C7.7143 14.0606 7.9517 13.9584 8.12673 13.7766C8.30176 13.5947 8.4001 13.3481 8.4001 13.0909V12.1212C8.4001 11.864 8.30176 11.6174 8.12673 11.4355C7.9517 11.2537 7.7143 11.1515 7.46676 11.1515H6.53343Z" fill="#A9A9A9"/>
<path fill-rule="evenodd" clip-rule="evenodd" d="M0.933333 2.90908C0.933333 2.78049 0.9825 2.65716 1.07002 2.56624C1.15753 2.47531 1.27623 2.42423 1.4 2.42423H3.73333V1.45453H1.4C1.0287 1.45453 0.672602 1.60778 0.410051 1.88056C0.1475 2.15334 0 2.52331 0 2.90908V14.5455C0 14.9312 0.1475 15.3012 0.410051 15.574C0.672602 15.8468 1.0287 16 1.4 16H10.8523C10.6533 15.7038 10.5993 15.2552 10.5 14.9091L1.4 15.0303C1.27623 15.0303 1.15753 14.9792 1.07002 14.8883C0.9825 14.7974 0.933333 14.674 0.933333 14.5455V2.90908ZM12.95 10.7006C13.2595 10.6546 13.6905 10.6546 14 10.7006V2.90908C14 2.52331 13.8525 2.15334 13.5899 1.88056C13.3274 1.60778 12.9713 1.45453 12.6 1.45453H11.2V2.42423H12.6C12.7238 2.42423 12.8425 2.47531 12.93 2.56624C13.0175 2.65716 13.0667 2.78049 13.0667 2.90908L12.95 10.7006ZM4.66667 2.42423H9.59607V1.45453H4.66667V2.42423Z" fill="#A9A9A9"/>
<path fill-rule="evenodd" clip-rule="evenodd" d="M10.2668 1.45453H4.6668V2.90908C4.6668 3.03767 4.61763 3.16099 4.53011 3.25192C4.4426 3.34284 4.3239 3.39393 4.20013 3.39393C4.07636 3.39393 3.95766 3.34284 3.87015 3.25192C3.78263 3.16099 3.73346 3.03767 3.73346 2.90908V1.45453H1.40013C1.15259 1.45453 0.915198 1.55669 0.740164 1.73855C0.56513 1.9204 0.466797 2.16705 0.466797 2.42423V4.84847C0.466797 5.10565 0.56513 5.3523 0.740164 5.53415C0.915198 5.71601 1.15259 5.81817 1.40013 5.81817H12.6001C12.8477 5.81817 13.0851 5.71601 13.2601 5.53415C13.4351 5.3523 13.5335 5.10565 13.5335 4.84847V2.42423C13.5335 2.16705 13.4351 1.9204 13.2601 1.73855C13.0851 1.55669 12.8477 1.45453 12.6001 1.45453H11.2001V2.90908C11.2001 3.03767 11.151 3.16099 11.0634 3.25192C10.9759 3.34284 10.8572 3.39393 10.7335 3.39393C10.6097 3.39393 10.491 3.34284 10.4035 3.25192C10.316 3.16099 10.2668 3.03767 10.2668 2.90908V1.45453Z" fill="#A9A9A9"/>
<path fill-rule="evenodd" clip-rule="evenodd" d="M13.9998 5.81815H0.933105V4.84845H13.9998V5.81815Z" fill="#A9A9A9"/>
<path d="M2.7998 0.484849C2.7998 0.356259 2.84897 0.232936 2.93649 0.142009C3.02401 0.0510823 3.1427 0 3.26647 0C3.39024 0 3.50894 0.0510823 3.59645 0.142009C3.68397 0.232936 3.73314 0.356259 3.73314 0.484849V2.42425C3.73314 2.55284 3.68397 2.67616 3.59645 2.76709C3.50894 2.85801 3.39024 2.9091 3.26647 2.9091C3.1427 2.9091 3.02401 2.85801 2.93649 2.76709C2.84897 2.67616 2.7998 2.55284 2.7998 2.42425V0.484849Z" fill="#A9A9A9"/>
<path d="M9.3335 0.484849C9.3335 0.356259 9.38266 0.232936 9.47018 0.142009C9.5577 0.0510823 9.6764 0 9.80016 0C9.92393 0 10.0426 0.0510823 10.1301 0.142009C10.2177 0.232936 10.2668 0.356259 10.2668 0.484849V2.42425C10.2668 2.55284 10.2177 2.67616 10.1301 2.76709C10.0426 2.85801 9.92393 2.9091 9.80016 2.9091C9.6764 2.9091 9.5577 2.85801 9.47018 2.76709C9.38266 2.67616 9.3335 2.55284 9.3335 2.42425V0.484849Z" fill="#A9A9A9"/>
</svg>
