<?xml version="1.0" standalone="no"?>
<!DOCTYPE svg PUBLIC "-//W3C//DTD SVG 20010904//EN"
 "http://www.w3.org/TR/2001/REC-SVG-20010904/DTD/svg10.dtd">
<svg version="1.0" xmlns="http://www.w3.org/2000/svg"
 width="200.000000pt" height="252.000000pt" viewBox="0 0 200.000000 252.000000"
 preserveAspectRatio="xMidYMid meet">

<g transform="translate(0.000000,252.000000) scale(0.100000,-0.100000)"
fill="#A32035" stroke="none">
<path d="M92 2413 c-7 -3 -19 -18 -27 -33 -13 -25 -15 -152 -15 -909 l0 -879
26 -31 c24 -29 30 -31 95 -31 l69 0 0 45 0 45 -50 0 -50 0 0 855 0 855 670 0
670 0 0 -45 0 -45 45 0 45 0 0 55 c0 60 -19 109 -45 119 -20 7 -1414 7 -1433
-1z"/>
<path d="M383 2130 c-47 -19 -47 0 -48 -965 -1 -501 2 -927 7 -947 16 -70 2
-68 498 -68 l445 0 333 333 332 332 0 633 0 634 -29 29 -29 29 -744 -1 c-409
0 -753 -4 -765 -9z m1475 -652 l2 -568 -288 0 c-186 0 -300 -4 -321 -11 -58
-20 -61 -36 -61 -364 l0 -295 -380 0 -380 0 0 905 0 905 713 -2 712 -3 3 -567z
m-283 -948 c-154 -154 -283 -280 -287 -280 -5 0 -8 126 -8 280 l0 280 287 0
288 0 -280 -280z"/>
<path d="M620 1715 l0 -45 523 0 522 0 3 45 2 45 -525 0 -525 0 0 -45z"/>
<path d="M620 1430 l0 -50 522 2 522 3 1 45 0 45 -522 3 -523 2 0 -50z"/>
<path d="M620 1145 l0 -45 523 0 522 0 3 45 2 45 -525 0 -525 0 0 -45z"/>
</g>
</svg>
