<svg width="25" height="23" viewBox="0 0 25 23" fill="none" xmlns="http://www.w3.org/2000/svg">
<path d="M12.2894 16.3679C12.3144 16.3991 12.3464 16.4244 12.3829 16.4418C12.4194 16.4591 12.4594 16.4682 12.5 16.4682C12.5406 16.4682 12.5806 16.4591 12.6171 16.4418C12.6536 16.4244 12.6855 16.3991 12.7106 16.3679L16.4539 11.7385C16.5909 11.5686 16.4672 11.317 16.2433 11.317H13.7667V0.261364C13.7667 0.117614 13.6464 0 13.4993 0H11.494C11.3469 0 11.2266 0.117614 11.2266 0.261364V11.3138H8.75668C8.53275 11.3138 8.40909 11.5653 8.54612 11.7352L12.2894 16.3679ZM24.7326 15.2244H22.7273C22.5802 15.2244 22.4599 15.342 22.4599 15.4858V20.517H2.54011V15.4858C2.54011 15.342 2.41979 15.2244 2.27273 15.2244H0.26738C0.120321 15.2244 0 15.342 0 15.4858V21.9545C0 22.5328 0.477941 23 1.06952 23H23.9305C24.5221 23 25 22.5328 25 21.9545V15.4858C25 15.342 24.8797 15.2244 24.7326 15.2244Z" fill="#A32035"/>
</svg>
