<svg width="16" height="14" viewBox="0 0 16 14" fill="none" xmlns="http://www.w3.org/2000/svg">
<path d="M2.49338 0.400635H13.5605C14.1532 0.400596 14.7235 0.627441 15.1543 1.03464C15.5852 1.44183 15.8439 1.9985 15.8774 2.59046L15.881 2.72188V10.9355C15.8811 11.5284 15.6543 12.0989 15.2472 12.5298C14.8401 12.9608 14.2836 13.2196 13.6919 13.2532L13.5605 13.2568H2.49338C1.90065 13.2568 1.33038 13.03 0.899547 12.6228C0.468713 12.2156 0.209979 11.6589 0.176422 11.0669L0.172852 10.9355V2.72188C0.172813 2.12897 0.399588 1.55852 0.806656 1.12756C1.21372 0.696588 1.77022 0.437774 2.362 0.404206L2.49338 0.400635H13.5605H2.49338ZM14.81 4.61816L8.27398 8.01789C8.21067 8.0508 8.14142 8.07072 8.07031 8.07649C7.99919 8.08225 7.92764 8.07374 7.85986 8.05146L7.77989 8.01789L1.24386 4.61816V10.9355C1.24387 11.2492 1.3618 11.5514 1.57422 11.7822C1.78664 12.0129 2.07804 12.1553 2.39056 12.1811L2.49338 12.1854H13.5605C13.8742 12.1854 14.1764 12.0673 14.4071 11.8547C14.6378 11.6421 14.7801 11.3504 14.8057 11.0377L14.81 10.9355V4.61816ZM13.5605 1.47198H2.49338C2.17979 1.47199 1.87767 1.58995 1.647 1.80244C1.41632 2.01493 1.27395 2.30641 1.24815 2.61903L1.24386 2.72188V3.4104L8.02693 6.93869L14.81 3.4104V2.72188C14.81 2.40808 14.692 2.10578 14.4794 1.87501C14.2668 1.64425 13.9752 1.50191 13.6626 1.47626L13.5605 1.47198Z" fill="#F8F8F8"/>
</svg>
