<svg width="36" height="36" viewBox="0 0 36 36" fill="none" xmlns="http://www.w3.org/2000/svg">
<path d="M18 33.75C13.8228 33.75 9.81677 32.0906 6.86307 29.1369C3.90937 26.1832 2.25 22.1772 2.25 18C2.25 13.8228 3.90937 9.81677 6.86307 6.86307C9.81677 3.90937 13.8228 2.25 18 2.25C22.1772 2.25 26.1832 3.90937 29.1369 6.86307C32.0906 9.81677 33.75 13.8228 33.75 18C33.75 22.1772 32.0906 26.1832 29.1369 29.1369C26.1832 32.0906 22.1772 33.75 18 33.75ZM18 36C22.7739 36 27.3523 34.1036 30.7279 30.7279C34.1036 27.3523 36 22.7739 36 18C36 13.2261 34.1036 8.64773 30.7279 5.27208C27.3523 1.89642 22.7739 0 18 0C13.2261 0 8.64773 1.89642 5.27208 5.27208C1.89642 8.64773 0 13.2261 0 18C0 22.7739 1.89642 27.3523 5.27208 30.7279C8.64773 34.1036 13.2261 36 18 36V36Z" fill="#A32035"/>
<path d="M20.0925 14.823L14.94 15.4688L14.7555 16.3238L15.768 16.5105C16.4295 16.668 16.56 16.9065 16.416 17.5658L14.7555 25.3687C14.319 27.387 14.9917 28.3365 16.5735 28.3365C17.7997 28.3365 19.224 27.7695 19.8697 26.991L20.0677 26.055C19.6177 26.451 18.9607 26.6085 18.5242 26.6085C17.9055 26.6085 17.6805 26.1742 17.8402 25.4093L20.0925 14.823ZM20.25 10.125C20.25 10.7217 20.0129 11.294 19.591 11.716C19.169 12.1379 18.5967 12.375 18 12.375C17.4032 12.375 16.831 12.1379 16.409 11.716C15.987 11.294 15.75 10.7217 15.75 10.125C15.75 9.52826 15.987 8.95597 16.409 8.53401C16.831 8.11205 17.4032 7.875 18 7.875C18.5967 7.875 19.169 8.11205 19.591 8.53401C20.0129 8.95597 20.25 9.52826 20.25 10.125Z" fill="#A32035"/>
</svg>
