<svg width="23" height="23" viewBox="0 0 23 23" fill="none" xmlns="http://www.w3.org/2000/svg">
<path d="M11.7012 6.3471C8.57622 6.3471 6.05421 8.86916 6.05421 11.9942C6.05421 15.1192 8.57622 17.6413 11.7012 17.6413C14.8262 17.6413 17.3482 15.1192 17.3482 11.9942C17.3482 8.86916 14.8262 6.3471 11.7012 6.3471ZM11.7012 15.6644C9.68029 15.6644 8.03107 14.0152 8.03107 11.9942C8.03107 9.97325 9.68029 8.324 11.7012 8.324C13.7221 8.324 15.3713 9.97325 15.3713 11.9942C15.3713 14.0152 13.7221 15.6644 11.7012 15.6644ZM17.5795 4.79972C16.8499 4.79972 16.2606 5.38894 16.2606 6.11857C16.2606 6.84821 16.8499 7.43742 17.5795 7.43742C18.3091 7.43742 18.8983 6.85096 18.8983 6.11857C18.8985 5.94532 18.8646 5.77372 18.7984 5.61361C18.7322 5.4535 18.635 5.30803 18.5125 5.18552C18.39 5.06301 18.2445 4.96587 18.0844 4.89967C17.9243 4.83347 17.7527 4.7995 17.5795 4.79972ZM22.7088 11.9942C22.7088 10.4744 22.7226 8.96828 22.6373 7.45119C22.5519 5.68905 22.1499 4.12515 20.8614 2.83659C19.5701 1.54527 18.009 1.14604 16.2469 1.06069C14.7271 0.975333 13.221 0.9891 11.704 0.9891C10.1841 0.9891 8.67809 0.975333 7.16103 1.06069C5.39892 1.14604 3.83506 1.54803 2.54652 2.83659C1.25523 4.12791 0.855999 5.68905 0.770647 7.45119C0.685295 8.97103 0.699061 10.4771 0.699061 11.9942C0.699061 13.5113 0.685295 15.0201 0.770647 16.5372C0.855999 18.2993 1.25798 19.8632 2.54652 21.1518C3.83781 22.4431 5.39892 22.8424 7.16103 22.9277C8.68084 23.0131 10.1869 22.9993 11.704 22.9993C13.2238 22.9993 14.7298 23.0131 16.2469 22.9277C18.009 22.8424 19.5729 22.4404 20.8614 21.1518C22.1527 19.8605 22.5519 18.2993 22.6373 16.5372C22.7254 15.0201 22.7088 13.514 22.7088 11.9942ZM20.286 18.4866C20.085 18.9877 19.8427 19.3621 19.4545 19.7476C19.0662 20.1358 18.6946 20.3781 18.1935 20.5791C16.7452 21.1546 13.3064 21.0252 11.7012 21.0252C10.096 21.0252 6.65442 21.1546 5.20619 20.5819C4.7051 20.3809 4.33065 20.1386 3.94519 19.7504C3.55697 19.3621 3.31469 18.9904 3.1137 18.4893C2.54101 17.0383 2.67042 13.5994 2.67042 11.9942C2.67042 10.389 2.54101 6.94733 3.1137 5.49907C3.31469 4.99796 3.55697 4.62351 3.94519 4.23804C4.3334 3.85257 4.7051 3.60753 5.20619 3.40653C6.65442 2.83384 10.096 2.96324 11.7012 2.96324C13.3064 2.96324 16.748 2.83384 18.1962 3.40653C18.6973 3.60753 19.0718 3.84982 19.4572 4.23804C19.8454 4.62626 20.0877 4.99796 20.2887 5.49907C20.8614 6.94733 20.732 10.389 20.732 11.9942C20.732 13.5994 20.8614 17.0383 20.286 18.4866Z" fill="#F8F8F8"/>
</svg>
