<svg width="17" height="18" viewBox="0 0 17 18" fill="none" xmlns="http://www.w3.org/2000/svg">
<path d="M8.71575 4.76295C6.37377 4.76295 4.48368 6.65366 4.48368 8.99641C4.48368 11.3392 6.37377 13.2299 8.71575 13.2299C11.0577 13.2299 12.9478 11.3392 12.9478 8.99641C12.9478 6.65366 11.0577 4.76295 8.71575 4.76295ZM8.71575 11.7478C7.2012 11.7478 5.96522 10.5115 5.96522 8.99641C5.96522 7.48136 7.2012 6.24497 8.71575 6.24497C10.2303 6.24497 11.4663 7.48136 11.4663 8.99641C11.4663 10.5115 10.2303 11.7478 8.71575 11.7478ZM13.1211 3.60293C12.5743 3.60293 12.1328 4.04464 12.1328 4.59163C12.1328 5.13861 12.5743 5.58033 13.1211 5.58033C13.6679 5.58033 14.1095 5.14068 14.1095 4.59163C14.1097 4.46174 14.0842 4.3331 14.0346 4.21308C13.985 4.09305 13.9122 3.98399 13.8204 3.89215C13.7286 3.8003 13.6196 3.72748 13.4996 3.67785C13.3796 3.62823 13.251 3.60276 13.1211 3.60293ZM16.9653 8.99641C16.9653 7.85703 16.9756 6.72797 16.9116 5.59065C16.8477 4.26963 16.5464 3.09722 15.5807 2.13123C14.613 1.16317 13.443 0.863873 12.1224 0.799886C10.9834 0.735899 9.85475 0.746219 8.71781 0.746219C7.57881 0.746219 6.45012 0.735899 5.31318 0.799886C3.99259 0.863873 2.82057 1.16523 1.85489 2.13123C0.88715 3.09929 0.587955 4.26963 0.523989 5.59065C0.460023 6.73003 0.47034 7.85909 0.47034 8.99641C0.47034 10.1337 0.460023 11.2648 0.523989 12.4022C0.587955 13.7232 0.889214 14.8956 1.85489 15.8616C2.82263 16.8296 3.99259 17.1289 5.31318 17.1929C6.45218 17.2569 7.58087 17.2466 8.71781 17.2466C9.85682 17.2466 10.9855 17.2569 12.1224 17.1929C13.443 17.1289 14.6151 16.8276 15.5807 15.8616C16.5485 14.8935 16.8477 13.7232 16.9116 12.4022C16.9777 11.2648 16.9653 10.1358 16.9653 8.99641ZM15.1495 13.8635C14.9988 14.2392 14.8173 14.5199 14.5263 14.8089C14.2354 15.0999 13.9568 15.2816 13.5813 15.4323C12.4959 15.8636 9.91872 15.7666 8.71575 15.7666C7.51278 15.7666 4.93351 15.8636 3.84815 15.4343C3.47261 15.2836 3.19199 15.102 2.90311 14.811C2.61217 14.5199 2.43059 14.2413 2.27996 13.8656C1.85077 12.7778 1.94775 10.1998 1.94775 8.99641C1.94775 7.79304 1.85077 5.21292 2.27996 4.12721C2.43059 3.75154 2.61217 3.47082 2.90311 3.18185C3.19405 2.89288 3.47261 2.70917 3.84815 2.55849C4.93351 2.12916 7.51278 2.22618 8.71575 2.22618C9.91872 2.22618 12.498 2.12916 13.5833 2.55849C13.9589 2.70917 14.2395 2.89081 14.5284 3.18185C14.8193 3.47289 15.0009 3.75154 15.1515 4.12721C15.5807 5.21292 15.4838 7.79304 15.4838 8.99641C15.4838 10.1998 15.5807 12.7778 15.1495 13.8635Z" fill="black"/>
</svg>
