<svg width="13" height="16" viewBox="0 0 13 16" fill="none" xmlns="http://www.w3.org/2000/svg">
<path d="M6.5 8C5.60625 8 4.875 7.28 4.875 6.4C4.875 5.52 5.60625 4.8 6.5 4.8C7.39375 4.8 8.125 5.52 8.125 6.4C8.125 7.28 7.39375 8 6.5 8ZM11.375 6.56C11.375 3.656 9.22188 1.6 6.5 1.6C3.77813 1.6 1.625 3.656 1.625 6.56C1.625 8.432 3.20937 10.912 6.5 13.872C9.79063 10.912 11.375 8.432 11.375 6.56ZM6.5 0C9.9125 0 13 2.576 13 6.56C13 9.216 10.8306 12.36 6.5 16C2.16937 12.36 0 9.216 0 6.56C0 2.576 3.0875 0 6.5 0Z" fill="#A9A9A9"/>
</svg>
