<svg width="19" height="23" viewBox="0 0 19 23" fill="none" xmlns="http://www.w3.org/2000/svg">
<path d="M9.0811 11.4862C7.83245 11.4862 6.81082 10.5327 6.81082 9.36729C6.81082 8.20188 7.83245 7.24837 9.0811 7.24837C10.3297 7.24837 11.3514 8.20188 11.3514 9.36729C11.3514 10.5327 10.3297 11.4862 9.0811 11.4862ZM15.8919 9.57918C15.8919 5.73334 12.8838 3.01052 9.0811 3.01052C5.27839 3.01052 2.27027 5.73334 2.27027 9.57918C2.27027 12.0583 4.48379 15.3427 9.0811 19.2627C13.6784 15.3427 15.8919 12.0583 15.8919 9.57918ZM9.0811 0.891602C13.8487 0.891602 18.1622 4.30307 18.1622 9.57918C18.1622 13.0966 15.1314 17.2603 9.0811 22.0808C3.03082 17.2603 0 13.0966 0 9.57918C0 4.30307 4.31352 0.891602 9.0811 0.891602Z" fill="#A32035"/>
</svg>
