<svg width="16" height="18" viewBox="0 0 16 18" fill="none" xmlns="http://www.w3.org/2000/svg">
<path d="M8.23611 8.99617C7.22852 8.99617 6.40413 8.19497 6.40413 7.21573C6.40413 6.23649 7.22852 5.4353 8.23611 5.4353C9.24369 5.4353 10.0681 6.23649 10.0681 7.21573C10.0681 8.19497 9.24369 8.99617 8.23611 8.99617ZM13.732 7.39378C13.732 4.16229 11.3047 1.87443 8.23611 1.87443C5.16755 1.87443 2.74018 4.16229 2.74018 7.39378C2.74018 9.47689 4.52636 12.2366 8.23611 15.5304C11.9459 12.2366 13.732 9.47689 13.732 7.39378ZM8.23611 0.0939941C12.0833 0.0939941 15.564 2.96049 15.564 7.39378C15.564 10.3493 13.1183 13.8479 8.23611 17.8983C3.35389 13.8479 0.908203 10.3493 0.908203 7.39378C0.908203 2.96049 4.38896 0.0939941 8.23611 0.0939941Z" fill="black"/>
</svg>
