<svg width="17" height="16" viewBox="0 0 17 16" fill="none" xmlns="http://www.w3.org/2000/svg">
<path d="M14.3799 15.9354H14.2791C2.62084 15.2648 0.965551 5.42494 0.734167 2.42194C0.715523 2.18845 0.743119 1.95358 0.815374 1.73078C0.887629 1.50798 1.00312 1.30163 1.15524 1.12356C1.30735 0.945485 1.4931 0.799185 1.70184 0.693042C1.91057 0.5869 2.13819 0.523 2.37166 0.505005H5.64071C5.87836 0.504775 6.1106 0.575932 6.30735 0.709258C6.50411 0.842584 6.65631 1.03194 6.74424 1.25279L7.64604 3.4724C7.73287 3.68815 7.75442 3.92467 7.70801 4.15258C7.6616 4.38048 7.54928 4.58972 7.38499 4.75431L6.12128 6.03029C6.31868 7.15241 6.85588 8.18679 7.66022 8.9935C8.46456 9.80021 9.4972 10.3403 10.6184 10.5407L11.9059 9.26474C12.0729 9.10222 12.2841 8.99249 12.513 8.94921C12.7419 8.90594 12.9786 8.93106 13.1933 9.02142L15.4301 9.91757C15.6475 10.0083 15.833 10.1617 15.963 10.3583C16.093 10.5549 16.1615 10.7858 16.1598 11.0214V14.155C16.1598 14.6272 15.9723 15.0801 15.6385 15.414C15.3047 15.7479 14.852 15.9354 14.3799 15.9354ZM2.51405 1.69196C2.3567 1.69196 2.20579 1.75449 2.09453 1.86579C1.98326 1.97709 1.92075 2.12804 1.92075 2.28544V2.33292C2.19367 5.84631 3.94389 14.155 14.3443 14.7485C14.4223 14.7533 14.5004 14.7427 14.5742 14.7172C14.6481 14.6918 14.7161 14.652 14.7746 14.6002C14.833 14.5483 14.8806 14.4855 14.9147 14.4152C14.9488 14.3449 14.9687 14.2686 14.9732 14.1906V11.0214L12.7365 10.1253L11.0338 11.8167L10.749 11.7811C5.58731 11.1342 4.88722 5.97094 4.88722 5.91753L4.85163 5.63266L6.53658 3.92938L5.64664 1.69196H2.51405Z" fill="#F8F8F8"/>
</svg>
