<svg width="24" height="32" viewBox="0 0 24 32" fill="none" xmlns="http://www.w3.org/2000/svg">
<path d="M23.457 15.3345C23.7751 15.1507 23.9544 14.8033 23.8837 14.4024L23.6883 13.285C23.6065 12.823 23.2182 12.4302 22.7521 12.2802L22.1361 5.4454C22.0356 4.33 21.1277 3.41708 20.1194 3.41708H19.1832V2.60262C19.1832 1.57104 18.3607 0.727295 17.3549 0.727295H7.29456C6.28772 0.727295 5.46417 1.57104 5.46417 2.60262V3.41708H4.52903C3.52018 3.41708 2.6123 4.33 2.51233 5.4454L1.89934 12.258C1.39743 12.3867 0.970762 12.7967 0.883913 13.285L0.686484 14.4024C0.611754 14.8352 0.824836 15.2083 1.19142 15.377V18.4964C0.828876 19.0625 0.678405 19.8285 0.82938 20.6707L1.04499 21.8856C1.29695 23.2953 2.31288 24.4956 3.47827 24.8909V27.2777H3.47322C2.99908 27.2777 2.52899 27.6065 2.38054 28.0412L1.71958 29.9675C1.63122 30.2286 1.66808 30.4962 1.82208 30.7017C1.97659 30.9062 2.22603 31.0233 2.50778 31.0233H8.30039C8.58366 31.0233 8.83309 30.9057 8.98659 30.6997C9.13959 30.4942 9.17645 30.2261 9.08708 29.965L8.42612 28.0397C8.27615 27.6049 7.80656 27.2767 7.33445 27.2767H7.3294V25.0288H17.318V27.2767H17.313C16.8414 27.2767 16.3723 27.6044 16.2208 28.0402L15.5603 29.965C15.4715 30.2261 15.5078 30.4937 15.6608 30.6997C15.8153 30.9057 16.0658 31.0233 16.349 31.0233H22.1406C22.4234 31.0233 22.6733 30.9057 22.8263 30.6997C22.9798 30.4937 23.0167 30.2261 22.9268 29.965L22.2669 28.0397C22.1169 27.6049 21.6468 27.2767 21.1747 27.2767H21.1691V24.8899C22.334 24.4945 23.3505 23.2943 23.6019 21.8845L23.8195 20.6697C23.97 19.8274 23.819 19.0615 23.4565 18.4949V15.3345H23.457ZM20.5688 15.4749H22.4941V17.6779C22.2424 17.576 21.9734 17.524 21.7018 17.5249H20.5693V15.4749H20.5688ZM2.15483 15.4749H4.08015V17.5254H2.94657C2.67505 17.5244 2.40593 17.5764 2.15433 17.6784V15.4749H2.15483ZM17.2443 5.41712C17.2418 5.45095 17.2453 5.48378 17.2408 5.51811L16.3834 12.3221C16.2592 13.3067 15.4831 14.1394 14.6893 14.1394H9.96011C9.16534 14.1394 8.38926 13.3072 8.26605 12.3221L7.40716 5.51811C7.40312 5.48378 7.40666 5.45095 7.40363 5.41712H17.2443ZM3.4717 5.52568C3.52775 4.89957 4.02208 4.34969 4.52903 4.34969H5.651C5.81731 4.70255 6.09017 4.99431 6.43112 5.18384C6.42759 5.33078 6.43163 5.47974 6.45081 5.63122L7.30971 12.4352C7.49199 13.8889 8.6806 15.0715 9.9596 15.0715H14.6888C15.9663 15.0715 17.1554 13.8889 17.3387 12.4352L18.1961 5.63122C18.2153 5.48024 18.2193 5.33128 18.2163 5.18384C18.557 4.99415 18.8296 4.70242 18.9959 4.34969H20.1189C20.6258 4.34969 21.1197 4.89957 21.1762 5.52619L21.7786 12.212H20.6319C20.0022 12.212 19.4014 12.6952 19.2974 13.285L19.0994 14.4024C19.0237 14.8352 19.2373 15.2083 19.6049 15.3775V17.5254H5.04306V15.3345C5.36066 15.1507 5.54042 14.8033 5.47023 14.4024L5.27482 13.285C5.1698 12.6952 4.56993 12.212 3.93927 12.212H2.87032L3.4717 5.52568ZM6.3675 27.2772H4.44218V25.0293H6.3675V27.2772ZM18.2809 27.2772V25.0293H20.2067V27.2772H18.2809Z" fill="#A32035"/>
</svg>
