<svg width="24" height="24" viewBox="0 0 24 24" fill="none" xmlns="http://www.w3.org/2000/svg">
<path d="M21.5994 1.2H5.99985V0H4.79988C4.43914 0.0397983 4.09449 0.170861 3.79846 0.38082C3.50242 0.590778 3.26477 0.872707 3.10792 1.2H0V3.6H2.07595C0 10.296 0 24 0 24H5.99985V3.6H21.5994V1.2ZM23.9994 7.8C23.9879 7.23508 23.8172 6.68488 23.5068 6.21273C23.1964 5.74059 22.759 5.3657 22.2449 5.13123C21.7309 4.89676 21.161 4.81224 20.601 4.8874C20.041 4.96256 19.5136 5.19435 19.0796 5.55607C18.6455 5.9178 18.3224 6.39476 18.1475 6.93204C17.9726 7.46932 17.953 8.04508 18.0909 8.59302C18.2288 9.14097 18.5187 9.63882 18.9271 10.0293C19.3355 10.4197 19.8459 10.6869 20.3995 10.8V24H21.5994V10.8C22.2873 10.6597 22.9041 10.2827 23.3426 9.73457C23.7811 9.18642 24.0135 8.50184 23.9994 7.8ZM15.5996 11.4V16.8H14.3996V24H12.5997V18H11.3997V24H9.59976V16.8H8.39979V11.4C8.39979 10.9226 8.58942 10.4648 8.92698 10.1272C9.26454 9.78964 9.72236 9.6 10.1997 9.6H13.7996C14.277 9.6 14.7349 9.78964 15.0724 10.1272C15.41 10.4648 15.5996 10.9226 15.5996 11.4ZM11.9997 5.4C11.6437 5.4 11.2957 5.50557 10.9997 5.70335C10.7037 5.90114 10.473 6.18226 10.3368 6.51117C10.2005 6.84008 10.1649 7.202 10.2343 7.55116C10.3038 7.90033 10.4752 8.22106 10.7269 8.47279C10.9787 8.72453 11.2994 8.89596 11.6485 8.96541C11.9977 9.03487 12.3596 8.99922 12.6885 8.86298C13.0174 8.72675 13.2985 8.49603 13.4963 8.20003C13.6941 7.90402 13.7996 7.55601 13.7996 7.2C13.7996 6.72261 13.61 6.26477 13.2725 5.92721C12.9349 5.58964 12.4771 5.4 11.9997 5.4Z" fill="white"/>
</svg>
