<svg width="29" height="29" viewBox="0 0 29 29" fill="none" xmlns="http://www.w3.org/2000/svg">
<path d="M17.5774 2.38692C17.3821 2.1919 17.1174 2.08236 16.8415 2.08236C16.5655 2.08236 16.3008 2.1919 16.1055 2.38692L2.3868 16.1057C2.19178 16.3009 2.08224 16.5656 2.08224 16.8416C2.08224 17.1176 2.19178 17.3822 2.3868 17.5775L3.87115 19.0605C4.59691 18.655 5.43519 18.4974 6.25865 18.6118C7.08211 18.7261 7.84576 19.106 8.43362 19.6939C9.02148 20.2818 9.40143 21.0454 9.51575 21.8689C9.63008 22.6923 9.47253 23.5306 9.06705 24.2564L10.5514 25.7421C10.6481 25.8389 10.7629 25.9157 10.8893 25.968C11.0157 26.0204 11.1512 26.0474 11.288 26.0474C11.4248 26.0474 11.5603 26.0204 11.6867 25.968C11.8131 25.9157 11.9279 25.8389 12.0246 25.7421L25.742 12.0248C25.937 11.8295 26.0465 11.5648 26.0465 11.2888C26.0465 11.0129 25.937 10.7482 25.742 10.5529L24.2563 9.06578C23.5305 9.47127 22.6922 9.62881 21.8687 9.51449C21.0453 9.40016 20.2816 9.02022 19.6938 8.43236C19.1059 7.8445 18.726 7.08084 18.6116 6.25738C18.4973 5.43392 18.6549 4.59565 19.0603 3.86988L17.5774 2.38692ZM14.6337 0.915073C14.9238 0.624959 15.2682 0.394828 15.6473 0.23782C16.0263 0.0808113 16.4326 0 16.8429 0C17.2531 0 17.6594 0.0808113 18.0384 0.23782C18.4175 0.394828 18.7619 0.624959 19.052 0.915073L20.678 2.54244C21.3875 3.25059 21.2612 4.24617 20.9029 4.84741C20.706 5.17906 20.6252 5.56687 20.6732 5.94959C20.7212 6.3323 20.8953 6.68813 21.168 6.96087C21.4408 7.23361 21.7966 7.40773 22.1793 7.45574C22.562 7.50375 22.9498 7.4229 23.2815 7.22597C23.8827 6.86912 24.8783 6.74137 25.5865 7.45091L27.2138 9.07967C27.5039 9.36978 27.7341 9.71419 27.8911 10.0932C28.0481 10.4723 28.1289 10.8786 28.1289 11.2888C28.1289 11.6991 28.0481 12.1054 27.8911 12.4844C27.7341 12.8635 27.5039 13.2079 27.2138 13.498L13.4979 27.214C13.2078 27.5041 12.8633 27.7342 12.4843 27.8912C12.1053 28.0482 11.699 28.129 11.2887 28.129C10.8784 28.129 10.4722 28.0482 10.0931 27.8912C9.71407 27.7342 9.36966 27.5041 9.07955 27.214L7.45218 25.588C6.74403 24.8798 6.869 23.8829 7.22724 23.283C7.42417 22.9514 7.50501 22.5635 7.45701 22.1808C7.409 21.7981 7.23488 21.4423 6.96213 21.1695C6.68939 20.8968 6.33357 20.7227 5.95085 20.6747C5.56814 20.6267 5.18033 20.7075 4.84868 20.9044C4.24744 21.2613 3.25186 21.3877 2.5437 20.6781L0.914951 19.0508C0.624837 18.7606 0.394706 18.4162 0.237698 18.0372C0.0806892 17.6581 -0.00012207 17.2519 -0.00012207 16.8416C-0.00012207 16.4313 0.0806892 16.025 0.237698 15.646C0.394706 15.2669 0.624837 14.9225 0.914951 14.6324L14.6337 0.915073Z" fill="#A32035"/>
</svg>
