<svg width="16" height="17" viewBox="0 0 16 17" fill="none" xmlns="http://www.w3.org/2000/svg">
<path d="M7.992 0.782166C3.576 0.782166 0 4.36617 0 8.78217C0 13.1982 3.576 16.7822 7.992 16.7822C12.416 16.7822 16 13.1982 16 8.78217C16 4.36617 12.416 0.782166 7.992 0.782166ZM8 15.1822C4.464 15.1822 1.6 12.3182 1.6 8.78217C1.6 5.24617 4.464 2.38217 8 2.38217C11.536 2.38217 14.4 5.24617 14.4 8.78217C14.4 12.3182 11.536 15.1822 8 15.1822ZM7.824 4.78217H7.776C7.456 4.78217 7.2 5.03817 7.2 5.35817V9.13417C7.2 9.41417 7.344 9.67817 7.592 9.82217L10.912 11.8142C11.184 11.9742 11.536 11.8942 11.696 11.6222C11.7362 11.5574 11.7629 11.4852 11.7746 11.4099C11.7863 11.3345 11.7827 11.2576 11.764 11.1837C11.7453 11.1098 11.712 11.0404 11.6659 10.9797C11.6199 10.919 11.5621 10.8681 11.496 10.8302L8.4 8.99017V5.35817C8.4 5.03817 8.144 4.78217 7.824 4.78217Z" fill="#A9A9A9"/>
</svg>
