<svg width="8" height="8" viewBox="0 0 8 8" fill="none" xmlns="http://www.w3.org/2000/svg">
<path d="M3.99649 0C1.78849 0 0.000488281 1.792 0.000488281 4C0.000488281 6.208 1.78849 8 3.99649 8C6.20849 8 8.00049 6.208 8.00049 4C8.00049 1.792 6.20849 0 3.99649 0ZM4.00049 7.2C2.23249 7.2 0.800488 5.768 0.800488 4C0.800488 2.232 2.23249 0.8 4.00049 0.8C5.76849 0.8 7.20049 2.232 7.20049 4C7.20049 5.768 5.76849 7.2 4.00049 7.2ZM3.91249 2H3.88849C3.72849 2 3.60049 2.128 3.60049 2.288V4.176C3.60049 4.316 3.67249 4.448 3.79649 4.52L5.45649 5.516C5.59249 5.596 5.76849 5.556 5.84849 5.42C5.86857 5.38761 5.88194 5.35151 5.88778 5.31385C5.89362 5.27619 5.89182 5.23774 5.88249 5.20079C5.87316 5.16384 5.85648 5.12914 5.83346 5.09877C5.81044 5.0684 5.78154 5.04297 5.74849 5.024L4.20049 4.104V2.288C4.20049 2.128 4.07249 2 3.91249 2Z" fill="#A32035"/>
</svg>
