<svg width="27" height="21" viewBox="0 0 27 21" fill="none" xmlns="http://www.w3.org/2000/svg">
<path d="M27 10.3699C27 10.3047 27 10.2306 26.997 10.1447C26.994 9.90458 26.9881 9.63485 26.9822 9.34734C26.9584 8.52037 26.9169 7.69637 26.8516 6.91979C26.7625 5.84977 26.6319 4.95759 26.4538 4.28772C26.2658 3.58865 25.8974 2.95108 25.3853 2.43874C24.8733 1.9264 24.2355 1.55723 23.5358 1.36814C22.6957 1.14287 21.0511 1.00356 18.7357 0.917603C17.6344 0.876107 16.4559 0.84943 15.2774 0.83461C14.8648 0.828682 14.4819 0.825718 14.1375 0.822754H13.2648C12.9204 0.825718 12.5375 0.828682 12.1249 0.83461C10.9464 0.84943 9.76792 0.876107 8.66661 0.917603C6.35119 1.00652 4.70368 1.14583 3.86657 1.36814C3.1666 1.55677 2.52858 1.92578 2.01644 2.43819C1.5043 2.9506 1.13604 3.58842 0.948545 4.28772C0.767468 4.95759 0.639823 5.84977 0.550768 6.91979C0.485461 7.69637 0.443903 8.52037 0.420155 9.34734C0.411249 9.63485 0.408281 9.90458 0.405312 10.1447C0.405312 10.2306 0.402344 10.3047 0.402344 10.3699V10.5359C0.402344 10.6011 0.402344 10.6752 0.405312 10.7612C0.408281 11.0013 0.414218 11.271 0.420155 11.5585C0.443903 12.3855 0.485461 13.2095 0.550768 13.9861C0.639823 15.0561 0.770436 15.9483 0.948545 16.6181C1.32851 18.0379 2.44466 19.1583 3.86657 19.5377C4.70368 19.763 6.35119 19.9023 8.66661 19.9883C9.76792 20.0298 10.9464 20.0564 12.1249 20.0713C12.5375 20.0772 12.9204 20.0801 13.2648 20.0831H14.1375C14.4819 20.0801 14.8648 20.0772 15.2774 20.0713C16.4559 20.0564 17.6344 20.0298 18.7357 19.9883C21.0511 19.8993 22.6986 19.76 23.5358 19.5377C24.9577 19.1583 26.0738 18.0409 26.4538 16.6181C26.6349 15.9483 26.7625 15.0561 26.8516 13.9861C26.9169 13.2095 26.9584 12.3855 26.9822 11.5585C26.9911 11.271 26.994 11.0013 26.997 10.7612C26.997 10.6752 27 10.6011 27 10.5359V10.3699ZM24.8627 10.5241C24.8627 10.5863 24.8627 10.6545 24.8597 10.7345C24.8567 10.9657 24.8508 11.2206 24.8449 11.4963C24.8241 12.2847 24.7825 13.0731 24.7202 13.8053C24.64 14.7597 24.5272 15.5422 24.3877 16.0668C24.2037 16.7515 23.6634 17.2939 22.9806 17.4748C22.3573 17.6407 20.7869 17.7741 18.6526 17.8541C17.5721 17.8956 16.4084 17.9223 15.2477 17.9371C14.8411 17.9431 14.4641 17.946 14.1257 17.946H13.2767L12.1546 17.9371C10.9939 17.9223 9.83322 17.8956 8.74973 17.8541C6.61539 17.7712 5.04209 17.6407 4.42167 17.4748C3.73892 17.291 3.19866 16.7515 3.01461 16.0668C2.87509 15.5422 2.76229 14.7597 2.68214 13.8053C2.6198 13.0731 2.58121 12.2847 2.55746 11.4963C2.54856 11.2206 2.54559 10.9627 2.54262 10.7345C2.54262 10.6545 2.53965 10.5833 2.53965 10.5241V10.3818C2.53965 10.3195 2.53965 10.2514 2.54262 10.1713C2.54559 9.94015 2.55153 9.68524 2.55746 9.40959C2.57824 8.62115 2.6198 7.83272 2.68214 7.1006C2.76229 6.14618 2.87509 5.36367 3.01461 4.83903C3.19866 4.15434 3.73892 3.61192 4.42167 3.43111C5.04506 3.26513 6.61539 3.13174 8.74973 3.05171C9.83026 3.01022 10.9939 2.98354 12.1546 2.96872C12.5613 2.96279 12.9383 2.95983 13.2767 2.95983H14.1257L15.2477 2.96872C16.4084 2.98354 17.5691 3.01022 18.6526 3.05171C20.7869 3.13471 22.3602 3.26513 22.9806 3.43111C23.6634 3.61488 24.2037 4.15434 24.3877 4.83903C24.5272 5.36367 24.64 6.14618 24.7202 7.1006C24.7825 7.83272 24.8211 8.62115 24.8449 9.40959C24.8538 9.68524 24.8567 9.94312 24.8597 10.1713C24.8597 10.2514 24.8627 10.3225 24.8627 10.3818V10.5241ZM11.0592 14.4247L17.9461 10.4233L11.0592 6.48111V14.4247Z" fill="black"/>
</svg>
