<svg width="27" height="21" viewBox="0 0 27 21" fill="none" xmlns="http://www.w3.org/2000/svg">
<path d="M27 10.3697C27 10.3045 27 10.2304 26.997 10.1444C26.994 9.90434 26.9881 9.63461 26.9822 9.3471C26.9584 8.52013 26.9169 7.69613 26.8516 6.91955C26.7625 5.84953 26.6319 4.95735 26.4538 4.28748C26.2658 3.58841 25.8974 2.95084 25.3853 2.4385C24.8733 1.92615 24.2355 1.55699 23.5358 1.36789C22.6957 1.14263 21.0511 1.00332 18.7357 0.917359C17.6344 0.875862 16.4559 0.849186 15.2774 0.834366C14.8648 0.828438 14.4819 0.825474 14.1375 0.82251H13.2648C12.9204 0.825474 12.5375 0.828438 12.1249 0.834366C10.9464 0.849186 9.76792 0.875862 8.66661 0.917359C6.35119 1.00628 4.70368 1.14559 3.86657 1.36789C3.1666 1.55652 2.52858 1.92553 2.01644 2.43795C1.5043 2.95036 1.13604 3.58818 0.948545 4.28748C0.767468 4.95735 0.639823 5.84953 0.550768 6.91955C0.485461 7.69613 0.443903 8.52013 0.420155 9.3471C0.411249 9.63461 0.408281 9.90434 0.405312 10.1444C0.405312 10.2304 0.402344 10.3045 0.402344 10.3697V10.5357C0.402344 10.6009 0.402344 10.675 0.405312 10.7609C0.408281 11.001 0.414218 11.2708 0.420155 11.5583C0.443903 12.3852 0.485461 13.2092 0.550768 13.9858C0.639823 15.0558 0.770436 15.948 0.948545 16.6179C1.32851 18.0377 2.44466 19.1581 3.86657 19.5375C4.70368 19.7627 6.35119 19.9021 8.66661 19.988C9.76792 20.0295 10.9464 20.0562 12.1249 20.071C12.5375 20.0769 12.9204 20.0799 13.2648 20.0829H14.1375C14.4819 20.0799 14.8648 20.0769 15.2774 20.071C16.4559 20.0562 17.6344 20.0295 18.7357 19.988C21.0511 19.8991 22.6986 19.7598 23.5358 19.5375C24.9577 19.1581 26.0738 18.0406 26.4538 16.6179C26.6349 15.948 26.7625 15.0558 26.8516 13.9858C26.9169 13.2092 26.9584 12.3852 26.9822 11.5583C26.9911 11.2708 26.994 11.001 26.997 10.7609C26.997 10.675 27 10.6009 27 10.5357V10.3697ZM24.8627 10.5238C24.8627 10.5861 24.8627 10.6542 24.8597 10.7343C24.8567 10.9655 24.8508 11.2204 24.8449 11.496C24.8241 12.2845 24.7825 13.0729 24.7202 13.805C24.64 14.7594 24.5272 15.542 24.3877 16.0666C24.2037 16.7513 23.6634 17.2937 22.9806 17.4745C22.3573 17.6405 20.7869 17.7739 18.6526 17.8539C17.5721 17.8954 16.4084 17.9221 15.2477 17.9369C14.8411 17.9428 14.4641 17.9458 14.1257 17.9458H13.2767L12.1546 17.9369C10.9939 17.9221 9.83322 17.8954 8.74973 17.8539C6.61539 17.7709 5.04209 17.6405 4.42167 17.4745C3.73892 17.2907 3.19866 16.7513 3.01461 16.0666C2.87509 15.542 2.76229 14.7594 2.68214 13.805C2.6198 13.0729 2.58121 12.2845 2.55746 11.496C2.54856 11.2204 2.54559 10.9625 2.54262 10.7343C2.54262 10.6542 2.53965 10.5831 2.53965 10.5238V10.3815C2.53965 10.3193 2.53965 10.2511 2.54262 10.1711C2.54559 9.93991 2.55153 9.685 2.55746 9.40934C2.57824 8.62091 2.6198 7.83247 2.68214 7.10035C2.76229 6.14593 2.87509 5.36342 3.01461 4.83879C3.19866 4.15409 3.73892 3.61167 4.42167 3.43087C5.04506 3.26488 6.61539 3.1315 8.74973 3.05147C9.83026 3.00997 10.9939 2.9833 12.1546 2.96848C12.5613 2.96255 12.9383 2.95959 13.2767 2.95959H14.1257L15.2477 2.96848C16.4084 2.9833 17.5691 3.00997 18.6526 3.05147C20.7869 3.13446 22.3602 3.26488 22.9806 3.43087C23.6634 3.61464 24.2037 4.15409 24.3877 4.83879C24.5272 5.36342 24.64 6.14593 24.7202 7.10035C24.7825 7.83247 24.8211 8.62091 24.8449 9.40934C24.8538 9.685 24.8567 9.94287 24.8597 10.1711C24.8597 10.2511 24.8627 10.3223 24.8627 10.3815V10.5238ZM11.0592 14.4245L17.9461 10.423L11.0592 6.48087V14.4245Z" fill="#F8F8F8"/>
</svg>
