<svg width="290" height="1417" viewBox="0 0 290 1417" fill="none" xmlns="http://www.w3.org/2000/svg">
<path opacity="0.5" d="M250.413 700.978C317.724 1034.92 273.153 1328.25 256.325 1417H260.419C278.156 1319.22 320.453 1027.4 253.597 694.962C189.014 373.053 228.127 96.2718 245.865 0H241.772C222.67 103.793 185.83 379.07 250.413 700.978ZM196.746 700.978C264.057 1034.92 219.486 1328.25 202.658 1417H206.752C224.489 1319.22 266.786 1027.4 199.929 694.962C135.347 373.053 174.46 96.2718 192.198 0H188.104C169.003 103.793 132.618 379.07 196.746 700.978ZM143.533 700.978C210.845 1034.92 166.274 1328.25 149.446 1417H153.539C171.277 1319.22 213.574 1027.4 146.717 694.962C82.1345 373.053 121.248 96.2718 138.985 0H134.892C115.79 103.793 78.951 379.07 143.533 700.978ZM89.8662 700.978C157.178 1034.92 112.607 1328.25 95.7788 1417H99.872C117.609 1319.22 159.906 1027.4 93.0499 694.962C28.4674 373.053 67.5807 96.2718 85.3181 0H81.2249C62.1231 103.793 25.2837 379.07 89.8662 700.978ZM27.5577 0C8.91068 103.793 -27.9286 380.574 36.1991 700.978C103.51 1034.92 58.9394 1328.25 42.1115 1417H46.2048C63.9423 1319.22 106.239 1027.4 39.3827 694.962C-25.1998 373.053 13.9136 96.2718 31.651 0H27.5577Z" fill="#7C2525"/>
</svg>
