<svg width="25" height="17" viewBox="0 0 25 17" fill="none" xmlns="http://www.w3.org/2000/svg">
<mask id="mask0" style="mask-type:alpha" maskUnits="userSpaceOnUse" x="0" y="0" width="25" height="17">
<path d="M0 2C0 0.89543 0.895431 0 2 0H22.9999C24.1045 0 24.9999 0.89543 24.9999 2V14.6129C24.9999 15.7175 24.1045 16.6129 22.9999 16.6129H2C0.895433 16.6129 0 15.7175 0 14.6129V2Z" fill="#1E50A0"/>
</mask>
<g mask="url(#mask0)">
<path d="M0 2C0 0.89543 0.895431 0 2 0H22.9999C24.1045 0 24.9999 0.89543 24.9999 2V14.6129C24.9999 15.7175 24.1045 16.6129 22.9999 16.6129H2C0.895433 16.6129 0 15.7175 0 14.6129V2Z" fill="#1E50A0"/>
<path d="M14.113 5.18323V6.55772H18.2183L25.0001 2.05082V0H21.9138L14.113 5.18323Z" fill="white"/>
<path d="M25.0001 0H23.457L14.113 6.20929V6.55772H15.5171L25.0001 0.256189V0Z" fill="#D22F27"/>
<path d="M21.9142 16.6129H25.0001V14.5616L18.2187 10.0552H14.113V11.4292L21.9142 16.6129Z" fill="white"/>
<path d="M25 16.6129V15.5868L16.6755 10.0552H14.7452L24.6138 16.6129H25Z" fill="#D22F27"/>
<path d="M10.8871 11.4297V10.0552H6.78183L0 14.5621V16.6129H3.08628L10.8871 11.4297Z" fill="white"/>
<path d="M0 16.6129H1.54314L10.8871 10.4036V10.0552H9.48303L0 16.3567V16.6129Z" fill="#D22F27"/>
<path d="M3.08588 0H0V2.05126L6.78143 6.55772H10.8871V5.18366L3.08588 0Z" fill="white"/>
<path d="M0 0V1.02607L8.32497 6.55772H10.2548L0.386289 0H0Z" fill="#D22F27"/>
<path d="M0 6.12053H24.9999V10.4923H0V6.12053Z" fill="white"/>
<path d="M10.4839 0H14.5161V16.6129H10.4839V0Z" fill="white"/>
<path d="M0 6.9949H24.9999V9.61799H0V6.9949Z" fill="#D22F27"/>
<path d="M11.2903 0H13.7096V16.6129H11.2903V0Z" fill="#D22F27"/>
</g>
</svg>
