<svg width="54" height="46" viewBox="0 0 54 46" fill="none" xmlns="http://www.w3.org/2000/svg">
<path d="M45.5625 0C47.8003 0 49.9464 0.932003 51.5287 2.59098C53.1111 4.24995 54 6.50001 54 8.84615V37.1538C54 39.5 53.1111 41.75 51.5287 43.409C49.9464 45.068 47.8003 46 45.5625 46H8.4375C6.19974 46 4.05362 45.068 2.47129 43.409C0.888948 41.75 0 39.5 0 37.1538V8.84615C0 6.50001 0.888948 4.24995 2.47129 2.59098C4.05362 0.932003 6.19974 0 8.4375 0H45.5625ZM50.625 14.0158L27.8572 28.0635C27.642 28.196 27.4014 28.2768 27.1528 28.3001C26.9042 28.3233 26.6537 28.2885 26.4195 28.198L26.1428 28.0635L3.375 14.0229V37.1538C3.375 38.5615 3.90837 39.9116 4.85777 40.907C5.80718 41.9023 7.09484 42.4615 8.4375 42.4615H45.5625C46.9052 42.4615 48.1928 41.9023 49.1422 40.907C50.0916 39.9116 50.625 38.5615 50.625 37.1538V14.0158ZM45.5625 3.53846H8.4375C7.09484 3.53846 5.80718 4.09766 4.85777 5.09305C3.90837 6.08843 3.375 7.43847 3.375 8.84615V9.91477L27 24.4862L50.625 9.90769V8.84615C50.625 7.43847 50.0916 6.08843 49.1422 5.09305C48.1928 4.09766 46.9052 3.53846 45.5625 3.53846Z" fill="#A32035"/>
</svg>
