<svg width="378" height="106" viewBox="0 0 378 106" fill="none" xmlns="http://www.w3.org/2000/svg">
<path d="M121.6 11H0V105.2H121.6V11Z" fill="#A32035"/>
<path d="M59.8 57.6C74.6 79.8 64.8 99.3 61.1 105.2H62C65.9 98.7 75.2 79.3 60.5 57.2C46.3 35.8 54.9 17.4 58.8 11H57.9C53.7 17.9 45.6 36.2 59.8 57.6ZM48 57.6C62.8 79.8 53 99.3 49.3 105.2H50.2C54.1 98.7 63.4 79.3 48.7 57.2C34.5 35.8 43.1 17.4 47 11H46.1C42 17.9 33.9 36.2 48 57.6ZM36.3 57.6C51.1 79.8 41.3 99.3 37.6 105.2H38.5C42.4 98.7 51.7 79.3 37 57.2C22.8 35.8 31.4 17.4 35.3 11H34.4C30.2 17.9 22.1 36.2 36.3 57.6ZM24.4999 57.6C39.2999 79.8 29.5 99.3 25.8 105.2H26.7C30.6 98.7 39.9 79.3 25.2 57.2C11 35.8 19.5999 17.4 23.4999 11H22.6C18.4 17.9 10.2999 36.2 24.4999 57.6ZM10.8 11C6.69995 17.9 -1.40005 36.3 12.7 57.6C27.5 79.8 17.7 99.3 14 105.2H14.9C18.8 98.7 28.1 79.3 13.4 57.2C-0.800041 35.8 7.79995 17.4 11.7 11H10.8V11Z" fill="#BA5868"/>
<path d="M64.4999 28.5L61.8999 23.8H58.7999L63.0999 30.7V35.6H65.8999V30.7L70.2 23.8H67.0999L64.4999 28.5ZM49.4999 27.2L53.9999 35.7H57.2V23.9H54.4999V31.6L50.2999 23.9H46.7V35.7H49.3999V27.2H49.4999ZM45.2 26.1V23.8H35.2V26.1H38.7999V35.6H41.5999V26.1H45.2ZM32.3999 21.5L30.8999 19.8L28.0999 22.3L28.9999 23.3L32.3999 21.5ZM30.0999 26.6L31.5999 31.2H28.5999L30.0999 26.6ZM32.9999 35.7H35.8999L31.7 23.9H28.5999L24.3999 35.7H27.2999L27.9999 33.5H32.2999L32.9999 35.7ZM24.9999 26.1V23.8H14.9999V26.1H18.5999V35.6H21.3999V26.1H24.9999ZM8.89995 23.3H10.1999L12.8999 20.8L12.0999 19.8L9.69994 21.3L7.29994 19.8L6.39995 20.8L8.89995 23.3ZM9.19994 33.6C8.09994 33.6 6.89995 33.2 5.99995 32.7L5.09995 34.4C5.69995 35 7.19994 36 9.69994 36C11.8999 36 14.1999 34.9 14.1999 32.4C14.1999 28.4 8.29994 28.8 8.29994 27.2C8.29994 26.7 8.79995 26.1 9.99995 26.1C10.8999 26.1 12.0999 26.4 12.8999 26.9L13.4999 24.8C12.8999 24.3 11.4999 23.7 9.79994 23.7C6.89994 23.7 5.19994 25.2 5.19994 27.3C5.19994 31.4 11.0999 30.7 11.0999 32.5C11.1999 33.3 10.2999 33.6 9.19994 33.6Z" fill="white"/>
<path d="M91.9 40.4L90.4 38.7L87.6 41.2L88.5 42.2L91.9 40.4ZM89.2 47.5L86.6 42.8H83.5L87.8 49.7V54.6H90.6V49.7L94.9 42.8H91.8L89.2 47.5ZM74.2 46.1L78.7 54.6H81.9V42.8H79.2V50.5L75 42.8H71.4V54.6H74.1V46.1H74.2ZM66.2 46.8C66.2 48.1 65.3 48.5 63.9 48.5H62.5V45H63.9C65.4 45 66.2 45.4 66.2 46.8ZM69.1 46.7C69.1 44 67.2 42.8 65.1 42.8H59.9V54.6H62.7V50.7H63.9L66.8 54.6H69.9L66.7 50.3C68 49.8 69.1 48.6 69.1 46.7ZM45.6 48.7C45.6 51.5 47.2 54.8 51.4 54.8C56 54.8 57.7 51.8 57.7 48.6C57.7 45.7 56.1 42.5 51.9 42.5C47.4 42.5 45.6 45.6 45.6 48.7ZM48.5 48.4C48.5 46.6 49.6 44.9 51.5 44.9C54.1 44.9 54.9 46.8 54.9 49C54.9 50.8 53.8 52.5 51.9 52.5C49.3 52.5 48.5 50.5 48.5 48.4ZM33.9 42.8H29.5V54.6H32.2V44.9L35.3 54.6H37.8L40.9 45V54.6H43.5V42.8H39.1L36.5 50.9L33.9 42.8ZM15.3 48.7C15.3 51.5 16.9 54.8 21.1 54.8C25.7 54.8 27.4 51.8 27.4 48.6C27.4 45.7 25.8 42.5 21.6 42.5C17 42.5 15.3 45.6 15.3 48.7ZM18.1 48.4C18.1 46.6 19.2 44.9 21.1 44.9C23.7 44.9 24.5 46.8 24.5 49C24.5 50.8 23.4 52.5 21.5 52.5C19 52.5 18.1 50.5 18.1 48.4ZM7.59996 54.6V49.8H8.59996L12 54.6H15.1L10.7 48.4L14.6 42.8H11.5L8.29996 47.5H7.59996V42.8H4.89996V54.6H7.59996Z" fill="white"/>
<path d="M102.2 65.6C102.2 66.9 101.3 67.3 99.9 67.3H98.6V63.8H99.9999C101.3 63.9 102.2 64.3 102.2 65.6ZM105 65.5C105 62.8 103.1 61.6 100.9 61.6H95.7V73.4H98.4999V69.5H99.7L102.6 73.4H105.7L102.5 69.1C104 68.6 105 67.5 105 65.5ZM93.2 63.9V61.6H85.4V73.4H93.6V71.1H88.2V68.5H92.1V66.4H88.2V63.9H93.2ZM83.9 63.9V61.6H73.9V63.9H77.4999V73.4H80.2999V63.9H83.9ZM67.9999 71.3C66.8999 71.3 65.6999 70.9 64.7999 70.4L63.9 72.1C64.5 72.7 65.9999 73.7 68.4999 73.7C70.6999 73.7 72.9999 72.6 72.9999 70.1C72.9999 66.1 67.1 66.5 67.1 64.9C67.1 64.4 67.5999 63.8 68.7999 63.8C69.6999 63.8 70.9 64.1 71.7 64.6L72.2999 62.5C71.6999 62 70.3 61.4 68.6 61.4C65.7 61.4 63.9999 62.9 63.9999 65C63.9999 69.1 69.9 68.4 69.9 70.2C70.1 71 69.0999 71.3 67.9999 71.3ZM62.1 63.9V61.6H54.2999V73.4H62.4999V71.1H57.1V68.5H60.9999V66.4H57.1V63.9H62.1ZM48.7999 73.4H51.6V61.6H48.7999V66.3H43.9999V61.6H41.2V73.4H43.9999V68.6H48.7999V73.4ZM38.6 70.5C38 70.9 37 71.3 36.1 71.3C33.2 71.3 32.1 69.5 32.1 67.3C32.1 65.1 33.6 63.8 35.6 63.8C36.6 63.8 37.4999 64.1 38.4999 64.6L39.1 62.4C38.5 61.9 37.2 61.3 35.4 61.3C31.1 61.3 29.2 64.3 29.2 67.6C29.2 70.3 30.8 73.7 35.2 73.7C37.8 73.7 39.3 72.1 39.4 72L38.6 70.5ZM24.7999 65.6C24.7999 66.9 23.8999 67.3 22.4999 67.3H21.1V63.8H22.4999C23.9999 63.9 24.7999 64.3 24.7999 65.6ZM27.7 65.5C27.7 62.8 25.8 61.6 23.7 61.6H18.5V73.4H21.2999V69.5H22.4999L25.4 73.4H28.6L25.4 69.1C26.6 68.6 27.7 67.5 27.7 65.5ZM4.19995 67.6C4.19995 70.4 5.79995 73.7 9.99995 73.7C14.6 73.7 16.2999 70.7 16.2999 67.5C16.2999 64.6 14.7 61.4 10.5 61.4C5.99995 61.3 4.19995 64.5 4.19995 67.6ZM7.09995 67.2C7.09995 65.4 8.19995 63.7 10.1 63.7C12.7 63.7 13.5 65.6 13.5 67.8C13.5 69.6 12.4 71.3 10.5 71.3C7.89995 71.3 7.09995 69.4 7.09995 67.2Z" fill="white"/>
<path d="M53.5999 83.3L55.0999 87.9H52.0999L53.5999 83.3ZM56.4999 92.3H59.3999L55.1999 80.5H52.0999L47.8999 92.3H50.7999L51.4999 90.1H55.7999L56.4999 92.3ZM38.4999 83.8L42.9999 92.3H46.1999V80.5H43.4999V88.2L39.2999 80.5H35.6999V92.3H38.3999V83.8H38.4999ZM32.9999 80.5H30.1999V92.3H32.9999V80.5ZM23.6999 80.5H20.8999V92.3H28.6999V90H23.6999V80.5ZM18.0999 80.5H15.2999V92.3H18.0999V80.5ZM8.19993 79.9H9.49993L12.1999 77.4L11.3999 76.4L8.99993 77.9L6.59993 76.4L5.69993 77.4L8.19993 79.9ZM13.1999 92.3V90H7.59993L12.9999 82.7V80.5H4.49993V82.8H9.69993L4.29993 90.1V92.3H13.1999Z" fill="white"/>
<path d="M248.6 11H127V105.2H248.6V11Z" fill="black"/>
<path d="M186.8 57.6C201.6 79.8 191.8 99.3 188.1 105.2H189C192.9 98.7 202.2 79.3 187.5 57.2C173.3 35.8 181.9 17.4 185.8 11H184.9C180.7 17.9 172.6 36.2 186.8 57.6ZM175 57.6C189.8 79.8 180 99.3 176.3 105.2H177.2C181.1 98.7 190.4 79.3 175.7 57.2C161.5 35.8 170.1 17.4 174 11H173.1C168.9 17.9 160.9 36.2 175 57.6ZM163.3 57.6C178.1 79.8 168.3 99.3 164.6 105.2H165.5C169.4 98.7 178.7 79.3 164 57.2C149.8 35.8 158.4 17.4 162.3 11H161.4C157.2 17.9 149.1 36.2 163.3 57.6ZM151.5 57.6C166.3 79.8 156.5 99.3 152.8 105.2H153.7C157.6 98.7 166.9 79.3 152.2 57.2C138 35.8 146.6 17.4 150.5 11H149.6C145.4 17.9 137.3 36.2 151.5 57.6ZM137.8 11C133.7 17.9 125.6 36.3 139.7 57.6C154.5 79.8 144.7 99.3 141 105.2H141.9C145.8 98.7 155.1 79.3 140.4 57.2C126.2 35.8 134.8 17.4 138.7 11H137.8V11Z" fill="#87898C"/>
<path d="M190.3 35.7V30.9H191.3L194.7 35.7H197.8L193.4 29.5L197.3 23.9H194.2L191 28.6H190.3V23.9H187.6V35.7H190.3ZM180.2 26.6L181.7 31.2H178.7L180.2 26.6ZM183.1 35.7H186L181.8 23.9H178.7L174.5 35.7H177.4L178.1 33.5H182.4L183.1 35.7ZM169.2 32.7L166.4 23.8H163.5L167.7 35.6H170.8L175 23.8H172L169.2 32.7ZM150.9 29.8C150.9 32.6 152.5 35.9 156.7 35.9C161.3 35.9 163 32.9 163 29.7C163 26.8 161.4 23.6 157.2 23.6C152.6 23.6 150.9 26.7 150.9 29.8ZM153.7 29.5C153.7 27.7 154.8 26 156.7 26C159.3 26 160.1 27.9 160.1 30.1C160.1 31.9 159 33.6 157.1 33.6C154.6 33.6 153.7 31.6 153.7 29.5ZM145.1 23.9H142.3V35.7H150.1V33.4H145.1V23.9ZM135.3 33.6C134.2 33.6 133 33.2 132.1 32.7L131.2 34.4C131.8 35 133.3 36 135.8 36C138 36 140.3 34.9 140.3 32.4C140.3 28.4 134.4 28.8 134.4 27.2C134.4 26.7 134.9 26.1 136.1 26.1C137 26.1 138.2 26.4 139 26.9L139.6 24.8C139 24.3 137.6 23.7 135.9 23.7C133 23.7 131.3 25.2 131.3 27.3C131.3 31.4 137.2 30.7 137.2 32.5C137.3 33.3 136.3 33.6 135.3 33.6Z" fill="white"/>
<path d="M238 45.5L239.5 50.0999H236.5L238 45.5ZM240.9 54.5999H243.8L239.6 42.8H236.5L232.3 54.5999H235.2L235.9 52.4H240.2L240.9 54.5999ZM232.9 45V42.7H222.9V45H226.5V54.5H229.3V45H232.9ZM221.9 45V42.7H211.9V45H215.5V54.5H218.3V45H221.9ZM210.5 45V42.7H202.7V54.5H210.9V52.2H205.5V49.5999H209.4V47.5H205.5V45H210.5ZM200 42.8H197.2V54.5999H200V42.8ZM186.7 46.0999L191.2 54.5999H194.4V42.8H191.7V50.5L187.5 42.8H183.9V54.5999H186.6V46.0999H186.7ZM169.8 48.7C169.8 51.5 171.4 54.8 175.6 54.8C180.2 54.8 181.9 51.7999 181.9 48.5999C181.9 45.6999 180.3 42.5 176.1 42.5C171.5 42.5 169.8 45.6 169.8 48.7ZM172.6 48.4C172.6 46.6 173.7 44.9 175.6 44.9C178.2 44.9 179 46.8 179 49C179 50.8 177.9 52.5 176 52.5C173.5 52.5 172.6 50.5 172.6 48.4ZM168.9 45V42.7H161.1V54.5H163.9V49.7H167.8V47.5999H163.9V45H168.9ZM150.5 46.0999L155 54.5999H158.2V42.8H155.5V50.5L151.3 42.8H147.7V54.5999H150.4V46.0999H150.5ZM145.1 42.8H142.3V54.5999H145.1V42.8ZM135.3 52.5C134.2 52.5 133 52.0999 132.1 51.5999L131.2 53.3C131.8 53.9 133.3 54.9 135.8 54.9C138 54.9 140.3 53.8 140.3 51.3C140.3 47.3 134.4 47.6999 134.4 46.0999C134.4 45.5999 134.9 45 136.1 45C137 45 138.2 45.3 139 45.8L139.6 43.7C139 43.2 137.6 42.6 135.9 42.6C133 42.6 131.3 44.1 131.3 46.2C131.3 50.3 137.2 49.6 137.2 51.4C137.3 52.2 136.3 52.5 135.3 52.5Z" fill="white"/>
<path d="M180.6 64.4L182.1 69H179.1L180.6 64.4ZM183.5 73.4H186.4L182.2 61.6H179.1L174.9 73.4H177.8L178.5 71.2H182.8L183.5 73.4ZM165.5 65L170 73.5H173.2V61.7H170.5V69.4L166.3 61.7H162.7V73.5H165.4V65H165.5ZM160 61.6H157.2V73.4H160V61.6ZM150.6 61.6H147.8V73.4H155.6V71.1H150.6V61.6ZM145.1 61.6H142.3V73.4H145.1V61.6ZM135.2 61.1H136.5L139.2 58.6L138.4 57.6L136 59.1L133.6 57.6L132.7 58.6L135.2 61.1ZM140.2 73.4V71.1H134.6L140 63.8V61.6H131.5V63.9H136.7L131.3 71.2V73.4H140.2Z" fill="white"/>
<path d="M254.1 103.4V37.6" stroke="#A3A3A3" stroke-width="0.5"/>
<path d="M314.4 24.8H374.8" stroke="#A3A3A3" stroke-width="0.5"/>
<path d="M314.4 26.2H374.8" stroke="#A3A3A3" stroke-width="0.25"/>
<path d="M314.4 55.9V48.1" stroke="#A32035" stroke-width="0.5"/>
<path d="M295 90V97.6H299.9V87.2L295 90Z" stroke="#A3A3A3" stroke-width="0.5"/>
<path d="M314.5 83.2H254.1" stroke="#A3A3A3"/>
<path d="M314.5 84.8H292" stroke="#A3A3A3" stroke-width="0.5"/>
<path d="M292.3 95.5H274.2" stroke="#A3A3A3" stroke-width="0.25"/>
<path d="M292.3 91.5H274.2" stroke="#A3A3A3" stroke-width="0.25"/>
<path d="M292.3 87.3H274.2" stroke="#A3A3A3" stroke-width="0.25"/>
<path d="M260.3 87.3H254.1" stroke="#A3A3A3" stroke-width="0.25"/>
<path d="M260.3 91.5H254.1" stroke="#A3A3A3" stroke-width="0.25"/>
<path d="M260.3 95.5H254.1" stroke="#A3A3A3" stroke-width="0.25"/>
<path d="M274.1 87.5H260.1" stroke="#A3A3A3" stroke-width="0.5"/>
<path d="M292.3 99.4H274.5" stroke="#A3A3A3" stroke-width="0.5"/>
<path d="M269.8 79.3H264.9" stroke="#A3A3A3" stroke-width="0.5"/>
<path d="M299.2 79.3H295.6" stroke="#A3A3A3" stroke-width="0.5"/>
<path d="M289.2 48.2H286.8" stroke="#A3A3A3" stroke-width="0.5"/>
<path d="M283.1 48.2H280.8" stroke="#A3A3A3" stroke-width="0.5"/>
<path d="M260.6 99.5H254.1" stroke="#A3A3A3" stroke-width="0.5"/>
<path d="M292.3 103.4V83.2" stroke="#A3A3A3"/>
<path d="M260.3 103.4V87.2" stroke="#A3A3A3" stroke-width="0.5"/>
<path d="M326.8 88.4V84.8" stroke="#A3A3A3" stroke-width="0.5"/>
<path d="M323.8 87.3V84.8" stroke="#A3A3A3" stroke-width="0.5"/>
<path d="M302.1 88.4V84.8" stroke="#A3A3A3" stroke-width="0.5"/>
<path d="M305.1 87.7V84.8" stroke="#A3A3A3" stroke-width="0.5"/>
<path d="M314.5 81.7H254.1" stroke="#A3A3A3" stroke-width="0.5"/>
<path d="M314.5 41.1H254.1" stroke="#A3A3A3" stroke-width="0.5"/>
<path d="M314.5 39.6H254.1" stroke="#A3A3A3"/>
<path d="M314.5 24.8H254.1" stroke="#A3A3A3" stroke-width="0.5"/>
<path d="M314.5 26.2H254.1" stroke="#A3A3A3" stroke-width="0.25"/>
<path d="M314.5 19.8H252.4" stroke="#A3A3A3"/>
<path d="M314.5 18.4H252.4" stroke="#A3A3A3" stroke-width="0.5"/>
<path d="M292.8 19.8H291.7V23.6H292.8V19.8Z" fill="#A3A3A3"/>
<path d="M304.4 35.5H303.7V37.6H304.4V35.5Z" fill="#A3A3A3"/>
<path d="M310.7 35.5H310V37.6H310.7V35.5Z" fill="#A3A3A3"/>
<path d="M316.9 35.5H316.2V37.6H316.9V35.5Z" fill="#A3A3A3"/>
<path d="M306.5 35.5H305.8V37.6H306.5V35.5Z" fill="#A3A3A3"/>
<path d="M312.8 35.5H312.1V37.6H312.8V35.5Z" fill="#A3A3A3"/>
<path d="M319 35.5H318.3V37.6H319V35.5Z" fill="#A3A3A3"/>
<path d="M321.1 35.5H320.4V37.6H321.1V35.5Z" fill="#A3A3A3"/>
<path d="M308.6 35.5H307.9V37.6H308.6V35.5Z" fill="#A3A3A3"/>
<path d="M314.8 35.5H314.1V37.6H314.8V35.5Z" fill="#A3A3A3"/>
<path d="M323.2 35.5H322.5V37.6H323.2V35.5Z" fill="#A3A3A3"/>
<path d="M325.3 35.5H324.6V37.6H325.3V35.5Z" fill="#A3A3A3"/>
<path d="M300.8 35.5H300.1V37.6H300.8V35.5Z" fill="#A3A3A3"/>
<path d="M298.7 35.5H298V37.6H298.7V35.5Z" fill="#A3A3A3"/>
<path d="M296.6 35.5H295.9V37.6H296.6V35.5Z" fill="#A3A3A3"/>
<path d="M294.7 35.5H294V37.6H294.7V35.5Z" fill="#A3A3A3"/>
<path d="M290.3 19.8H289.2V23.6H290.3V19.8Z" fill="#A3A3A3"/>
<path d="M287.9 19.8H286.8V23.6H287.9V19.8Z" fill="#A3A3A3"/>
<path d="M285.6 19.8H284.5V23.6H285.6V19.8Z" fill="#A3A3A3"/>
<path d="M283.2 19.8H282.1V23.6H283.2V19.8Z" fill="#A3A3A3"/>
<path d="M280.9 19.8H279.8V23.6H280.9V19.8Z" fill="#A3A3A3"/>
<path d="M278.3 19.8H277.2V23.6H278.3V19.8Z" fill="#A3A3A3"/>
<path d="M254.9 19.8H253.8V23.6H254.9V19.8Z" fill="#A3A3A3"/>
<path d="M257.2 19.8H256.1V23.6H257.2V19.8Z" fill="#A3A3A3"/>
<path d="M270.8 26.5H263.9V34H270.8V26.5Z" stroke="#A32035" stroke-width="0.75"/>
<path d="M292.3 83.2V24.8" stroke="#A3A3A3"/>
<path d="M277.7 83.2V24.8" stroke="#A3A3A3"/>
<path d="M256.9 83.2V24.8" stroke="#A3A3A3" stroke-width="0.5"/>
<path d="M256.9 18.4V11.3" stroke="#A3A3A3" stroke-width="0.5"/>
<path d="M277.7 18.4V11.3" stroke="#A3A3A3"/>
<path d="M292.3 18.4V11.3" stroke="#A3A3A3"/>
<path d="M260.3 83.2V41.1" stroke="#A3A3A3" stroke-width="0.5"/>
<path d="M274.2 83.2V41.1" stroke="#A3A3A3" stroke-width="0.5"/>
<path d="M267.3 34V26.4" stroke="#A32035" stroke-width="0.5"/>
<path d="M270.8 43.9H263.9V55.8H270.8V43.9Z" stroke="#A32035" stroke-width="0.75"/>
<path d="M267.3 55.9V48.1" stroke="#A32035" stroke-width="0.5"/>
<path d="M270.8 48.3H263.9" stroke="#A3A3A3" stroke-width="0.5"/>
<path d="M299.5 65.8H295.4V77.7H299.5V65.8Z" stroke="#A32035" stroke-width="0.75"/>
<path d="M297.4 77.8V70.1" stroke="#A32035" stroke-width="0.5"/>
<path d="M299.6 70.2H295.3" stroke="#A32035" stroke-width="0.5"/>
<path d="M299.5 43.9H295.4V55.8H299.5V43.9Z" stroke="#A32035" stroke-width="0.75"/>
<path d="M297.4 55.9V48.3" stroke="#A32035" stroke-width="0.5"/>
<path d="M303.8 48.3H290.2" stroke="#A3A3A3" stroke-width="0.5"/>
<path d="M279.6 48.3H260.3" stroke="#A3A3A3" stroke-width="0.5"/>
<path d="M309.2 65.8H304V77.7H309.2V65.8Z" stroke="#A32035" stroke-width="0.75"/>
<path d="M306.6 77.8V70.3" stroke="#A32035" stroke-width="0.5"/>
<path d="M309.2 70.2H304" stroke="#A32035" stroke-width="0.5"/>
<path d="M309.2 43.9H304V55.8H309.2V43.9Z" stroke="#A32035" stroke-width="0.75"/>
<path d="M306.6 55.9V48.1" stroke="#A32035" stroke-width="0.5"/>
<path d="M309.2 48.3H304" stroke="#A32035" stroke-width="0.5"/>
<path d="M299.5 26.4H295.4V34.3H299.5V26.4Z" stroke="#A32035" stroke-width="0.75"/>
<path d="M297.4 34.5V29.3" stroke="#A32035" stroke-width="0.5"/>
<path d="M299.6 29.4H295.3" stroke="#A32035" stroke-width="0.5"/>
<path d="M309.2 26.4H304V34.3H309.2V26.4Z" stroke="#A32035" stroke-width="0.75"/>
<path d="M306.6 34.5V29.3" stroke="#A32035" stroke-width="0.5"/>
<path d="M309.2 29.4H304" stroke="#A32035" stroke-width="0.5"/>
<path d="M314.7 34.3H310.7V26.4H314.7" stroke="#A32035" stroke-width="0.75"/>
<path d="M314.5 29.4H310.7" stroke="#A32035" stroke-width="0.5"/>
<path d="M314.7 77.7H310.7V65.8H314.7" stroke="#A32035" stroke-width="0.75"/>
<path d="M314.7 55.8H310.7V43.9H314.7" stroke="#A32035" stroke-width="0.75"/>
<path d="M314.5 77.8V70.3" stroke="#A32035" stroke-width="0.5"/>
<path d="M314.5 55.9V48.1" stroke="#A32035" stroke-width="0.5"/>
<path d="M314.5 70.2H310.7" stroke="#A32035" stroke-width="0.5"/>
<path d="M314.5 48.3H310.7" stroke="#A32035" stroke-width="0.5"/>
<path d="M270.8 65.8H263.9V77.7H270.8V65.8Z" stroke="#A32035" stroke-width="0.75"/>
<path d="M267.3 77.8V70" stroke="#A32035" stroke-width="0.5"/>
<path d="M270.8 70.2H263.9" stroke="#A32035" stroke-width="0.5"/>
<path d="M314.5 64H303.9V58.4H314.5" stroke="#A3A3A3" stroke-width="0.5"/>
<path d="M299.9 58.4H295.4V64H299.9V58.4Z" stroke="#A3A3A3" stroke-width="0.5"/>
<path d="M269.7 58.6H264.5V63.8H269.7V58.6Z" stroke="#A3A3A3" stroke-width="0.5"/>
<path d="M302.1 81.7V41.1" stroke="#A3A3A3" stroke-width="0.5"/>
<path d="M302.1 39.4V34.2" stroke="#A3A3A3" stroke-width="0.5"/>
<path d="M277.7 39.6L274.2 36.6L270.8 35.2H263.9L260.3 36.6L256.9 39.6" stroke="#A3A3A3" stroke-width="0.5"/>
<path d="M253.8 11.3H265.1V11.2C265.1 9.80001 266.2 8.70001 267.6 8.70001C269 8.70001 270.1 9.80001 270.1 11.2V11.3H292.3L295.1 8.79999H306.4" stroke="#A3A3A3"/>
<path d="M290.4 46.3H279.6V52.5H290.4V46.3Z" stroke="#A3A3A3" stroke-width="0.5"/>
<path d="M268.6 87.2V103.3" stroke="#A32035" stroke-width="0.5"/>
<path d="M307.8 87.6V103.3" stroke="#A32035" stroke-width="0.5"/>
<path d="M280.1 29.6C280.763 29.6 281.3 29.0627 281.3 28.4C281.3 27.7373 280.763 27.2 280.1 27.2C279.437 27.2 278.9 27.7373 278.9 28.4C278.9 29.0627 279.437 29.6 280.1 29.6Z" stroke="#A3A3A3" stroke-width="0.5"/>
<path d="M280.8 30.2L280.5 39.4H279.6L279.4 30.2H280.8Z" stroke="#A3A3A3" stroke-width="0.5"/>
<path d="M278.7 31.4H281.5" stroke="#A3A3A3" stroke-width="0.5"/>
<path d="M283.4 29.6C284.063 29.6 284.6 29.0627 284.6 28.4C284.6 27.7373 284.063 27.2 283.4 27.2C282.737 27.2 282.2 27.7373 282.2 28.4C282.2 29.0627 282.737 29.6 283.4 29.6Z" stroke="#A3A3A3" stroke-width="0.5"/>
<path d="M284.1 30.2L283.8 39.4H282.9L282.7 30.2H284.1Z" stroke="#A3A3A3" stroke-width="0.5"/>
<path d="M281.9 31.4H284.8" stroke="#A3A3A3" stroke-width="0.5"/>
<path d="M286.7 29.6C287.363 29.6 287.9 29.0627 287.9 28.4C287.9 27.7373 287.363 27.2 286.7 27.2C286.037 27.2 285.5 27.7373 285.5 28.4C285.5 29.0627 286.037 29.6 286.7 29.6Z" stroke="#A3A3A3" stroke-width="0.5"/>
<path d="M287.4 30.2L287.1 39.4H286.2L286 30.2H287.4Z" stroke="#A3A3A3" stroke-width="0.5"/>
<path d="M285.2 31.4H288.1" stroke="#A3A3A3" stroke-width="0.5"/>
<path d="M290 29.6C290.663 29.6 291.2 29.0627 291.2 28.4C291.2 27.7373 290.663 27.2 290 27.2C289.337 27.2 288.8 27.7373 288.8 28.4C288.8 29.0627 289.337 29.6 290 29.6Z" stroke="#A3A3A3" stroke-width="0.5"/>
<path d="M290.7 30.2L290.4 39.4H289.5L289.2 30.2H290.7Z" stroke="#A3A3A3" stroke-width="0.5"/>
<path d="M288.5 31.4H291.4" stroke="#A3A3A3" stroke-width="0.5"/>
<path d="M326.7 87.6H315.6V103.5H326.7V87.6Z" stroke="#A32035" stroke-width="0.75"/>
<path d="M333.9 90V97.6H329V87.2L333.9 90Z" stroke="#A3A3A3" stroke-width="0.5"/>
<path d="M314.4 83.2H374.8" stroke="#A3A3A3"/>
<path d="M314.4 84.8H336.9" stroke="#A3A3A3" stroke-width="0.5"/>
<path d="M336.6 95.5H354.6" stroke="#A3A3A3" stroke-width="0.25"/>
<path d="M336.6 91.5H354.6" stroke="#A3A3A3" stroke-width="0.25"/>
<path d="M336.6 87.3H354.6" stroke="#A3A3A3" stroke-width="0.25"/>
<path d="M368.5 87.3H374.8" stroke="#A3A3A3" stroke-width="0.25"/>
<path d="M368.5 91.5H374.8" stroke="#A3A3A3" stroke-width="0.25"/>
<path d="M368.5 95.5H374.8" stroke="#A3A3A3" stroke-width="0.25"/>
<path d="M354.7 87.5H368.8" stroke="#A3A3A3" stroke-width="0.5"/>
<path d="M336.6 99.4H354.4" stroke="#A3A3A3" stroke-width="0.5"/>
<path d="M359 79.3H364" stroke="#A3A3A3" stroke-width="0.5"/>
<path d="M311.1 79.3H317.7" stroke="#A3A3A3" stroke-width="0.5"/>
<path d="M329.7 79.3H333.2" stroke="#A3A3A3" stroke-width="0.5"/>
<path d="M339.6 48.2H342" stroke="#A3A3A3" stroke-width="0.5"/>
<path d="M345.8 48.2H348.1" stroke="#A3A3A3" stroke-width="0.5"/>
<path d="M368.3 99.4H374.8" stroke="#A3A3A3" stroke-width="0.5"/>
<path d="M336.6 103.4V83.2" stroke="#A3A3A3"/>
<path d="M368.6 103.4V87.2" stroke="#A3A3A3" stroke-width="0.5"/>
<path d="M314.4 81.7H374.8" stroke="#A3A3A3" stroke-width="0.5"/>
<path d="M314.4 41.1H374.8" stroke="#A3A3A3" stroke-width="0.5"/>
<path d="M314.4 39.6H374.8" stroke="#A3A3A3"/>
<path d="M314.4 19.8H376.5" stroke="#A3A3A3"/>
<path d="M314.4 18.4H376.5" stroke="#A3A3A3" stroke-width="0.5"/>
<path d="M337.2 19.8H336.1V23.6H337.2V19.8Z" fill="#A3A3A3"/>
<path d="M328.8 35.5H328.1V37.6H328.8V35.5Z" fill="#A3A3A3"/>
<path d="M330.9 35.5H330.2V37.6H330.9V35.5Z" fill="#A3A3A3"/>
<path d="M332.9 35.5H332.2V37.6H332.9V35.5Z" fill="#A3A3A3"/>
<path d="M334.8 35.5H334.1V37.6H334.8V35.5Z" fill="#A3A3A3"/>
<path d="M339.8 19.8H338.7V23.6H339.8V19.8Z" fill="#A3A3A3"/>
<path d="M342.1 19.8H341V23.6H342.1V19.8Z" fill="#A3A3A3"/>
<path d="M344.4 19.8H343.3V23.6H344.4V19.8Z" fill="#A3A3A3"/>
<path d="M346.8 19.8H345.7V23.6H346.8V19.8Z" fill="#A3A3A3"/>
<path d="M349.1 19.8H348V23.6H349.1V19.8Z" fill="#A3A3A3"/>
<path d="M351.7 19.8H350.6V23.6H351.7V19.8Z" fill="#A3A3A3"/>
<path d="M375.1 19.8H374V23.6H375.1V19.8Z" fill="#A3A3A3"/>
<path d="M372.8 19.8H371.7V23.6H372.8V19.8Z" fill="#A3A3A3"/>
<path d="M365 26.5H358.1V34H365V26.5Z" stroke="#A32035" stroke-width="0.75"/>
<path d="M336.6 83.2V24.8" stroke="#A3A3A3"/>
<path d="M351.2 83.2V24.8" stroke="#A3A3A3"/>
<path d="M372 83.2V24.8" stroke="#A3A3A3" stroke-width="0.5"/>
<path d="M372 18.4V11.3" stroke="#A3A3A3" stroke-width="0.5"/>
<path d="M351.1 18.4V11.3" stroke="#A3A3A3"/>
<path d="M336.6 18.4V11.3" stroke="#A3A3A3"/>
<path d="M374.8 39.8V19.8" stroke="#A3A3A3" stroke-width="0.5"/>
<path d="M374.8 18.4V11.3" stroke="#A3A3A3" stroke-width="0.5"/>
<path d="M376.2 20.1V18.2" stroke="#A3A3A3" stroke-width="0.5"/>
<path d="M368.6 83.2V41.1" stroke="#A3A3A3" stroke-width="0.5"/>
<path d="M354.6 83.2V41.1" stroke="#A3A3A3" stroke-width="0.5"/>
<path d="M361.6 34V26.4" stroke="#A32035" stroke-width="0.5"/>
<path d="M365 43.9H358.1V55.8H365V43.9Z" stroke="#A32035" stroke-width="0.75"/>
<path d="M361.6 55.9V48.2" stroke="#A32035" stroke-width="0.5"/>
<path d="M358.1 48.3H365" stroke="#A3A3A3" stroke-width="0.5"/>
<path d="M333.5 65.8H329.4V77.7H333.5V65.8Z" stroke="#A32035" stroke-width="0.75"/>
<path d="M331.5 77.8V70.3" stroke="#A32035" stroke-width="0.5"/>
<path d="M329.3 70.2H333.6" stroke="#A32035" stroke-width="0.5"/>
<path d="M333.5 43.9H329.4V55.8H333.5V43.9Z" stroke="#A32035" stroke-width="0.75"/>
<path d="M331.5 55.9V48.3" stroke="#A32035" stroke-width="0.5"/>
<path d="M325.1 48.3H338.7" stroke="#A3A3A3" stroke-width="0.5"/>
<path d="M349.3 48.3H368.6" stroke="#A3A3A3" stroke-width="0.5"/>
<path d="M324.9 65.8H319.7V77.7H324.9V65.8Z" stroke="#A32035" stroke-width="0.75"/>
<path d="M322.3 77.8V70.3" stroke="#A32035" stroke-width="0.5"/>
<path d="M319.6 70.2H324.9" stroke="#A32035" stroke-width="0.5"/>
<path d="M324.9 43.9H319.7V55.8H324.9V43.9Z" stroke="#A32035" stroke-width="0.75"/>
<path d="M322.3 55.9V48.1" stroke="#A32035" stroke-width="0.5"/>
<path d="M319.6 48.3H324.9" stroke="#A32035" stroke-width="0.5"/>
<path d="M333.5 26.4H329.4V34.3H333.5V26.4Z" stroke="#A32035" stroke-width="0.75"/>
<path d="M331.5 34.5V29.4" stroke="#A32035" stroke-width="0.5"/>
<path d="M329.3 29.4H333.6" stroke="#A32035" stroke-width="0.5"/>
<path d="M324.9 26.4H319.7V34.3H324.9V26.4Z" stroke="#A32035" stroke-width="0.75"/>
<path d="M322.3 34.5V29.3" stroke="#A32035" stroke-width="0.5"/>
<path d="M319.6 29.4H324.9" stroke="#A32035" stroke-width="0.5"/>
<path d="M314.2 34.3H318.2V26.4H314.2" stroke="#A32035" stroke-width="0.75"/>
<path d="M314.4 34.5V26.4" stroke="#A32035" stroke-width="0.5"/>
<path d="M314.4 29.4H318.2" stroke="#A32035" stroke-width="0.5"/>
<path d="M314.2 77.7H318.2V65.8H314.2" stroke="#A32035" stroke-width="0.75"/>
<path d="M314.2 55.8H318.2V43.9H314.2" stroke="#A32035" stroke-width="0.75"/>
<path d="M314.4 70.2H318.2" stroke="#A32035" stroke-width="0.5"/>
<path d="M314.4 48.3H318.2" stroke="#A32035" stroke-width="0.5"/>
<path d="M365 65.8H358.1V77.7H365V65.8Z" stroke="#A32035" stroke-width="0.75"/>
<path d="M361.6 77.8V70.3" stroke="#A32035" stroke-width="0.5"/>
<path d="M358.1 70.2H365" stroke="#A32035" stroke-width="0.5"/>
<path d="M314.4 64H325V58.4H314.4" stroke="#A3A3A3" stroke-width="0.5"/>
<path d="M333.6 58.4H329.1V64H333.6V58.4Z" stroke="#A3A3A3" stroke-width="0.5"/>
<path d="M364.4 58.6H359.2V63.8H364.4V58.6Z" stroke="#A3A3A3" stroke-width="0.5"/>
<path d="M326.8 81.7V41.1" stroke="#A3A3A3" stroke-width="0.5"/>
<path d="M326.8 39.4V34.2" stroke="#A3A3A3" stroke-width="0.5"/>
<path d="M374.8 103.4V37.6" stroke="#A3A3A3" stroke-width="0.5"/>
<path d="M351.2 39.6L354.6 36.6L358.1 35.2H365L368.6 36.6L372 39.6" stroke="#A3A3A3" stroke-width="0.5"/>
<path d="M375.1 11.3H363.8V11.2C363.8 9.80001 362.7 8.70001 361.3 8.70001C359.9 8.70001 358.8 9.80001 358.8 11.2V11.3H336.6L333.8 8.79999H322.5" stroke="#A3A3A3"/>
<path d="M349.3 46.3H338.5V52.5H349.3V46.3Z" stroke="#A3A3A3" stroke-width="0.5"/>
<path d="M321.1 87.6V103.3" stroke="#A32035" stroke-width="0.5"/>
<path d="M360.3 87.5V103.3" stroke="#A32035" stroke-width="0.5"/>
<path d="M338.9 29.6C339.563 29.6 340.1 29.0627 340.1 28.4C340.1 27.7373 339.563 27.2 338.9 27.2C338.237 27.2 337.7 27.7373 337.7 28.4C337.7 29.0627 338.237 29.6 338.9 29.6Z" stroke="#A3A3A3" stroke-width="0.5"/>
<path d="M339.6 30.2L339.4 39.4H338.5L338.2 30.2H339.6Z" stroke="#A3A3A3" stroke-width="0.5"/>
<path d="M337.5 31.4H340.3" stroke="#A3A3A3" stroke-width="0.5"/>
<path d="M342.2 29.6C342.863 29.6 343.4 29.0627 343.4 28.4C343.4 27.7373 342.863 27.2 342.2 27.2C341.537 27.2 341 27.7373 341 28.4C341 29.0627 341.537 29.6 342.2 29.6Z" stroke="#A3A3A3" stroke-width="0.5"/>
<path d="M342.9 30.2L342.7 39.4H341.8L341.5 30.2H342.9Z" stroke="#A3A3A3" stroke-width="0.5"/>
<path d="M340.8 31.4H343.6" stroke="#A3A3A3" stroke-width="0.5"/>
<path d="M345.5 29.6C346.163 29.6 346.7 29.0627 346.7 28.4C346.7 27.7373 346.163 27.2 345.5 27.2C344.837 27.2 344.3 27.7373 344.3 28.4C344.3 29.0627 344.837 29.6 345.5 29.6Z" stroke="#A3A3A3" stroke-width="0.5"/>
<path d="M346.2 30.2L346 39.4H345.1L344.8 30.2H346.2Z" stroke="#A3A3A3" stroke-width="0.5"/>
<path d="M344.1 31.4H346.9" stroke="#A3A3A3" stroke-width="0.5"/>
<path d="M348.8 29.6C349.463 29.6 350 29.0627 350 28.4C350 27.7373 349.463 27.2 348.8 27.2C348.137 27.2 347.6 27.7373 347.6 28.4C347.6 29.0627 348.137 29.6 348.8 29.6Z" stroke="#A3A3A3" stroke-width="0.5"/>
<path d="M349.5 30.2L349.3 39.4H348.4L348.1 30.2H349.5Z" stroke="#A3A3A3" stroke-width="0.5"/>
<path d="M347.4 31.4H350.2" stroke="#A3A3A3" stroke-width="0.5"/>
<path d="M251.2 103.8H377.5" stroke="#A32035" stroke-width="2.7"/>
<path d="M321.5 4.89999C321.997 4.89999 322.4 4.49706 322.4 4C322.4 3.50294 321.997 3.10001 321.5 3.10001C321.003 3.10001 320.6 3.50294 320.6 4C320.6 4.49706 321.003 4.89999 321.5 4.89999Z" stroke="#A3A3A3" stroke-width="0.75"/>
<path d="M307.3 4.89999C307.797 4.89999 308.2 4.49706 308.2 4C308.2 3.50294 307.797 3.10001 307.3 3.10001C306.803 3.10001 306.4 3.50294 306.4 4C306.4 4.49706 306.803 4.89999 307.3 4.89999Z" stroke="#A3A3A3" stroke-width="0.75"/>
<path d="M323.6 11.3V8.79999H322.4V6.20001H320.4V8.79999H317.4C318.1 8.29999 318.6 7.50001 318.6 6.70001C318.6 6.00001 318.3 5.39999 317.8 4.89999C317.3 4.29999 316.6 3.90001 315.7 3.70001V1.79999L315.3 1H314.6H313.9L313.5 1.79999V3.70001C312.7 3.90001 312 4.29999 311.5 4.79999C310.9 5.29999 310.5 6.00001 310.5 6.70001C310.5 7.50001 310.9 8.19999 311.7 8.79999H308.6V6.20001H306.6V8.79999H305.4V11.3H314.6H323.6Z" stroke="#A3A3A3"/>
<path d="M274.1 87.6H263V103.5H274.1V87.6Z" stroke="#A32035" stroke-width="0.75"/>
<path d="M365.8 87.6H354.7V103.5H365.8V87.6Z" stroke="#A32035" stroke-width="0.75"/>
<path d="M314.4 34.2H336.6" stroke="#A3A3A3"/>
<path d="M271.1 48.3H263.5" stroke="#A32035" stroke-width="0.5"/>
<path d="M299.8 48.3H295" stroke="#A32035" stroke-width="0.5"/>
<path d="M314.5 34.2H292.3" stroke="#A3A3A3"/>
<path d="M357.7 48.3H365.4" stroke="#A32035" stroke-width="0.5"/>
<path d="M329 48.3H334" stroke="#A32035" stroke-width="0.5"/>
<path d="M313.3 87.6H302.2V103.5H313.3V87.6Z" stroke="#A32035" stroke-width="0.75"/>
<path d="M266.9 89.1H264.5V99.6H266.9V89.1Z" stroke="#A3A3A3" stroke-width="0.52"/>
<path d="M272.5 89.1H270.1V99.6H272.5V89.1Z" stroke="#A3A3A3" stroke-width="0.52"/>
<path d="M306.2 89.1H303.8V99.6H306.2V89.1Z" stroke="#A3A3A3" stroke-width="0.52"/>
<path d="M311.6 89.1H309.2V99.6H311.6V89.1Z" stroke="#A3A3A3" stroke-width="0.52"/>
<path d="M319.6 89.1H317.2V99.6H319.6V89.1Z" stroke="#A3A3A3" stroke-width="0.52"/>
<path d="M325 89.1H322.6V99.6H325V89.1Z" stroke="#A3A3A3" stroke-width="0.52"/>
<path d="M358.7 89.1H356.3V99.6H358.7V89.1Z" stroke="#A3A3A3" stroke-width="0.52"/>
<path d="M364.2 89.1H361.8V99.6H364.2V89.1Z" stroke="#A3A3A3" stroke-width="0.52"/>
<path d="M310.3 6.59998C310.3 8.19998 312.2 9.59998 314.4 9.59998C316.7 9.59998 318.5 8.29998 318.5 6.59998" stroke="#A3A3A3"/>
</svg>
