<svg width="127" height="106" viewBox="0 0 127 106" fill="none" xmlns="http://www.w3.org/2000/svg">
<path d="M63.3 24.8H123.7" stroke="#A3A3A3" stroke-width="0.5"/>
<path d="M63.3 26.2H123.7" stroke="#A3A3A3" stroke-width="0.25"/>
<path d="M63.3 55.9V48.1" stroke="#A32035" stroke-width="0.5"/>
<path d="M43.9 90V97.6H48.8V87.2L43.9 90Z" stroke="#A3A3A3" stroke-width="0.5"/>
<path d="M63.4 83.2H3" stroke="#A3A3A3"/>
<path d="M63.4 84.8H40.9" stroke="#A3A3A3" stroke-width="0.5"/>
<path d="M41.2 95.5H23.1" stroke="#A3A3A3" stroke-width="0.25"/>
<path d="M41.2 91.5H23.1" stroke="#A3A3A3" stroke-width="0.25"/>
<path d="M41.2 87.3H23.1" stroke="#A3A3A3" stroke-width="0.25"/>
<path d="M9.20001 87.3H3" stroke="#A3A3A3" stroke-width="0.25"/>
<path d="M9.20001 91.5H3" stroke="#A3A3A3" stroke-width="0.25"/>
<path d="M9.20001 95.5H3" stroke="#A3A3A3" stroke-width="0.25"/>
<path d="M23 87.5H9" stroke="#A3A3A3" stroke-width="0.5"/>
<path d="M41.2 99.4H23.4" stroke="#A3A3A3" stroke-width="0.5"/>
<path d="M18.7 79.3H13.8" stroke="#A3A3A3" stroke-width="0.5"/>
<path d="M48.1 79.3H44.5" stroke="#A3A3A3" stroke-width="0.5"/>
<path d="M38.1 48.2H35.7" stroke="#A3A3A3" stroke-width="0.5"/>
<path d="M32 48.2H29.7" stroke="#A3A3A3" stroke-width="0.5"/>
<path d="M9.5 99.5H3" stroke="#A3A3A3" stroke-width="0.5"/>
<path d="M41.2 103.4V83.2" stroke="#A3A3A3"/>
<path d="M9.20001 103.4V87.2" stroke="#A3A3A3" stroke-width="0.5"/>
<path d="M75.7 88.4V84.8" stroke="#A3A3A3" stroke-width="0.5"/>
<path d="M72.7 87.3V84.8" stroke="#A3A3A3" stroke-width="0.5"/>
<path d="M51 88.4V84.8" stroke="#A3A3A3" stroke-width="0.5"/>
<path d="M54 87.7V84.8" stroke="#A3A3A3" stroke-width="0.5"/>
<path d="M63.4 81.7H3" stroke="#A3A3A3" stroke-width="0.5"/>
<path d="M63.4 41.1H3" stroke="#A3A3A3" stroke-width="0.5"/>
<path d="M63.4 39.6H3" stroke="#A3A3A3"/>
<path d="M63.4 24.8H3" stroke="#A3A3A3" stroke-width="0.5"/>
<path d="M63.4 26.2H3" stroke="#A3A3A3" stroke-width="0.25"/>
<path d="M63.4001 19.8H1.30005" stroke="#A3A3A3"/>
<path d="M63.4001 18.4H1.30005" stroke="#A3A3A3" stroke-width="0.5"/>
<path d="M41.7 19.8H40.6V23.6H41.7V19.8Z" fill="#A3A3A3"/>
<path d="M53.3 35.5H52.6V37.6H53.3V35.5Z" fill="#A3A3A3"/>
<path d="M59.6 35.5H58.9V37.6H59.6V35.5Z" fill="#A3A3A3"/>
<path d="M65.8 35.5H65.1V37.6H65.8V35.5Z" fill="#A3A3A3"/>
<path d="M55.4 35.5H54.7V37.6H55.4V35.5Z" fill="#A3A3A3"/>
<path d="M61.7 35.5H61V37.6H61.7V35.5Z" fill="#A3A3A3"/>
<path d="M67.9 35.5H67.2V37.6H67.9V35.5Z" fill="#A3A3A3"/>
<path d="M70 35.5H69.3V37.6H70V35.5Z" fill="#A3A3A3"/>
<path d="M57.5 35.5H56.8V37.6H57.5V35.5Z" fill="#A3A3A3"/>
<path d="M63.7 35.5H63V37.6H63.7V35.5Z" fill="#A3A3A3"/>
<path d="M72.1 35.5H71.4V37.6H72.1V35.5Z" fill="#A3A3A3"/>
<path d="M74.2 35.5H73.5V37.6H74.2V35.5Z" fill="#A3A3A3"/>
<path d="M49.7 35.5H49V37.6H49.7V35.5Z" fill="#A3A3A3"/>
<path d="M47.6 35.5H46.9V37.6H47.6V35.5Z" fill="#A3A3A3"/>
<path d="M45.5 35.5H44.8V37.6H45.5V35.5Z" fill="#A3A3A3"/>
<path d="M43.6 35.5H42.9V37.6H43.6V35.5Z" fill="#A3A3A3"/>
<path d="M39.2 19.8H38.1V23.6H39.2V19.8Z" fill="#A3A3A3"/>
<path d="M36.8 19.8H35.7V23.6H36.8V19.8Z" fill="#A3A3A3"/>
<path d="M34.5 19.8H33.4V23.6H34.5V19.8Z" fill="#A3A3A3"/>
<path d="M32.1 19.8H31V23.6H32.1V19.8Z" fill="#A3A3A3"/>
<path d="M29.8 19.8H28.7V23.6H29.8V19.8Z" fill="#A3A3A3"/>
<path d="M27.2 19.8H26.1V23.6H27.2V19.8Z" fill="#A3A3A3"/>
<path d="M3.79993 19.8H2.69995V23.6H3.79993V19.8Z" fill="#A3A3A3"/>
<path d="M6.10001 19.8H5V23.6H6.10001V19.8Z" fill="#A3A3A3"/>
<path d="M19.7 26.5H12.8V34H19.7V26.5Z" stroke="#A32035" stroke-width="0.75"/>
<path d="M41.2 83.2V24.8" stroke="#A3A3A3"/>
<path d="M26.6 83.2V24.8" stroke="#A3A3A3"/>
<path d="M5.79999 83.2V24.8" stroke="#A3A3A3" stroke-width="0.5"/>
<path d="M5.79999 18.4V11.3" stroke="#A3A3A3" stroke-width="0.5"/>
<path d="M26.6 18.4V11.3" stroke="#A3A3A3"/>
<path d="M41.2 18.4V11.3" stroke="#A3A3A3"/>
<path d="M9.20001 83.2V41.1" stroke="#A3A3A3" stroke-width="0.5"/>
<path d="M23.1 83.2V41.1" stroke="#A3A3A3" stroke-width="0.5"/>
<path d="M16.2 34V26.4" stroke="#A32035" stroke-width="0.5"/>
<path d="M19.7 43.9H12.8V55.8H19.7V43.9Z" stroke="#A32035" stroke-width="0.75"/>
<path d="M16.2 55.9V48.1" stroke="#A32035" stroke-width="0.5"/>
<path d="M19.7 48.3H12.8" stroke="#A3A3A3" stroke-width="0.5"/>
<path d="M48.4 65.8H44.3V77.7H48.4V65.8Z" stroke="#A32035" stroke-width="0.75"/>
<path d="M46.3 77.8V70.1" stroke="#A32035" stroke-width="0.5"/>
<path d="M48.5 70.2H44.2" stroke="#A32035" stroke-width="0.5"/>
<path d="M48.4 43.9H44.3V55.8H48.4V43.9Z" stroke="#A32035" stroke-width="0.75"/>
<path d="M46.3 55.9V48.3" stroke="#A32035" stroke-width="0.5"/>
<path d="M52.7 48.3H39.1" stroke="#A3A3A3" stroke-width="0.5"/>
<path d="M28.5 48.3H9.20001" stroke="#A3A3A3" stroke-width="0.5"/>
<path d="M58.1 65.8H52.9V77.7H58.1V65.8Z" stroke="#A32035" stroke-width="0.75"/>
<path d="M55.5 77.8V70.3" stroke="#A32035" stroke-width="0.5"/>
<path d="M58.1 70.2H52.9" stroke="#A32035" stroke-width="0.5"/>
<path d="M58.1 43.9H52.9V55.8H58.1V43.9Z" stroke="#A32035" stroke-width="0.75"/>
<path d="M55.5 55.9V48.1" stroke="#A32035" stroke-width="0.5"/>
<path d="M58.1 48.3H52.9" stroke="#A32035" stroke-width="0.5"/>
<path d="M48.4 26.4H44.3V34.3H48.4V26.4Z" stroke="#A32035" stroke-width="0.75"/>
<path d="M46.3 34.5V29.3" stroke="#A32035" stroke-width="0.5"/>
<path d="M48.5 29.4H44.2" stroke="#A32035" stroke-width="0.5"/>
<path d="M58.1 26.4H52.9V34.3H58.1V26.4Z" stroke="#A32035" stroke-width="0.75"/>
<path d="M55.5 34.5V29.3" stroke="#A32035" stroke-width="0.5"/>
<path d="M58.1 29.4H52.9" stroke="#A32035" stroke-width="0.5"/>
<path d="M63.6 34.3H59.6V26.4H63.6" stroke="#A32035" stroke-width="0.75"/>
<path d="M63.4 29.4H59.6" stroke="#A32035" stroke-width="0.5"/>
<path d="M63.6 77.7H59.6V65.8H63.6" stroke="#A32035" stroke-width="0.75"/>
<path d="M63.6 55.8H59.6V43.9H63.6" stroke="#A32035" stroke-width="0.75"/>
<path d="M63.4 77.8V70.3" stroke="#A32035" stroke-width="0.5"/>
<path d="M63.4 55.9V48.1" stroke="#A32035" stroke-width="0.5"/>
<path d="M63.4 70.2H59.6" stroke="#A32035" stroke-width="0.5"/>
<path d="M63.4 48.3H59.6" stroke="#A32035" stroke-width="0.5"/>
<path d="M19.7 65.8H12.8V77.7H19.7V65.8Z" stroke="#A32035" stroke-width="0.75"/>
<path d="M16.2 77.8V70" stroke="#A32035" stroke-width="0.5"/>
<path d="M19.7 70.2H12.8" stroke="#A32035" stroke-width="0.5"/>
<path d="M63.4 64H52.8V58.4H63.4" stroke="#A3A3A3" stroke-width="0.5"/>
<path d="M48.8 58.4H44.3V64H48.8V58.4Z" stroke="#A3A3A3" stroke-width="0.5"/>
<path d="M18.6 58.6H13.4V63.8H18.6V58.6Z" stroke="#A3A3A3" stroke-width="0.5"/>
<path d="M51 81.7V41.1" stroke="#A3A3A3" stroke-width="0.5"/>
<path d="M51 39.4V34.2" stroke="#A3A3A3" stroke-width="0.5"/>
<path d="M26.6 39.6L23.1 36.6L19.7 35.2H12.8L9.20001 36.6L5.79999 39.6" stroke="#A3A3A3" stroke-width="0.5"/>
<path d="M2.69995 11.3H13.9999V11.2C13.9999 9.80001 15.0999 8.70001 16.4999 8.70001C17.8999 8.70001 18.9999 9.80001 18.9999 11.2V11.3H41.2L43.9999 8.79999H55.2999" stroke="#A3A3A3"/>
<path d="M39.3 46.3H28.5V52.5H39.3V46.3Z" stroke="#A3A3A3" stroke-width="0.5"/>
<path d="M17.5 87.2V103.3" stroke="#A32035" stroke-width="0.5"/>
<path d="M56.7 87.6V103.3" stroke="#A32035" stroke-width="0.5"/>
<path d="M29 29.6C29.6627 29.6 30.2 29.0627 30.2 28.4C30.2 27.7373 29.6627 27.2 29 27.2C28.3373 27.2 27.8 27.7373 27.8 28.4C27.8 29.0627 28.3373 29.6 29 29.6Z" stroke="#A3A3A3" stroke-width="0.5"/>
<path d="M29.7 30.2L29.4 39.4H28.5L28.3 30.2H29.7Z" stroke="#A3A3A3" stroke-width="0.5"/>
<path d="M27.6 31.4H30.4" stroke="#A3A3A3" stroke-width="0.5"/>
<path d="M32.3 29.6C32.9627 29.6 33.5 29.0627 33.5 28.4C33.5 27.7373 32.9627 27.2 32.3 27.2C31.6372 27.2 31.1 27.7373 31.1 28.4C31.1 29.0627 31.6372 29.6 32.3 29.6Z" stroke="#A3A3A3" stroke-width="0.5"/>
<path d="M33 30.2L32.7 39.4H31.8L31.6 30.2H33Z" stroke="#A3A3A3" stroke-width="0.5"/>
<path d="M30.8 31.4H33.7" stroke="#A3A3A3" stroke-width="0.5"/>
<path d="M35.6 29.6C36.2628 29.6 36.8 29.0627 36.8 28.4C36.8 27.7373 36.2628 27.2 35.6 27.2C34.9373 27.2 34.4 27.7373 34.4 28.4C34.4 29.0627 34.9373 29.6 35.6 29.6Z" stroke="#A3A3A3" stroke-width="0.5"/>
<path d="M36.3 30.2L36 39.4H35.1L34.9 30.2H36.3Z" stroke="#A3A3A3" stroke-width="0.5"/>
<path d="M34.1 31.4H37" stroke="#A3A3A3" stroke-width="0.5"/>
<path d="M38.9 29.6C39.5627 29.6 40.1 29.0627 40.1 28.4C40.1 27.7373 39.5627 27.2 38.9 27.2C38.2373 27.2 37.7 27.7373 37.7 28.4C37.7 29.0627 38.2373 29.6 38.9 29.6Z" stroke="#A3A3A3" stroke-width="0.5"/>
<path d="M39.6 30.2L39.3 39.4H38.4L38.1 30.2H39.6Z" stroke="#A3A3A3" stroke-width="0.5"/>
<path d="M37.4 31.4H40.3" stroke="#A3A3A3" stroke-width="0.5"/>
<path d="M75.6 87.6H64.5V103.5H75.6V87.6Z" stroke="#A32035" stroke-width="0.75"/>
<path d="M82.8 90V97.6H77.9V87.2L82.8 90Z" stroke="#A3A3A3" stroke-width="0.5"/>
<path d="M63.3 83.2H123.7" stroke="#A3A3A3"/>
<path d="M63.3 84.8H85.8" stroke="#A3A3A3" stroke-width="0.5"/>
<path d="M85.5 95.5H103.5" stroke="#A3A3A3" stroke-width="0.25"/>
<path d="M85.5 91.5H103.5" stroke="#A3A3A3" stroke-width="0.25"/>
<path d="M85.5 87.3H103.5" stroke="#A3A3A3" stroke-width="0.25"/>
<path d="M117.4 87.3H123.7" stroke="#A3A3A3" stroke-width="0.25"/>
<path d="M117.4 91.5H123.7" stroke="#A3A3A3" stroke-width="0.25"/>
<path d="M117.4 95.5H123.7" stroke="#A3A3A3" stroke-width="0.25"/>
<path d="M103.6 87.5H117.7" stroke="#A3A3A3" stroke-width="0.5"/>
<path d="M85.5 99.4H103.3" stroke="#A3A3A3" stroke-width="0.5"/>
<path d="M107.9 79.3H112.9" stroke="#A3A3A3" stroke-width="0.5"/>
<path d="M60 79.3H66.6" stroke="#A3A3A3" stroke-width="0.5"/>
<path d="M78.6 79.3H82.1" stroke="#A3A3A3" stroke-width="0.5"/>
<path d="M88.5 48.2H90.9" stroke="#A3A3A3" stroke-width="0.5"/>
<path d="M94.7 48.2H97" stroke="#A3A3A3" stroke-width="0.5"/>
<path d="M117.2 99.4H123.7" stroke="#A3A3A3" stroke-width="0.5"/>
<path d="M85.5 103.4V83.2" stroke="#A3A3A3"/>
<path d="M117.5 103.4V87.2" stroke="#A3A3A3" stroke-width="0.5"/>
<path d="M63.3 81.7H123.7" stroke="#A3A3A3" stroke-width="0.5"/>
<path d="M63.3 41.1H123.7" stroke="#A3A3A3" stroke-width="0.5"/>
<path d="M63.3 39.6H123.7" stroke="#A3A3A3"/>
<path d="M63.3 19.8H125.4" stroke="#A3A3A3"/>
<path d="M63.3 18.4H125.4" stroke="#A3A3A3" stroke-width="0.5"/>
<path d="M86.1 19.8H85V23.6H86.1V19.8Z" fill="#A3A3A3"/>
<path d="M77.7 35.5H77V37.6H77.7V35.5Z" fill="#A3A3A3"/>
<path d="M79.8 35.5H79.1V37.6H79.8V35.5Z" fill="#A3A3A3"/>
<path d="M81.8 35.5H81.1V37.6H81.8V35.5Z" fill="#A3A3A3"/>
<path d="M83.7 35.5H83V37.6H83.7V35.5Z" fill="#A3A3A3"/>
<path d="M88.7 19.8H87.6V23.6H88.7V19.8Z" fill="#A3A3A3"/>
<path d="M91 19.8H89.9V23.6H91V19.8Z" fill="#A3A3A3"/>
<path d="M93.3 19.8H92.2V23.6H93.3V19.8Z" fill="#A3A3A3"/>
<path d="M95.7 19.8H94.6V23.6H95.7V19.8Z" fill="#A3A3A3"/>
<path d="M98 19.8H96.9V23.6H98V19.8Z" fill="#A3A3A3"/>
<path d="M100.6 19.8H99.5V23.6H100.6V19.8Z" fill="#A3A3A3"/>
<path d="M124 19.8H122.9V23.6H124V19.8Z" fill="#A3A3A3"/>
<path d="M121.7 19.8H120.6V23.6H121.7V19.8Z" fill="#A3A3A3"/>
<path d="M113.9 26.5H107V34H113.9V26.5Z" stroke="#A32035" stroke-width="0.75"/>
<path d="M85.5 83.2V24.8" stroke="#A3A3A3"/>
<path d="M100.1 83.2V24.8" stroke="#A3A3A3"/>
<path d="M120.9 83.2V24.8" stroke="#A3A3A3" stroke-width="0.5"/>
<path d="M120.9 18.4V11.3" stroke="#A3A3A3" stroke-width="0.5"/>
<path d="M100 18.4V11.3" stroke="#A3A3A3"/>
<path d="M85.5 18.4V11.3" stroke="#A3A3A3"/>
<path d="M123.7 39.8V19.8" stroke="#A3A3A3" stroke-width="0.5"/>
<path d="M123.7 18.4V11.3" stroke="#A3A3A3" stroke-width="0.5"/>
<path d="M125.1 20.1V18.2" stroke="#A3A3A3" stroke-width="0.5"/>
<path d="M117.5 83.2V41.1" stroke="#A3A3A3" stroke-width="0.5"/>
<path d="M103.5 83.2V41.1" stroke="#A3A3A3" stroke-width="0.5"/>
<path d="M110.5 34V26.4" stroke="#A32035" stroke-width="0.5"/>
<path d="M113.9 43.9H107V55.8H113.9V43.9Z" stroke="#A32035" stroke-width="0.75"/>
<path d="M110.5 55.9V48.2" stroke="#A32035" stroke-width="0.5"/>
<path d="M107 48.3H113.9" stroke="#A3A3A3" stroke-width="0.5"/>
<path d="M82.4 65.8H78.3V77.7H82.4V65.8Z" stroke="#A32035" stroke-width="0.75"/>
<path d="M80.4 77.8V70.3" stroke="#A32035" stroke-width="0.5"/>
<path d="M78.2 70.2H82.5" stroke="#A32035" stroke-width="0.5"/>
<path d="M82.4 43.9H78.3V55.8H82.4V43.9Z" stroke="#A32035" stroke-width="0.75"/>
<path d="M80.4 55.9V48.3" stroke="#A32035" stroke-width="0.5"/>
<path d="M74 48.3H87.6" stroke="#A3A3A3" stroke-width="0.5"/>
<path d="M98.2 48.3H117.5" stroke="#A3A3A3" stroke-width="0.5"/>
<path d="M73.8 65.8H68.6V77.7H73.8V65.8Z" stroke="#A32035" stroke-width="0.75"/>
<path d="M71.2 77.8V70.3" stroke="#A32035" stroke-width="0.5"/>
<path d="M68.5 70.2H73.8" stroke="#A32035" stroke-width="0.5"/>
<path d="M73.8 43.9H68.6V55.8H73.8V43.9Z" stroke="#A32035" stroke-width="0.75"/>
<path d="M71.2 55.9V48.1" stroke="#A32035" stroke-width="0.5"/>
<path d="M68.5 48.3H73.8" stroke="#A32035" stroke-width="0.5"/>
<path d="M82.4 26.4H78.3V34.3H82.4V26.4Z" stroke="#A32035" stroke-width="0.75"/>
<path d="M80.4 34.5V29.4" stroke="#A32035" stroke-width="0.5"/>
<path d="M78.2 29.4H82.5" stroke="#A32035" stroke-width="0.5"/>
<path d="M73.8 26.4H68.6V34.3H73.8V26.4Z" stroke="#A32035" stroke-width="0.75"/>
<path d="M71.2 34.5V29.3" stroke="#A32035" stroke-width="0.5"/>
<path d="M68.5 29.4H73.8" stroke="#A32035" stroke-width="0.5"/>
<path d="M63.1 34.3H67.1V26.4H63.1" stroke="#A32035" stroke-width="0.75"/>
<path d="M63.3 34.5V26.4" stroke="#A32035" stroke-width="0.5"/>
<path d="M63.3 29.4H67.1" stroke="#A32035" stroke-width="0.5"/>
<path d="M63.1 77.7H67.1V65.8H63.1" stroke="#A32035" stroke-width="0.75"/>
<path d="M63.1 55.8H67.1V43.9H63.1" stroke="#A32035" stroke-width="0.75"/>
<path d="M63.3 70.2H67.1" stroke="#A32035" stroke-width="0.5"/>
<path d="M63.3 48.3H67.1" stroke="#A32035" stroke-width="0.5"/>
<path d="M113.9 65.8H107V77.7H113.9V65.8Z" stroke="#A32035" stroke-width="0.75"/>
<path d="M110.5 77.8V70.3" stroke="#A32035" stroke-width="0.5"/>
<path d="M107 70.2H113.9" stroke="#A32035" stroke-width="0.5"/>
<path d="M63.3 64H73.9V58.4H63.3" stroke="#A3A3A3" stroke-width="0.5"/>
<path d="M82.5 58.4H78V64H82.5V58.4Z" stroke="#A3A3A3" stroke-width="0.5"/>
<path d="M113.3 58.6H108.1V63.8H113.3V58.6Z" stroke="#A3A3A3" stroke-width="0.5"/>
<path d="M75.7 81.7V41.1" stroke="#A3A3A3" stroke-width="0.5"/>
<path d="M75.7 39.4V34.2" stroke="#A3A3A3" stroke-width="0.5"/>
<path d="M123.7 103.4V37.6" stroke="#A3A3A3" stroke-width="0.5"/>
<path d="M100.1 39.6L103.5 36.6L107 35.2H113.9L117.5 36.6L120.9 39.6" stroke="#A3A3A3" stroke-width="0.5"/>
<path d="M124 11.3H112.7V11.2C112.7 9.80001 111.6 8.70001 110.2 8.70001C108.8 8.70001 107.7 9.80001 107.7 11.2V11.3H85.5L82.7 8.79999H71.4" stroke="#A3A3A3"/>
<path d="M98.2 46.3H87.4V52.5H98.2V46.3Z" stroke="#A3A3A3" stroke-width="0.5"/>
<path d="M70 87.6V103.3" stroke="#A32035" stroke-width="0.5"/>
<path d="M109.2 87.5V103.3" stroke="#A32035" stroke-width="0.5"/>
<path d="M87.8 29.6C88.4627 29.6 89 29.0627 89 28.4C89 27.7373 88.4627 27.2 87.8 27.2C87.1372 27.2 86.6 27.7373 86.6 28.4C86.6 29.0627 87.1372 29.6 87.8 29.6Z" stroke="#A3A3A3" stroke-width="0.5"/>
<path d="M88.5 30.2L88.3 39.4H87.4L87.1 30.2H88.5Z" stroke="#A3A3A3" stroke-width="0.5"/>
<path d="M86.4 31.4H89.2" stroke="#A3A3A3" stroke-width="0.5"/>
<path d="M91.1 29.6C91.7628 29.6 92.3 29.0627 92.3 28.4C92.3 27.7373 91.7628 27.2 91.1 27.2C90.4373 27.2 89.9 27.7373 89.9 28.4C89.9 29.0627 90.4373 29.6 91.1 29.6Z" stroke="#A3A3A3" stroke-width="0.5"/>
<path d="M91.8 30.2L91.6 39.4H90.7L90.4 30.2H91.8Z" stroke="#A3A3A3" stroke-width="0.5"/>
<path d="M89.7 31.4H92.5" stroke="#A3A3A3" stroke-width="0.5"/>
<path d="M94.4 29.6C95.0627 29.6 95.6 29.0627 95.6 28.4C95.6 27.7373 95.0627 27.2 94.4 27.2C93.7373 27.2 93.2 27.7373 93.2 28.4C93.2 29.0627 93.7373 29.6 94.4 29.6Z" stroke="#A3A3A3" stroke-width="0.5"/>
<path d="M95.1 30.2L94.9 39.4H94L93.7 30.2H95.1Z" stroke="#A3A3A3" stroke-width="0.5"/>
<path d="M93 31.4H95.8" stroke="#A3A3A3" stroke-width="0.5"/>
<path d="M97.7 29.6C98.3628 29.6 98.9 29.0627 98.9 28.4C98.9 27.7373 98.3628 27.2 97.7 27.2C97.0373 27.2 96.5 27.7373 96.5 28.4C96.5 29.0627 97.0373 29.6 97.7 29.6Z" stroke="#A3A3A3" stroke-width="0.5"/>
<path d="M98.4 30.2L98.2 39.4H97.3L97 30.2H98.4Z" stroke="#A3A3A3" stroke-width="0.5"/>
<path d="M96.3 31.4H99.1" stroke="#A3A3A3" stroke-width="0.5"/>
<path d="M0.0999756 103.8H126.4" stroke="#A32035" stroke-width="2.7"/>
<path d="M70.4 4.89996C70.8971 4.89996 71.3 4.49703 71.3 3.99997C71.3 3.50291 70.8971 3.09998 70.4 3.09998C69.9029 3.09998 69.5 3.50291 69.5 3.99997C69.5 4.49703 69.9029 4.89996 70.4 4.89996Z" stroke="#A3A3A3" stroke-width="0.75"/>
<path d="M56.2 4.89996C56.6971 4.89996 57.1 4.49703 57.1 3.99997C57.1 3.50291 56.6971 3.09998 56.2 3.09998C55.703 3.09998 55.3 3.50291 55.3 3.99997C55.3 4.49703 55.703 4.89996 56.2 4.89996Z" stroke="#A3A3A3" stroke-width="0.75"/>
<path d="M72.5 11.3V8.79999H71.3V6.20001H69.3V8.79999H66.3C67 8.29999 67.5 7.50001 67.5 6.70001C67.5 6.00001 67.2 5.39999 66.7 4.89999C66.2 4.29999 65.5 3.90001 64.6 3.70001V1.79999L64.2 1H63.5H62.8L62.4 1.79999V3.70001C61.6 3.90001 60.9 4.29999 60.4 4.79999C59.8 5.29999 59.4 6.00001 59.4 6.70001C59.4 7.50001 59.8 8.19999 60.6 8.79999H57.5V6.20001H55.5V8.79999H54.3V11.3H63.5H72.5Z" stroke="#A3A3A3"/>
<path d="M23 87.6H11.9V103.5H23V87.6Z" stroke="#A32035" stroke-width="0.75"/>
<path d="M114.7 87.6H103.6V103.5H114.7V87.6Z" stroke="#A32035" stroke-width="0.75"/>
<path d="M63.3 34.2H85.5" stroke="#A3A3A3"/>
<path d="M20 48.3H12.4" stroke="#A32035" stroke-width="0.5"/>
<path d="M48.7 48.3H43.9" stroke="#A32035" stroke-width="0.5"/>
<path d="M63.4 34.2H41.2" stroke="#A3A3A3"/>
<path d="M106.6 48.3H114.3" stroke="#A32035" stroke-width="0.5"/>
<path d="M77.9 48.3H82.9" stroke="#A32035" stroke-width="0.5"/>
<path d="M62.2 87.6H51.1V103.5H62.2V87.6Z" stroke="#A32035" stroke-width="0.75"/>
<path d="M15.8 89.1H13.4V99.6H15.8V89.1Z" stroke="#A3A3A3" stroke-width="0.52"/>
<path d="M21.4 89.1H19V99.6H21.4V89.1Z" stroke="#A3A3A3" stroke-width="0.52"/>
<path d="M55.1 89.1H52.7V99.6H55.1V89.1Z" stroke="#A3A3A3" stroke-width="0.52"/>
<path d="M60.5 89.1H58.1V99.6H60.5V89.1Z" stroke="#A3A3A3" stroke-width="0.52"/>
<path d="M68.5 89.1H66.1V99.6H68.5V89.1Z" stroke="#A3A3A3" stroke-width="0.52"/>
<path d="M73.9 89.1H71.5V99.6H73.9V89.1Z" stroke="#A3A3A3" stroke-width="0.52"/>
<path d="M107.6 89.1H105.2V99.6H107.6V89.1Z" stroke="#A3A3A3" stroke-width="0.52"/>
<path d="M113.1 89.1H110.7V99.6H113.1V89.1Z" stroke="#A3A3A3" stroke-width="0.52"/>
<path d="M59.2 6.59998C59.2 8.19998 61.1 9.59998 63.3 9.59998C65.6 9.59998 67.4 8.29998 67.4 6.59998" stroke="#A3A3A3"/>
</svg>
