<svg width="378" height="106" viewBox="0 0 378 106" fill="none" xmlns="http://www.w3.org/2000/svg">
<path d="M121.6 11H0V105.2H121.6V11Z" fill="#A32035"/>
<path d="M59.8002 57.6C74.6002 79.8 64.8002 99.3 61.1002 105.2H62.0002C65.9002 98.7 75.2002 79.3 60.5002 57.2C46.3002 35.8 54.9002 17.4 58.8002 11H57.9002C53.7002 17.9 45.6002 36.2 59.8002 57.6ZM48.0002 57.6C62.8002 79.8 53.0002 99.3 49.3002 105.2H50.2002C54.1002 98.7 63.4002 79.3 48.7002 57.2C34.5002 35.8 43.1002 17.4 47.0002 11H46.1002C42.0002 17.9 33.9002 36.2 48.0002 57.6ZM36.3002 57.6C51.1002 79.8 41.3002 99.3 37.6002 105.2H38.5002C42.4002 98.7 51.7002 79.3 37.0002 57.2C22.8002 35.8 31.4002 17.4 35.3002 11H34.4002C30.2002 17.9 22.1002 36.2 36.3002 57.6ZM24.5002 57.6C39.3002 79.8 29.5002 99.3 25.8002 105.2H26.7002C30.6002 98.7 39.9002 79.3 25.2002 57.2C11.0002 35.8 19.6002 17.4 23.5002 11H22.6002C18.4002 17.9 10.3002 36.2 24.5002 57.6ZM10.8002 11C6.7002 17.9 -1.3998 36.3 12.7002 57.6C27.5002 79.8 17.7002 99.3 14.0002 105.2H14.9002C18.8002 98.7 28.1002 79.3 13.4002 57.2C-0.799797 35.8 7.8002 17.4 11.7002 11H10.8002Z" fill="#BA5868"/>
<path d="M64.5002 28.4998L61.9002 23.7998H58.8002L63.1002 30.6998V35.5998H65.9002V30.6998L70.2002 23.7998H67.1002L64.5002 28.4998ZM49.5002 27.1998L54.0002 35.6998H57.2002V23.8998H54.5002V31.5998L50.3002 23.8998H46.7002V35.6998H49.4002V27.1998H49.5002ZM45.2002 26.0998V23.7998H35.2002V26.0998H38.8002V35.5998H41.6002V26.0998H45.2002ZM32.4002 21.4998L30.9002 19.7998L28.1002 22.2998L29.0002 23.2998L32.4002 21.4998ZM30.1002 26.5998L31.6002 31.1998H28.6002L30.1002 26.5998ZM33.0002 35.6998H35.9002L31.7002 23.8998H28.6002L24.4002 35.6998H27.3002L28.0002 33.4998H32.3002L33.0002 35.6998ZM25.0002 26.0998V23.7998H15.0002V26.0998H18.6002V35.5998H21.4002V26.0998H25.0002ZM8.90019 23.2998H10.2002L12.9002 20.7998L12.1002 19.7998L9.70019 21.2998L7.30019 19.7998L6.40019 20.7998L8.90019 23.2998ZM9.20019 33.5998C8.10019 33.5998 6.90019 33.1998 6.00019 32.6998L5.10019 34.3998C5.70019 34.9998 7.20019 35.9998 9.70019 35.9998C11.9002 35.9998 14.2002 34.8998 14.2002 32.3998C14.2002 28.3998 8.30019 28.7998 8.30019 27.1998C8.30019 26.6998 8.80019 26.0998 10.0002 26.0998C10.9002 26.0998 12.1002 26.3998 12.9002 26.8998L13.5002 24.7998C12.9002 24.2998 11.5002 23.6998 9.80019 23.6998C6.90019 23.6998 5.20019 25.1998 5.20019 27.2998C5.20019 31.3998 11.1002 30.6998 11.1002 32.4998C11.2002 33.2998 10.3002 33.5998 9.20019 33.5998Z" fill="white"/>
<path d="M91.9002 40.4002L90.4002 38.7002L87.6002 41.2002L88.5002 42.2002L91.9002 40.4002ZM89.2002 47.5002L86.6002 42.8002H83.5002L87.8002 49.7002V54.6002H90.6002V49.7002L94.9002 42.8002H91.8002L89.2002 47.5002ZM74.2002 46.1002L78.7002 54.6002H81.9002V42.8002H79.2002V50.5002L75.0002 42.8002H71.4002V54.6002H74.1002V46.1002H74.2002ZM66.2002 46.8002C66.2002 48.1002 65.3002 48.5002 63.9002 48.5002H62.5002V45.0002H63.9002C65.4002 45.0002 66.2002 45.4002 66.2002 46.8002ZM69.1002 46.7002C69.1002 44.0002 67.2002 42.8002 65.1002 42.8002H59.9002V54.6002H62.7002V50.7002H63.9002L66.8002 54.6002H69.9002L66.7002 50.3002C68.0002 49.8002 69.1002 48.6002 69.1002 46.7002ZM45.6002 48.7002C45.6002 51.5002 47.2002 54.8002 51.4002 54.8002C56.0002 54.8002 57.7002 51.8002 57.7002 48.6002C57.7002 45.7002 56.1002 42.5002 51.9002 42.5002C47.4002 42.5002 45.6002 45.6002 45.6002 48.7002ZM48.5002 48.4002C48.5002 46.6002 49.6002 44.9002 51.5002 44.9002C54.1002 44.9002 54.9002 46.8002 54.9002 49.0002C54.9002 50.8002 53.8002 52.5002 51.9002 52.5002C49.3002 52.5002 48.5002 50.5002 48.5002 48.4002ZM33.9002 42.8002H29.5002V54.6002H32.2002V44.9002L35.3002 54.6002H37.8002L40.9002 45.0002V54.6002H43.5002V42.8002H39.1002L36.5002 50.9002L33.9002 42.8002ZM15.3002 48.7002C15.3002 51.5002 16.9002 54.8002 21.1002 54.8002C25.7002 54.8002 27.4002 51.8002 27.4002 48.6002C27.4002 45.7002 25.8002 42.5002 21.6002 42.5002C17.0002 42.5002 15.3002 45.6002 15.3002 48.7002ZM18.1002 48.4002C18.1002 46.6002 19.2002 44.9002 21.1002 44.9002C23.7002 44.9002 24.5002 46.8002 24.5002 49.0002C24.5002 50.8002 23.4002 52.5002 21.5002 52.5002C19.0002 52.5002 18.1002 50.5002 18.1002 48.4002ZM7.6002 54.6002V49.8002H8.6002L12.0002 54.6002H15.1002L10.7002 48.4002L14.6002 42.8002H11.5002L8.3002 47.5002H7.6002V42.8002H4.90021V54.6002H7.6002Z" fill="white"/>
<path d="M102.2 65.5998C102.2 66.8998 101.3 67.2998 99.9002 67.2998H98.6002V63.7998H100C101.3 63.8998 102.2 64.2998 102.2 65.5998ZM105 65.4998C105 62.7998 103.1 61.5998 100.9 61.5998H95.7002V73.3998H98.5002V69.4998H99.7002L102.6 73.3998H105.7L102.5 69.0998C104 68.5998 105 67.4998 105 65.4998ZM93.2002 63.8998V61.5998H85.4002V73.3998H93.6002V71.0998H88.2002V68.4998H92.1002V66.3998H88.2002V63.8998H93.2002ZM83.9002 63.8998V61.5998H73.9002V63.8998H77.5002V73.3998H80.3002V63.8998H83.9002ZM68.0002 71.2998C66.9002 71.2998 65.7002 70.8998 64.8002 70.3998L63.9002 72.0998C64.5002 72.6998 66.0002 73.6998 68.5002 73.6998C70.7002 73.6998 73.0002 72.5998 73.0002 70.0998C73.0002 66.0998 67.1002 66.4998 67.1002 64.8998C67.1002 64.3998 67.6002 63.7998 68.8002 63.7998C69.7002 63.7998 70.9002 64.0998 71.7002 64.5998L72.3002 62.4998C71.7002 61.9998 70.3002 61.3998 68.6002 61.3998C65.7002 61.3998 64.0002 62.8998 64.0002 64.9998C64.0002 69.0998 69.9002 68.3998 69.9002 70.1998C70.1002 70.9998 69.1002 71.2998 68.0002 71.2998ZM62.1002 63.8998V61.5998H54.3002V73.3998H62.5002V71.0998H57.1002V68.4998H61.0002V66.3998H57.1002V63.8998H62.1002ZM48.8002 73.3998H51.6002V61.5998H48.8002V66.2998H44.0002V61.5998H41.2002V73.3998H44.0002V68.5998H48.8002V73.3998ZM38.6002 70.4998C38.0002 70.8998 37.0002 71.2998 36.1002 71.2998C33.2002 71.2998 32.1002 69.4998 32.1002 67.2998C32.1002 65.0998 33.6002 63.7998 35.6002 63.7998C36.6002 63.7998 37.5002 64.0998 38.5002 64.5998L39.1002 62.3998C38.5002 61.8998 37.2002 61.2998 35.4002 61.2998C31.1002 61.2998 29.2002 64.2998 29.2002 67.5998C29.2002 70.2998 30.8002 73.6998 35.2002 73.6998C37.8002 73.6998 39.3002 72.0998 39.4002 71.9998L38.6002 70.4998ZM24.8002 65.5998C24.8002 66.8998 23.9002 67.2998 22.5002 67.2998H21.1002V63.7998H22.5002C24.0002 63.8998 24.8002 64.2998 24.8002 65.5998ZM27.7002 65.4998C27.7002 62.7998 25.8002 61.5998 23.7002 61.5998H18.5002V73.3998H21.3002V69.4998H22.5002L25.4002 73.3998H28.6002L25.4002 69.0998C26.6002 68.5998 27.7002 67.4998 27.7002 65.4998ZM4.2002 67.5998C4.2002 70.3998 5.8002 73.6998 10.0002 73.6998C14.6002 73.6998 16.3002 70.6998 16.3002 67.4998C16.3002 64.5998 14.7002 61.3998 10.5002 61.3998C6.0002 61.2998 4.2002 64.4998 4.2002 67.5998ZM7.1002 67.1998C7.1002 65.3998 8.2002 63.6998 10.1002 63.6998C12.7002 63.6998 13.5002 65.5998 13.5002 67.7998C13.5002 69.5998 12.4002 71.2998 10.5002 71.2998C7.9002 71.2998 7.1002 69.3998 7.1002 67.1998Z" fill="white"/>
<path d="M53.6001 83.2999L55.1001 87.8999H52.1001L53.6001 83.2999ZM56.5 92.2999H59.4001L55.2001 80.4999H52.1001L47.9001 92.2999H50.8L51.5 90.0999H55.8L56.5 92.2999ZM38.5 83.7999L43 92.2999H46.2001V80.4999H43.5V88.1999L39.3 80.4999H35.7001V92.2999H38.4001V83.7999H38.5ZM33 80.4999H30.2001V92.2999H33V80.4999ZM23.7001 80.4999H20.9001V92.2999H28.7001V89.9999H23.7001V80.4999ZM18.1001 80.4999H15.3V92.2999H18.1001V80.4999ZM8.20005 79.8999H9.50005L12.2001 77.3999L11.4001 76.3999L9.00005 77.8999L6.60005 76.3999L5.70005 77.3999L8.20005 79.8999ZM13.2001 92.2999V89.9999H7.60005L13.0001 82.6999V80.4999H4.50005V82.7999H9.70005L4.30005 90.0999V92.2999H13.2001Z" fill="white"/>
<path d="M248.6 11H127V105.2H248.6V11Z" fill="black"/>
<path d="M186.8 57.6C201.6 79.8 191.8 99.3 188.1 105.2H189C192.9 98.7 202.2 79.3 187.5 57.2C173.3 35.8 181.9 17.4 185.8 11H184.9C180.7 17.9 172.6 36.2 186.8 57.6ZM175 57.6C189.8 79.8 180 99.3 176.3 105.2H177.2C181.1 98.7 190.4 79.3 175.7 57.2C161.5 35.8 170.1 17.4 174 11H173.1C168.9 17.9 160.9 36.2 175 57.6ZM163.3 57.6C178.1 79.8 168.3 99.3 164.6 105.2H165.5C169.4 98.7 178.7 79.3 164 57.2C149.8 35.8 158.4 17.4 162.3 11H161.4C157.2 17.9 149.1 36.2 163.3 57.6ZM151.5 57.6C166.3 79.8 156.5 99.3 152.8 105.2H153.7C157.6 98.7 166.9 79.3 152.2 57.2C138 35.8 146.6 17.4 150.5 11H149.6C145.4 17.9 137.3 36.2 151.5 57.6ZM137.8 11C133.7 17.9 125.6 36.3 139.7 57.6C154.5 79.8 144.7 99.3 141 105.2H141.9C145.8 98.7 155.1 79.3 140.4 57.2C126.2 35.8 134.8 17.4 138.7 11H137.8Z" fill="#87898C"/>
<path d="M190.3 35.7001V30.9001H191.3L194.7 35.7001H197.8L193.4 29.5001L197.3 23.9001H194.2L191 28.6001H190.3V23.9001H187.6V35.7001H190.3ZM180.2 26.6001L181.7 31.2001H178.7L180.2 26.6001ZM183.1 35.7001H186L181.8 23.9001H178.7L174.5 35.7001H177.4L178.1 33.5001H182.4L183.1 35.7001ZM169.2 32.7001L166.4 23.8001H163.5L167.7 35.6001H170.8L175 23.8001H172L169.2 32.7001ZM150.9 29.8001C150.9 32.6001 152.5 35.9001 156.7 35.9001C161.3 35.9001 163 32.9001 163 29.7001C163 26.8001 161.4 23.6001 157.2 23.6001C152.6 23.6001 150.9 26.7001 150.9 29.8001ZM153.7 29.5001C153.7 27.7001 154.8 26.0001 156.7 26.0001C159.3 26.0001 160.1 27.9001 160.1 30.1001C160.1 31.9001 159 33.6001 157.1 33.6001C154.6 33.6001 153.7 31.6001 153.7 29.5001ZM145.1 23.9001H142.3V35.7001H150.1V33.4001H145.1V23.9001ZM135.3 33.6001C134.2 33.6001 133 33.2001 132.1 32.7001L131.2 34.4001C131.8 35.0001 133.3 36.0001 135.8 36.0001C138 36.0001 140.3 34.9001 140.3 32.4001C140.3 28.4001 134.4 28.8001 134.4 27.2001C134.4 26.7001 134.9 26.1001 136.1 26.1001C137 26.1001 138.2 26.4001 139 26.9001L139.6 24.8001C139 24.3001 137.6 23.7001 135.9 23.7001C133 23.7001 131.3 25.2001 131.3 27.3001C131.3 31.4001 137.2 30.7001 137.2 32.5001C137.3 33.3001 136.3 33.6001 135.3 33.6001Z" fill="white"/>
<path d="M238 45.5L239.5 50.1H236.5L238 45.5ZM240.9 54.6H243.8L239.6 42.8H236.5L232.3 54.6H235.2L235.9 52.4H240.2L240.9 54.6ZM232.9 45V42.7H222.9V45H226.5V54.5H229.3V45H232.9ZM221.9 45V42.7H211.9V45H215.5V54.5H218.3V45H221.9ZM210.5 45V42.7H202.7V54.5H210.9V52.2H205.5V49.6H209.4V47.5H205.5V45H210.5ZM200 42.8H197.2V54.6H200V42.8ZM186.7 46.1L191.2 54.6H194.4V42.8H191.7V50.5L187.5 42.8H183.9V54.6H186.6V46.1H186.7ZM169.8 48.7C169.8 51.5 171.4 54.8 175.6 54.8C180.2 54.8 181.9 51.8 181.9 48.6C181.9 45.7 180.3 42.5 176.1 42.5C171.5 42.5 169.8 45.6 169.8 48.7ZM172.6 48.4C172.6 46.6 173.7 44.9 175.6 44.9C178.2 44.9 179 46.8 179 49C179 50.8 177.9 52.5 176 52.5C173.5 52.5 172.6 50.5 172.6 48.4ZM168.9 45V42.7H161.1V54.5H163.9V49.7H167.8V47.6H163.9V45H168.9ZM150.5 46.1L155 54.6H158.2V42.8H155.5V50.5L151.3 42.8H147.7V54.6H150.4V46.1H150.5ZM145.1 42.8H142.3V54.6H145.1V42.8ZM135.3 52.5C134.2 52.5 133 52.1 132.1 51.6L131.2 53.3C131.8 53.9 133.3 54.9 135.8 54.9C138 54.9 140.3 53.8 140.3 51.3C140.3 47.3 134.4 47.7 134.4 46.1C134.4 45.6 134.9 45 136.1 45C137 45 138.2 45.3 139 45.8L139.6 43.7C139 43.2 137.6 42.6 135.9 42.6C133 42.6 131.3 44.1 131.3 46.2C131.3 50.3 137.2 49.6 137.2 51.4C137.3 52.2 136.3 52.5 135.3 52.5Z" fill="white"/>
<path d="M180.6 64.4001L182.1 69.0001H179.1L180.6 64.4001ZM183.5 73.4001H186.4L182.2 61.6001H179.1L174.9 73.4001H177.8L178.5 71.2001H182.8L183.5 73.4001ZM165.5 65.0001L170 73.5001H173.2V61.7001H170.5V69.4001L166.3 61.7001H162.7V73.5001H165.4V65.0001H165.5ZM160 61.6001H157.2V73.4001H160V61.6001ZM150.6 61.6001H147.8V73.4001H155.6V71.1001H150.6V61.6001ZM145.1 61.6001H142.3V73.4001H145.1V61.6001ZM135.2 61.1001H136.5L139.2 58.6001L138.4 57.6001L136 59.1001L133.6 57.6001L132.7 58.6001L135.2 61.1001ZM140.2 73.4001V71.1001H134.6L140 63.8001V61.6001H131.5V63.9001H136.7L131.3 71.2001V73.4001H140.2Z" fill="white"/>
<path d="M254.1 39.7998V19.7998" stroke="black" stroke-width="0.5"/>
<path d="M254.1 18.3998V11.2998" stroke="black" stroke-width="0.5"/>
<path d="M252.7 20.1002V18.2002" stroke="black" stroke-width="0.5"/>
<path d="M254.1 103.4V37.6001" stroke="black" stroke-width="0.5"/>
<path d="M314.4 24.7998H374.8" stroke="black" stroke-width="0.5"/>
<path d="M314.4 26.2002H374.8" stroke="black" stroke-width="0.25"/>
<path d="M314.4 55.9001V48.1001" stroke="#A32035" stroke-width="0.5"/>
<path d="M295 90.0002V97.6002H299.9V87.2002L295 90.0002Z" stroke="black" stroke-width="0.5"/>
<path d="M314.5 83.2002H254.1" stroke="black"/>
<path d="M314.5 84.7998H292" stroke="black" stroke-width="0.5"/>
<path d="M292.3 95.5H274.2" stroke="black" stroke-width="0.25"/>
<path d="M292.3 91.5H274.2" stroke="black" stroke-width="0.25"/>
<path d="M292.3 87.2998H274.2" stroke="black" stroke-width="0.25"/>
<path d="M260.3 87.2998H254.1" stroke="black" stroke-width="0.25"/>
<path d="M260.3 91.5H254.1" stroke="black" stroke-width="0.25"/>
<path d="M260.3 95.5H254.1" stroke="black" stroke-width="0.25"/>
<path d="M274.1 87.5H260.1" stroke="black" stroke-width="0.5"/>
<path d="M292.3 99.3999H274.5" stroke="black" stroke-width="0.5"/>
<path d="M269.8 79.2998H264.9" stroke="black" stroke-width="0.5"/>
<path d="M299.2 79.2998H295.6" stroke="black" stroke-width="0.5"/>
<path d="M289.2 48.2002H286.8" stroke="black" stroke-width="0.5"/>
<path d="M283.1 48.2002H280.8" stroke="black" stroke-width="0.5"/>
<path d="M260.6 99.5H254.1" stroke="black" stroke-width="0.5"/>
<path d="M292.3 103.4V83.2002" stroke="black"/>
<path d="M260.3 103.4V87.2002" stroke="black" stroke-width="0.5"/>
<path d="M326.8 88.3998V84.7998" stroke="black" stroke-width="0.5"/>
<path d="M323.8 87.2998V84.7998" stroke="black" stroke-width="0.5"/>
<path d="M302.1 88.3998V84.7998" stroke="black" stroke-width="0.5"/>
<path d="M305.1 87.6998V84.7998" stroke="black" stroke-width="0.5"/>
<path d="M314.5 81.7002H254.1" stroke="black" stroke-width="0.5"/>
<path d="M314.5 41.1001H254.1" stroke="black" stroke-width="0.5"/>
<path d="M314.5 39.6001H254.1" stroke="black"/>
<path d="M314.5 24.7998H254.1" stroke="black" stroke-width="0.5"/>
<path d="M314.5 26.2002H254.1" stroke="black" stroke-width="0.25"/>
<path d="M314.5 19.7998H252.4" stroke="black"/>
<path d="M314.5 18.3999H252.4" stroke="black" stroke-width="0.5"/>
<path d="M292.8 19.7998H291.7V23.5998H292.8V19.7998Z" fill="black"/>
<path d="M304.4 35.5H303.7V37.6H304.4V35.5Z" fill="black"/>
<path d="M310.7 35.5H310V37.6H310.7V35.5Z" fill="black"/>
<path d="M316.9 35.5H316.2V37.6H316.9V35.5Z" fill="black"/>
<path d="M306.5 35.5H305.8V37.6H306.5V35.5Z" fill="black"/>
<path d="M312.8 35.5H312.1V37.6H312.8V35.5Z" fill="black"/>
<path d="M319 35.5H318.3V37.6H319V35.5Z" fill="black"/>
<path d="M321.1 35.5H320.4V37.6H321.1V35.5Z" fill="black"/>
<path d="M308.6 35.5H307.9V37.6H308.6V35.5Z" fill="black"/>
<path d="M314.8 35.5H314.1V37.6H314.8V35.5Z" fill="black"/>
<path d="M323.2 35.5H322.5V37.6H323.2V35.5Z" fill="black"/>
<path d="M325.3 35.5H324.6V37.6H325.3V35.5Z" fill="black"/>
<path d="M300.8 35.5H300.1V37.6H300.8V35.5Z" fill="black"/>
<path d="M298.7 35.5H298V37.6H298.7V35.5Z" fill="black"/>
<path d="M296.6 35.5H295.9V37.6H296.6V35.5Z" fill="black"/>
<path d="M294.7 35.5H294V37.6H294.7V35.5Z" fill="black"/>
<path d="M290.3 19.7998H289.2V23.5998H290.3V19.7998Z" fill="black"/>
<path d="M287.9 19.7998H286.8V23.5998H287.9V19.7998Z" fill="black"/>
<path d="M285.6 19.7998H284.5V23.5998H285.6V19.7998Z" fill="black"/>
<path d="M283.2 19.7998H282.1V23.5998H283.2V19.7998Z" fill="black"/>
<path d="M280.9 19.7998H279.8V23.5998H280.9V19.7998Z" fill="black"/>
<path d="M278.3 19.7998H277.2V23.5998H278.3V19.7998Z" fill="black"/>
<path d="M254.9 19.7998H253.8V23.5998H254.9V19.7998Z" fill="black"/>
<path d="M257.2 19.7998H256.1V23.5998H257.2V19.7998Z" fill="black"/>
<path d="M270.8 26.5H263.9V34H270.8V26.5Z" stroke="#A32035" stroke-width="0.75"/>
<path d="M292.3 83.1998V24.7998" stroke="black"/>
<path d="M277.7 83.1998V24.7998" stroke="black"/>
<path d="M256.9 83.1998V24.7998" stroke="black" stroke-width="0.5"/>
<path d="M256.9 18.3998V11.2998" stroke="black" stroke-width="0.5"/>
<path d="M277.7 18.3998V11.2998" stroke="black"/>
<path d="M292.3 18.3998V11.2998" stroke="black"/>
<path d="M260.3 83.2001V41.1001" stroke="black" stroke-width="0.5"/>
<path d="M274.2 83.2001V41.1001" stroke="black" stroke-width="0.5"/>
<path d="M267.3 33.9999V26.3999" stroke="#A32035" stroke-width="0.5"/>
<path d="M270.8 43.8999H263.9V55.7999H270.8V43.8999Z" stroke="#A32035" stroke-width="0.75"/>
<path d="M267.3 55.9001V48.1001" stroke="#A32035" stroke-width="0.5"/>
<path d="M270.8 48.2998H263.9" stroke="black" stroke-width="0.5"/>
<path d="M299.5 65.7998H295.4V77.6998H299.5V65.7998Z" stroke="#A32035" stroke-width="0.75"/>
<path d="M297.4 77.8001V70.1001" stroke="#A32035" stroke-width="0.5"/>
<path d="M299.6 70.2002H295.3" stroke="#A32035" stroke-width="0.5"/>
<path d="M299.5 43.8999H295.4V55.7999H299.5V43.8999Z" stroke="#A32035" stroke-width="0.75"/>
<path d="M297.4 55.8998V48.2998" stroke="#A32035" stroke-width="0.5"/>
<path d="M303.8 48.2998H290.2" stroke="black" stroke-width="0.5"/>
<path d="M279.6 48.2998H260.3" stroke="black" stroke-width="0.5"/>
<path d="M309.2 65.7998H304V77.6998H309.2V65.7998Z" stroke="#A32035" stroke-width="0.75"/>
<path d="M306.6 77.7998V70.2998" stroke="#A32035" stroke-width="0.5"/>
<path d="M309.2 70.2002H304" stroke="#A32035" stroke-width="0.5"/>
<path d="M309.2 43.8999H304V55.7999H309.2V43.8999Z" stroke="#A32035" stroke-width="0.75"/>
<path d="M306.6 55.9001V48.1001" stroke="#A32035" stroke-width="0.5"/>
<path d="M309.2 48.2998H304" stroke="#A32035" stroke-width="0.5"/>
<path d="M299.5 26.3999H295.4V34.2999H299.5V26.3999Z" stroke="#A32035" stroke-width="0.75"/>
<path d="M297.4 34.4998V29.2998" stroke="#A32035" stroke-width="0.5"/>
<path d="M299.6 29.3999H295.3" stroke="#A32035" stroke-width="0.5"/>
<path d="M309.2 26.3999H304V34.2999H309.2V26.3999Z" stroke="#A32035" stroke-width="0.75"/>
<path d="M306.6 34.4998V29.2998" stroke="#A32035" stroke-width="0.5"/>
<path d="M309.2 29.3999H304" stroke="#A32035" stroke-width="0.5"/>
<path d="M314.7 34.2999H310.7V26.3999H314.7" stroke="#A32035" stroke-width="0.75"/>
<path d="M314.5 29.3999H310.7" stroke="#A32035" stroke-width="0.5"/>
<path d="M314.7 77.6998H310.7V65.7998H314.7" stroke="#A32035" stroke-width="0.75"/>
<path d="M314.7 55.7999H310.7V43.8999H314.7" stroke="#A32035" stroke-width="0.75"/>
<path d="M314.5 77.7998V70.2998" stroke="#A32035" stroke-width="0.5"/>
<path d="M314.5 55.9001V48.1001" stroke="#A32035" stroke-width="0.5"/>
<path d="M314.5 70.2002H310.7" stroke="#A32035" stroke-width="0.5"/>
<path d="M314.5 48.2998H310.7" stroke="#A32035" stroke-width="0.5"/>
<path d="M270.8 65.7998H263.9V77.6998H270.8V65.7998Z" stroke="#A32035" stroke-width="0.75"/>
<path d="M267.3 77.8V70" stroke="#A32035" stroke-width="0.5"/>
<path d="M270.8 70.2002H263.9" stroke="#A32035" stroke-width="0.5"/>
<path d="M314.5 63.9999H303.9V58.3999H314.5" stroke="black" stroke-width="0.5"/>
<path d="M299.9 58.3999H295.4V63.9999H299.9V58.3999Z" stroke="black" stroke-width="0.5"/>
<path d="M269.7 58.6001H264.5V63.8001H269.7V58.6001Z" stroke="black" stroke-width="0.5"/>
<path d="M302.1 81.7001V41.1001" stroke="black" stroke-width="0.5"/>
<path d="M302.1 39.4002V34.2002" stroke="black" stroke-width="0.5"/>
<path d="M277.7 39.6002L274.2 36.6002L270.8 35.2002H263.9L260.3 36.6002L256.9 39.6002" stroke="black" stroke-width="0.5"/>
<path d="M253.8 11.3002H265.1V11.2002C265.1 9.8002 266.2 8.7002 267.6 8.7002C269 8.7002 270.1 9.8002 270.1 11.2002V11.3002H292.3L295.1 8.80017H306.4" stroke="black"/>
<path d="M290.4 46.2998H279.6V52.4998H290.4V46.2998Z" stroke="black" stroke-width="0.5"/>
<path d="M268.6 87.2002V103.3" stroke="#A32035" stroke-width="0.5"/>
<path d="M307.8 87.6001V103.3" stroke="#A32035" stroke-width="0.5"/>
<path d="M280.1 29.6002C280.763 29.6002 281.3 29.0629 281.3 28.4002C281.3 27.7374 280.763 27.2002 280.1 27.2002C279.437 27.2002 278.9 27.7374 278.9 28.4002C278.9 29.0629 279.437 29.6002 280.1 29.6002Z" stroke="black" stroke-width="0.5"/>
<path d="M280.8 30.2002L280.5 39.4002H279.6L279.4 30.2002H280.8Z" stroke="black" stroke-width="0.5"/>
<path d="M278.7 31.3999H281.5" stroke="black" stroke-width="0.5"/>
<path d="M283.4 29.6002C284.063 29.6002 284.6 29.0629 284.6 28.4002C284.6 27.7374 284.063 27.2002 283.4 27.2002C282.737 27.2002 282.2 27.7374 282.2 28.4002C282.2 29.0629 282.737 29.6002 283.4 29.6002Z" stroke="black" stroke-width="0.5"/>
<path d="M284.1 30.2002L283.8 39.4002H282.9L282.7 30.2002H284.1Z" stroke="black" stroke-width="0.5"/>
<path d="M281.9 31.3999H284.8" stroke="black" stroke-width="0.5"/>
<path d="M286.7 29.6002C287.363 29.6002 287.9 29.0629 287.9 28.4002C287.9 27.7374 287.363 27.2002 286.7 27.2002C286.037 27.2002 285.5 27.7374 285.5 28.4002C285.5 29.0629 286.037 29.6002 286.7 29.6002Z" stroke="black" stroke-width="0.5"/>
<path d="M287.4 30.2002L287.1 39.4002H286.2L286 30.2002H287.4Z" stroke="black" stroke-width="0.5"/>
<path d="M285.2 31.3999H288.1" stroke="black" stroke-width="0.5"/>
<path d="M290 29.6002C290.663 29.6002 291.2 29.0629 291.2 28.4002C291.2 27.7374 290.663 27.2002 290 27.2002C289.337 27.2002 288.8 27.7374 288.8 28.4002C288.8 29.0629 289.337 29.6002 290 29.6002Z" stroke="black" stroke-width="0.5"/>
<path d="M290.7 30.2002L290.4 39.4002H289.5L289.2 30.2002H290.7Z" stroke="black" stroke-width="0.5"/>
<path d="M288.5 31.3999H291.4" stroke="black" stroke-width="0.5"/>
<path d="M326.7 87.6001H315.6V103.5H326.7V87.6001Z" stroke="#A32035" stroke-width="0.75"/>
<path d="M333.9 90.0002V97.6002H329V87.2002L333.9 90.0002Z" stroke="black" stroke-width="0.5"/>
<path d="M314.4 83.2002H374.8" stroke="black"/>
<path d="M314.4 84.7998H336.9" stroke="black" stroke-width="0.5"/>
<path d="M336.6 95.5H354.6" stroke="black" stroke-width="0.25"/>
<path d="M336.6 91.5H354.6" stroke="black" stroke-width="0.25"/>
<path d="M336.6 87.2998H354.6" stroke="black" stroke-width="0.25"/>
<path d="M368.5 87.2998H374.8" stroke="black" stroke-width="0.25"/>
<path d="M368.5 91.5H374.8" stroke="black" stroke-width="0.25"/>
<path d="M368.5 95.5H374.8" stroke="black" stroke-width="0.25"/>
<path d="M354.7 87.5H368.8" stroke="black" stroke-width="0.5"/>
<path d="M336.6 99.3999H354.4" stroke="black" stroke-width="0.5"/>
<path d="M359 79.2998H364" stroke="black" stroke-width="0.5"/>
<path d="M311.1 79.2998H317.7" stroke="black" stroke-width="0.5"/>
<path d="M329.7 79.2998H333.2" stroke="black" stroke-width="0.5"/>
<path d="M339.6 48.2002H342" stroke="black" stroke-width="0.5"/>
<path d="M345.8 48.2002H348.1" stroke="black" stroke-width="0.5"/>
<path d="M368.3 99.3999H374.8" stroke="black" stroke-width="0.5"/>
<path d="M336.6 103.4V83.2002" stroke="black"/>
<path d="M368.6 103.4V87.2002" stroke="black" stroke-width="0.5"/>
<path d="M314.4 81.7002H374.8" stroke="black" stroke-width="0.5"/>
<path d="M314.4 41.1001H374.8" stroke="black" stroke-width="0.5"/>
<path d="M314.4 39.6001H374.8" stroke="black"/>
<path d="M314.4 19.7998H376.5" stroke="black"/>
<path d="M314.4 18.3999H376.5" stroke="black" stroke-width="0.5"/>
<path d="M337.2 19.7998H336.1V23.5998H337.2V19.7998Z" fill="black"/>
<path d="M328.8 35.5H328.1V37.6H328.8V35.5Z" fill="black"/>
<path d="M330.9 35.5H330.2V37.6H330.9V35.5Z" fill="black"/>
<path d="M332.9 35.5H332.2V37.6H332.9V35.5Z" fill="black"/>
<path d="M334.8 35.5H334.1V37.6H334.8V35.5Z" fill="black"/>
<path d="M339.8 19.7998H338.7V23.5998H339.8V19.7998Z" fill="black"/>
<path d="M342.1 19.7998H341V23.5998H342.1V19.7998Z" fill="black"/>
<path d="M344.4 19.7998H343.3V23.5998H344.4V19.7998Z" fill="black"/>
<path d="M346.8 19.7998H345.7V23.5998H346.8V19.7998Z" fill="black"/>
<path d="M349.1 19.7998H348V23.5998H349.1V19.7998Z" fill="black"/>
<path d="M351.7 19.7998H350.6V23.5998H351.7V19.7998Z" fill="black"/>
<path d="M375.1 19.7998H374V23.5998H375.1V19.7998Z" fill="black"/>
<path d="M372.8 19.7998H371.7V23.5998H372.8V19.7998Z" fill="black"/>
<path d="M365 26.5H358.1V34H365V26.5Z" stroke="#A32035" stroke-width="0.75"/>
<path d="M336.6 83.1998V24.7998" stroke="black"/>
<path d="M351.2 83.1998V24.7998" stroke="black"/>
<path d="M372 83.1998V24.7998" stroke="black" stroke-width="0.5"/>
<path d="M372 18.3998V11.2998" stroke="black" stroke-width="0.5"/>
<path d="M351.1 18.3998V11.2998" stroke="black"/>
<path d="M336.6 18.3998V11.2998" stroke="black"/>
<path d="M374.8 39.7998V19.7998" stroke="black" stroke-width="0.5"/>
<path d="M374.8 18.3998V11.2998" stroke="black" stroke-width="0.5"/>
<path d="M376.2 20.1002V18.2002" stroke="black" stroke-width="0.5"/>
<path d="M368.6 83.2001V41.1001" stroke="black" stroke-width="0.5"/>
<path d="M354.6 83.2001V41.1001" stroke="black" stroke-width="0.5"/>
<path d="M361.6 33.9999V26.3999" stroke="#A32035" stroke-width="0.5"/>
<path d="M365 43.8999H358.1V55.7999H365V43.8999Z" stroke="#A32035" stroke-width="0.75"/>
<path d="M361.6 55.9002V48.2002" stroke="#A32035" stroke-width="0.5"/>
<path d="M358.1 48.2998H365" stroke="black" stroke-width="0.5"/>
<path d="M333.5 65.7998H329.4V77.6998H333.5V65.7998Z" stroke="#A32035" stroke-width="0.75"/>
<path d="M331.5 77.7998V70.2998" stroke="#A32035" stroke-width="0.5"/>
<path d="M329.3 70.2002H333.6" stroke="#A32035" stroke-width="0.5"/>
<path d="M333.5 43.8999H329.4V55.7999H333.5V43.8999Z" stroke="#A32035" stroke-width="0.75"/>
<path d="M331.5 55.8998V48.2998" stroke="#A32035" stroke-width="0.5"/>
<path d="M325.1 48.2998H338.7" stroke="black" stroke-width="0.5"/>
<path d="M349.3 48.2998H368.6" stroke="black" stroke-width="0.5"/>
<path d="M324.9 65.7998H319.7V77.6998H324.9V65.7998Z" stroke="#A32035" stroke-width="0.75"/>
<path d="M322.3 77.7998V70.2998" stroke="#A32035" stroke-width="0.5"/>
<path d="M319.6 70.2002H324.9" stroke="#A32035" stroke-width="0.5"/>
<path d="M324.9 43.8999H319.7V55.7999H324.9V43.8999Z" stroke="#A32035" stroke-width="0.75"/>
<path d="M322.3 55.9001V48.1001" stroke="#A32035" stroke-width="0.5"/>
<path d="M319.6 48.2998H324.9" stroke="#A32035" stroke-width="0.5"/>
<path d="M333.5 26.3999H329.4V34.2999H333.5V26.3999Z" stroke="#A32035" stroke-width="0.75"/>
<path d="M331.5 34.4999V29.3999" stroke="#A32035" stroke-width="0.5"/>
<path d="M329.3 29.3999H333.6" stroke="#A32035" stroke-width="0.5"/>
<path d="M324.9 26.3999H319.7V34.2999H324.9V26.3999Z" stroke="#A32035" stroke-width="0.75"/>
<path d="M322.3 34.4998V29.2998" stroke="#A32035" stroke-width="0.5"/>
<path d="M319.6 29.3999H324.9" stroke="#A32035" stroke-width="0.5"/>
<path d="M314.2 34.2999H318.2V26.3999H314.2" stroke="#A32035" stroke-width="0.75"/>
<path d="M314.4 34.4999V26.3999" stroke="#A32035" stroke-width="0.5"/>
<path d="M314.4 29.3999H318.2" stroke="#A32035" stroke-width="0.5"/>
<path d="M314.2 77.6998H318.2V65.7998H314.2" stroke="#A32035" stroke-width="0.75"/>
<path d="M314.2 55.7999H318.2V43.8999H314.2" stroke="#A32035" stroke-width="0.75"/>
<path d="M314.4 70.2002H318.2" stroke="#A32035" stroke-width="0.5"/>
<path d="M314.4 48.2998H318.2" stroke="#A32035" stroke-width="0.5"/>
<path d="M365 65.7998H358.1V77.6998H365V65.7998Z" stroke="#A32035" stroke-width="0.75"/>
<path d="M361.6 77.7998V70.2998" stroke="#A32035" stroke-width="0.5"/>
<path d="M358.1 70.2002H365" stroke="#A32035" stroke-width="0.5"/>
<path d="M314.4 63.9999H325V58.3999H314.4" stroke="black" stroke-width="0.5"/>
<path d="M333.6 58.3999H329.1V63.9999H333.6V58.3999Z" stroke="black" stroke-width="0.5"/>
<path d="M364.4 58.6001H359.2V63.8001H364.4V58.6001Z" stroke="black" stroke-width="0.5"/>
<path d="M326.8 81.7001V41.1001" stroke="black" stroke-width="0.5"/>
<path d="M326.8 39.4002V34.2002" stroke="black" stroke-width="0.5"/>
<path d="M374.8 103.4V37.6001" stroke="black" stroke-width="0.5"/>
<path d="M351.2 39.6002L354.6 36.6002L358.1 35.2002H365L368.6 36.6002L372 39.6002" stroke="black" stroke-width="0.5"/>
<path d="M375.1 11.3002H363.8V11.2002C363.8 9.8002 362.7 8.7002 361.3 8.7002C359.9 8.7002 358.8 9.8002 358.8 11.2002V11.3002H336.6L333.8 8.80017H322.5" stroke="black"/>
<path d="M349.3 46.2998H338.5V52.4998H349.3V46.2998Z" stroke="black" stroke-width="0.5"/>
<path d="M321.1 87.6001V103.3" stroke="#A32035" stroke-width="0.5"/>
<path d="M360.3 87.5V103.3" stroke="#A32035" stroke-width="0.5"/>
<path d="M338.9 29.6002C339.563 29.6002 340.1 29.0629 340.1 28.4002C340.1 27.7374 339.563 27.2002 338.9 27.2002C338.237 27.2002 337.7 27.7374 337.7 28.4002C337.7 29.0629 338.237 29.6002 338.9 29.6002Z" stroke="black" stroke-width="0.5"/>
<path d="M339.6 30.2002L339.4 39.4002H338.5L338.2 30.2002H339.6Z" stroke="black" stroke-width="0.5"/>
<path d="M337.5 31.3999H340.3" stroke="black" stroke-width="0.5"/>
<path d="M342.2 29.6002C342.863 29.6002 343.4 29.0629 343.4 28.4002C343.4 27.7374 342.863 27.2002 342.2 27.2002C341.537 27.2002 341 27.7374 341 28.4002C341 29.0629 341.537 29.6002 342.2 29.6002Z" stroke="black" stroke-width="0.5"/>
<path d="M342.9 30.2002L342.7 39.4002H341.8L341.5 30.2002H342.9Z" stroke="black" stroke-width="0.5"/>
<path d="M340.8 31.3999H343.6" stroke="black" stroke-width="0.5"/>
<path d="M345.5 29.6002C346.163 29.6002 346.7 29.0629 346.7 28.4002C346.7 27.7374 346.163 27.2002 345.5 27.2002C344.837 27.2002 344.3 27.7374 344.3 28.4002C344.3 29.0629 344.837 29.6002 345.5 29.6002Z" stroke="black" stroke-width="0.5"/>
<path d="M346.2 30.2002L346 39.4002H345.1L344.8 30.2002H346.2Z" stroke="black" stroke-width="0.5"/>
<path d="M344.1 31.3999H346.9" stroke="black" stroke-width="0.5"/>
<path d="M348.8 29.6002C349.463 29.6002 350 29.0629 350 28.4002C350 27.7374 349.463 27.2002 348.8 27.2002C348.137 27.2002 347.6 27.7374 347.6 28.4002C347.6 29.0629 348.137 29.6002 348.8 29.6002Z" stroke="black" stroke-width="0.5"/>
<path d="M349.5 30.2002L349.3 39.4002H348.4L348.1 30.2002H349.5Z" stroke="black" stroke-width="0.5"/>
<path d="M347.4 31.3999H350.2" stroke="black" stroke-width="0.5"/>
<path d="M251.2 103.8H377.5" stroke="#A32035" stroke-width="2.7"/>
<path d="M321.5 4.90009C321.997 4.90009 322.4 4.49715 322.4 4.00009C322.4 3.50304 321.997 3.1001 321.5 3.1001C321.003 3.1001 320.6 3.50304 320.6 4.00009C320.6 4.49715 321.003 4.90009 321.5 4.90009Z" stroke="black" stroke-width="0.75"/>
<path d="M307.3 4.90009C307.797 4.90009 308.2 4.49715 308.2 4.00009C308.2 3.50304 307.797 3.1001 307.3 3.1001C306.803 3.1001 306.4 3.50304 306.4 4.00009C306.4 4.49715 306.803 4.90009 307.3 4.90009Z" stroke="black" stroke-width="0.75"/>
<path d="M323.6 11.3V8.79999H322.4V6.20001H320.4V8.79999H317.4C318.1 8.29999 318.6 7.50001 318.6 6.70001C318.6 6.00001 318.3 5.39999 317.8 4.89999C317.3 4.29999 316.6 3.90001 315.7 3.70001V1.79999L315.3 1H314.6H313.9L313.5 1.79999V3.70001C312.7 3.90001 312 4.29999 311.5 4.79999C310.9 5.29999 310.5 6.00001 310.5 6.70001C310.5 7.50001 310.9 8.19999 311.7 8.79999H308.6V6.20001H306.6V8.79999H305.4V11.3H314.6H323.6Z" stroke="black"/>
<path d="M274.1 87.6001H263V103.5H274.1V87.6001Z" stroke="#A32035" stroke-width="0.75"/>
<path d="M365.8 87.6001H354.7V103.5H365.8V87.6001Z" stroke="#A32035" stroke-width="0.75"/>
<path d="M314.4 34.2002H336.6" stroke="black"/>
<path d="M271.1 48.2998H263.5" stroke="#A32035" stroke-width="0.5"/>
<path d="M299.8 48.2998H295" stroke="#A32035" stroke-width="0.5"/>
<path d="M314.5 34.2002H292.3" stroke="black"/>
<path d="M357.7 48.2998H365.4" stroke="#A32035" stroke-width="0.5"/>
<path d="M329 48.2998H334" stroke="#A32035" stroke-width="0.5"/>
<path d="M313.3 87.6001H302.2V103.5H313.3V87.6001Z" stroke="#A32035" stroke-width="0.75"/>
<path d="M266.9 89.1001H264.5V99.6001H266.9V89.1001Z" stroke="black" stroke-width="0.52"/>
<path d="M272.5 89.1001H270.1V99.6001H272.5V89.1001Z" stroke="black" stroke-width="0.52"/>
<path d="M306.2 89.1001H303.8V99.6001H306.2V89.1001Z" stroke="black" stroke-width="0.52"/>
<path d="M311.6 89.1001H309.2V99.6001H311.6V89.1001Z" stroke="black" stroke-width="0.52"/>
<path d="M319.6 89.1001H317.2V99.6001H319.6V89.1001Z" stroke="black" stroke-width="0.52"/>
<path d="M325 89.1001H322.6V99.6001H325V89.1001Z" stroke="black" stroke-width="0.52"/>
<path d="M358.7 89.1001H356.3V99.6001H358.7V89.1001Z" stroke="black" stroke-width="0.52"/>
<path d="M364.2 89.1001H361.8V99.6001H364.2V89.1001Z" stroke="black" stroke-width="0.52"/>
<path d="M310.3 6.6001C310.3 8.2001 312.2 9.6001 314.4 9.6001C316.7 9.6001 318.5 8.3001 318.5 6.6001" stroke="black"/>
</svg>
