<svg width="30" height="59" viewBox="0 0 30 59" fill="none" xmlns="http://www.w3.org/2000/svg">
<path d="M25.8 8.85H6V0H0V54.87C0 57.1415 1.887 59 4.194 59H25.8C28.107 59 30 57.1386 30 54.87V12.983C30 10.7056 28.107 8.85 25.8 8.85ZM9 44.25C6.927 44.25 5.25 42.9314 5.25 41.3C5.25 39.6687 6.927 38.35 9 38.35C11.073 38.35 12.75 39.6687 12.75 41.3C12.75 42.9314 11.073 44.25 9 44.25ZM12.75 50.15C12.75 51.7813 11.073 53.1 9 53.1C6.927 53.1 5.25 51.7813 5.25 50.15C5.25 48.5187 6.927 47.2 9 47.2C11.073 47.2 12.75 48.5187 12.75 50.15ZM6 32.45V14.75H24V32.45H6ZM21 44.25C18.927 44.25 17.25 42.9314 17.25 41.3C17.25 39.6687 18.927 38.35 21 38.35C23.073 38.35 24.75 39.6687 24.75 41.3C24.75 42.9314 23.073 44.25 21 44.25ZM24.75 50.15C24.75 51.7813 23.073 53.1 21 53.1C18.927 53.1 17.25 51.7813 17.25 50.15C17.25 48.5187 18.927 47.2 21 47.2C23.073 47.2 24.75 48.5187 24.75 50.15Z" fill="#A32035"/>
</svg>
