<svg width="50" height="50" viewBox="0 0 50 50" fill="none" xmlns="http://www.w3.org/2000/svg">
<path d="M38.6624 49.9999C38.1758 49.9985 37.6907 49.9439 37.2154 49.8371C28.1661 47.9228 19.8294 43.4343 13.1646 36.8883C6.6421 30.3279 2.11837 21.9752 0.14078 12.8406C-0.0924025 11.7021 -0.0351702 10.5215 0.306971 9.41221C0.649113 8.30293 1.26465 7.30237 2.09436 6.50678L7.88274 0.809312C8.17839 0.523384 8.52968 0.304427 8.91367 0.16673C9.29767 0.0290329 9.70574 -0.0243086 10.1113 0.0101868C10.5317 0.0550458 10.9375 0.193561 11.3 0.415992C11.6625 0.638423 11.973 0.939369 12.2096 1.29767L19.445 12.2338C19.7164 12.6582 19.8473 13.1604 19.8187 13.6665C19.79 14.1727 19.6033 14.6561 19.2858 15.0456L15.6536 19.4852C17.1002 22.7593 19.1489 25.7184 21.688 28.2015C24.2107 30.7747 27.1925 32.8294 30.4719 34.2542L34.9724 30.5989C35.3503 30.2934 35.8103 30.1128 36.2911 30.0811C36.7719 30.0494 37.2507 30.168 37.664 30.4213L48.5895 37.6431C48.9645 37.872 49.2839 38.1847 49.5238 38.5578C49.7638 38.9309 49.9181 39.3547 49.9752 39.7974C50.0322 40.2402 49.9906 40.6904 49.8534 41.1143C49.7162 41.5382 49.4869 41.9249 49.1828 42.2454L43.5392 47.9577C42.8981 48.6101 42.1372 49.1263 41.3002 49.4768C40.4633 49.8273 39.5668 50.0051 38.6624 49.9999ZM9.87973 2.94031L4.09135 8.63778C3.62459 9.08255 3.27908 9.6439 3.08878 10.2666C2.89849 10.8894 2.86997 11.552 3.00603 12.1894C4.84488 20.761 9.07184 28.6045 15.1761 34.7721C21.4481 40.9306 29.2934 45.1524 37.8087 46.9514C38.4532 47.0892 39.1211 47.0613 39.7525 46.8701C40.3839 46.679 40.959 46.3307 41.4264 45.8563L47.0701 40.144L36.5207 33.1739L31.6875 37.1103C31.5024 37.2601 31.2844 37.3613 31.0523 37.4051C30.8203 37.449 30.5813 37.4341 30.3561 37.3619C26.3429 35.8498 22.706 33.4494 19.7055 30.3325C16.602 27.3687 14.193 23.7265 12.6582 19.6775C12.5932 19.4324 12.5911 19.1743 12.6519 18.9281C12.7127 18.6819 12.8345 18.4558 13.0055 18.2717L16.9126 13.4917L9.87973 2.94031Z" fill="#A32035"/>
</svg>
