<svg width="579" height="1080" viewBox="0 0 579 1080" fill="none" xmlns="http://www.w3.org/2000/svg">
<path d="M645.029 522.645C818.414 782.588 703.605 1010.92 660.259 1080H670.802C716.492 1003.89 825.443 776.734 653.23 517.962C486.874 267.387 587.625 51.9384 633.314 -23H622.77C573.566 57.793 478.674 272.07 645.029 522.645ZM506.79 522.645C680.175 782.588 565.366 1010.92 522.02 1080H532.563C578.253 1003.89 687.204 776.734 514.991 517.962C348.635 267.387 449.385 51.9384 495.075 -23H484.531C435.327 57.793 341.606 272.07 506.79 522.645ZM369.722 522.645C543.107 782.588 428.298 1010.92 384.952 1080H395.496C441.185 1003.89 550.136 776.734 377.923 517.962C211.567 267.387 312.318 51.9384 358.007 -23H347.463C298.259 57.793 203.367 272.07 369.722 522.645ZM231.483 522.645C404.868 782.588 290.059 1010.92 246.713 1080H257.257C302.946 1003.89 411.897 776.734 239.684 517.962C73.3281 267.387 174.079 51.9384 219.768 -23H209.224C160.02 57.793 65.1273 272.07 231.483 522.645ZM70.985 -23C22.9527 57.793 -71.9402 273.241 93.2439 522.645C266.629 782.588 151.82 1010.92 108.474 1080H119.017C164.707 1003.89 273.658 776.734 101.445 517.962C-64.9111 267.387 35.8395 51.9384 81.5287 -23H70.985V-23Z" fill="#87898C" fill-opacity="0.05"/>
</svg>
