<svg width="179" height="166" viewBox="0 0 179 166" fill="none" xmlns="http://www.w3.org/2000/svg">
<path d="M98.3315 82.1188C124.412 121.24 107.143 155.603 100.622 166H102.208C109.081 154.546 125.469 120.359 99.565 81.414C74.5417 43.7028 89.6966 11.2781 96.5693 0H94.9833C87.582 12.1592 73.3081 44.4076 98.3315 82.1188ZM77.5374 82.1188C103.618 121.24 86.3485 155.603 79.8283 166H81.4143C88.2869 154.546 104.675 120.359 78.771 81.414C53.7476 43.7028 68.9026 11.2781 75.7752 0H74.1892C66.9642 12.1592 52.6903 44.4076 77.5374 82.1188ZM56.9196 82.1188C83.0003 121.24 65.7306 155.603 59.2105 166H60.7964C67.669 154.546 84.0576 120.359 58.1531 81.414C33.1298 43.7028 48.2848 11.2781 55.1574 0H53.5714C46.1701 12.1592 31.8962 44.4076 56.9196 82.1188ZM36.1255 82.1188C62.2062 121.24 44.9366 155.603 38.4164 166H40.0024C46.875 154.546 63.2635 120.359 37.3591 81.414C12.3357 43.7028 27.4907 11.2781 34.3633 0H32.7773C25.3761 12.1592 11.1022 44.4076 36.1255 82.1188ZM11.9833 0C4.75823 12.1592 -9.51565 44.5838 15.3315 82.1188C41.4122 121.24 24.1425 155.603 17.6224 166H19.2083C26.081 154.546 42.4695 120.359 16.565 81.414C-8.45831 43.7028 6.69666 11.2781 13.5693 0H11.9833Z" fill="#3E3E3E"/>
<path d="M106.614 30.8381L102.032 22.5557H96.569L104.147 34.7149V43.3498H109.081V34.7149L116.658 22.5557H111.195L106.614 30.8381ZM80.1805 28.5472L88.1104 43.526H93.7495V22.7319H88.9915V36.3009L81.5903 22.7319H75.2463V43.526H80.0043V28.5472H80.1805ZM72.603 26.6088V22.5557H54.9809V26.6088H61.3249V43.3498H66.2591V26.6088H72.603ZM50.0468 18.5026L47.4034 15.5068L42.4693 19.9124L44.0552 21.6746L50.0468 18.5026ZM45.9937 27.4899L48.637 35.596H43.3504L45.9937 27.4899ZM51.1041 43.526H56.2145L48.8132 22.7319H43.3504L35.9491 43.526H41.0595L42.293 39.6491H49.8705L51.1041 43.526ZM37.0064 26.6088V22.5557H19.3843V26.6088H25.7283V43.3498H30.6625V26.6088H37.0064ZM8.63487 21.6746H10.9257L15.6837 17.269L14.2739 15.5068L10.0446 18.1501L5.81533 15.5068L4.22935 17.269L8.63487 21.6746ZM9.16353 39.8253C7.2251 39.8253 5.11045 39.1205 3.52447 38.2394L1.93848 41.2351C2.9958 42.2924 5.63911 44.0546 10.0446 44.0546C13.9215 44.0546 17.9746 42.1162 17.9746 37.7107C17.9746 30.6618 7.57754 31.3667 7.57754 28.5472C7.57754 27.6661 8.45865 26.6088 10.5733 26.6088C12.1593 26.6088 14.2739 27.1374 15.6837 28.0185L16.741 24.3179C15.6837 23.4368 13.2166 22.3795 10.2208 22.3795C5.11045 22.3795 2.11469 25.0228 2.11469 28.7234C2.11469 35.9484 12.5117 34.7149 12.5117 37.8869C12.6879 39.2967 11.102 39.8253 9.16353 39.8253Z" fill="white"/>
<path d="M154.899 51.8092L152.255 48.8135L147.321 53.219L148.907 54.9812L154.899 51.8092ZM150.141 64.3209L145.559 56.0385H140.096L147.673 68.1978V76.8325H152.608V68.1978L160.185 56.0385H154.722L150.141 64.3209ZM123.707 61.8537L131.637 76.8325H137.276V56.0385H132.518V69.6075L125.117 56.0385H118.773V76.8325H123.531V61.8537H123.707ZM109.61 63.0873C109.61 65.3782 108.024 66.0831 105.557 66.0831H103.09V59.9154H105.557C108.2 59.9154 109.61 60.6202 109.61 63.0873ZM114.72 62.9111C114.72 58.1532 111.372 56.0385 107.671 56.0385H98.5079V76.8325H103.442V69.96H105.557L110.667 76.8325H116.13L110.491 69.255C112.782 68.3739 114.72 66.2593 114.72 62.9111ZM73.3083 66.4356C73.3083 71.3697 76.1278 77.185 83.5291 77.185C91.6352 77.185 94.631 71.8983 94.631 66.2593C94.631 61.1489 91.8115 55.5098 84.4102 55.5098C76.4803 55.5098 73.3083 60.9727 73.3083 66.4356ZM78.4187 65.9069C78.4187 62.7349 80.3571 59.7391 83.7053 59.7391C88.287 59.7391 89.6968 63.0873 89.6968 66.9642C89.6968 70.1362 87.7584 73.1319 84.4102 73.1319C79.8285 73.1319 78.4187 69.6075 78.4187 65.9069ZM52.6905 56.0385H44.9367V76.8325H49.6947V59.7391L55.1575 76.8325H59.5631L65.0259 59.9154V76.8325H69.6076V56.0385H61.8539L57.2722 70.3124L52.6905 56.0385ZM19.9134 66.4356C19.9134 71.3697 22.7329 77.185 30.1342 77.185C38.2403 77.185 41.2361 71.8983 41.2361 66.2593C41.2361 61.1489 38.4166 55.5098 31.0153 55.5098C22.9091 55.5098 19.9134 60.9727 19.9134 66.4356ZM24.8476 65.9069C24.8476 62.7349 26.786 59.7391 30.1342 59.7391C34.7159 59.7391 36.1257 63.0873 36.1257 66.9642C36.1257 70.1362 34.1873 73.1319 30.8391 73.1319C26.4335 73.1319 24.8476 69.6075 24.8476 65.9069ZM6.34438 76.8325V68.3739H8.10659L14.0981 76.8325H19.5609L11.8072 65.9069L18.6798 56.0385H13.217L7.57792 64.3209H6.34438V56.0385H1.58643V76.8325H6.34438Z" fill="white"/>
<path d="M172.696 95.6878C172.696 97.9787 171.11 98.6836 168.643 98.6836H166.352V92.5159H168.819C171.11 92.6921 172.696 93.397 172.696 95.6878ZM177.631 95.5116C177.631 90.7537 174.282 88.639 170.406 88.639H161.242V109.433H166.176V102.56H168.291L173.401 109.433H178.864L173.225 101.856C175.868 100.974 177.631 99.0361 177.631 95.5116ZM156.837 92.6922V88.639H143.091V109.433H157.541V105.38H148.025V100.798H154.898V97.0977H148.025V92.6922H156.837ZM140.448 92.6922V88.639H122.826V92.6922H129.17V109.433H134.104V92.6922H140.448ZM112.429 105.732C110.49 105.732 108.376 105.028 106.79 104.147L105.204 107.142C106.261 108.199 108.904 109.962 113.31 109.962C117.187 109.962 121.24 108.023 121.24 103.618C121.24 96.5689 110.843 97.2739 110.843 94.4544C110.843 93.5733 111.724 92.5159 113.839 92.5159C115.425 92.5159 117.539 93.0445 118.949 93.9256L120.006 90.225C118.949 89.3439 116.482 88.2866 113.486 88.2866C108.376 88.2866 105.38 90.9299 105.38 94.6305C105.38 101.856 115.777 100.622 115.777 103.794C116.13 105.204 114.367 105.732 112.429 105.732ZM102.032 92.6922V88.639H88.2866V109.433H102.737V105.38H93.2208V100.798H100.093V97.0977H93.2208V92.6922H102.032ZM78.5945 109.433H83.5286V88.639H78.5945V96.9214H70.1359V88.639H65.2017V109.433H70.1359V100.974H78.5945V109.433ZM60.6199 104.323C59.5626 105.028 57.8004 105.732 56.2144 105.732C51.104 105.732 49.1656 102.56 49.1656 98.6836C49.1656 94.8067 51.8089 92.5159 55.3333 92.5159C57.0955 92.5159 58.6815 93.0445 60.4437 93.9256L61.5011 90.0488C60.4437 89.1677 58.1529 88.1104 54.9809 88.1104C47.4034 88.1104 44.0552 93.397 44.0552 99.2122C44.0552 103.97 46.8747 109.962 54.6285 109.962C59.2102 109.962 61.8535 107.142 62.0297 106.966L60.6199 104.323ZM36.3015 95.6878C36.3015 97.9787 34.7155 98.6836 32.2484 98.6836H29.7813V92.5159H32.2484C34.8917 92.6921 36.3015 93.397 36.3015 95.6878ZM41.4119 95.5116C41.4119 90.7537 38.0637 88.639 34.3631 88.639H25.1996V109.433H30.1337V102.56H32.2484L37.3588 109.433H42.9979L37.3588 101.856C39.4735 100.974 41.4119 99.0361 41.4119 95.5116ZM0 99.2122C0 104.146 2.81954 109.962 10.2208 109.962C18.327 109.962 21.3227 104.675 21.3227 99.0361C21.3227 93.9257 18.5032 88.2866 11.1019 88.2866C3.17198 88.1104 0 93.7494 0 99.2122ZM5.1104 98.5074C5.1104 95.3354 7.04883 92.3397 10.397 92.3397C14.9788 92.3397 16.3885 95.6878 16.3885 99.5647C16.3885 102.737 14.4501 105.732 11.1019 105.732C6.52017 105.732 5.1104 102.384 5.1104 98.5074Z" fill="white"/>
<path d="M87.4057 127.407L90.049 135.513H84.7623L87.4057 127.407ZM92.516 143.267H97.6265L90.2252 122.473H84.7623L77.3611 143.267H82.4715L83.705 139.39H91.2825L92.516 143.267ZM60.7963 128.288L68.7262 143.267H74.3653V122.473H69.6073V136.042L62.2061 122.473H55.8621V143.267H60.6201V128.288H60.7963ZM51.1042 122.473H46.17V143.267H51.1042V122.473ZM34.7157 122.473H29.7815V143.267H43.5267V139.214H34.7157V122.473ZM24.8473 122.473H19.9131V143.267H24.8473V122.473ZM7.40142 121.416H9.6923L14.4503 117.01L13.0405 115.248L8.81119 117.891L4.58189 115.248L2.9959 117.01L7.40142 121.416ZM16.2125 143.267V139.214H6.3441L15.86 126.35V122.473H0.881258V126.526H10.0447L0.528809 139.39V143.267H16.2125Z" fill="#A32035"/>
</svg>
