<svg width="24" height="18" viewBox="0 0 24 18" fill="none" xmlns="http://www.w3.org/2000/svg">
<path d="M24 14.6667V12H0V14.6667C0 15.3739 0.280952 16.0522 0.781049 16.5523C1.28115 17.0524 1.95942 17.3333 2.66667 17.3333H21.3333C22.0406 17.3333 22.7189 17.0524 23.219 16.5523C23.719 16.0522 24 15.3739 24 14.6667Z" fill="#EE2024"/>
<path d="M24 12H0V2.66667C0 1.95942 0.280952 1.28115 0.781049 0.781049C1.28115 0.280951 1.95942 0 2.66667 0H21.3333C22.0406 0 22.7189 0.280951 23.219 0.781049C23.719 1.28115 24 1.95942 24 2.66667V12Z" fill="#EEEEEE"/>
<path d="M0 5.33334H24V12H0V5.33334Z" fill="#0A4EA2"/>
<path d="M7.89139 13.3933C7.13873 12.9627 5.46606 11.8747 4.85473 10.4013C4.23806 8.91667 4.37539 6.786 4.53406 4.31867L4.57406 3.69467H12.5494L12.5901 4.31867C12.7487 6.78534 12.8861 8.91534 12.2694 10.4007C11.6574 11.8747 9.98539 12.9633 9.23206 13.3933L8.56273 13.7747L7.89139 13.3933V13.3933Z" fill="white"/>
<path d="M11.924 4.36134H5.19867C5.04 6.83268 4.91734 8.81468 5.47 10.1453C6.15067 11.7853 8.48067 12.9587 8.55734 12.996V13L8.56067 12.998L8.564 13V12.996C8.64067 12.958 10.9707 11.7853 11.652 10.1453C12.2053 8.81468 12.0833 6.83201 11.924 4.36134V4.36134Z" fill="#EE2024"/>
<path d="M10.5767 7.40601C10.5767 7.40601 9.64269 7.49468 8.82202 7.51601C8.8086 7.23038 8.80926 6.94425 8.82402 6.65868C9.47269 6.69868 9.92069 6.82268 9.92069 6.82268C10.0854 6.82268 10.2187 6.68935 10.2187 6.52468V6.12068C10.2187 5.95601 10.0854 5.82268 9.92069 5.82268C9.92069 5.82268 9.42802 5.90668 8.87535 5.94201C8.92269 5.42068 8.97935 4.98535 8.97935 4.98535C8.97935 4.82068 8.84602 4.68735 8.68135 4.68735H8.27802C8.11335 4.68735 7.98002 4.82068 7.98002 4.98535C7.98002 4.98535 8.04135 5.42935 8.09335 5.94735C7.73941 5.92683 7.387 5.8852 7.03802 5.82268C6.87335 5.82268 6.74002 5.95601 6.74002 6.12068V6.52468C6.74002 6.68935 6.87335 6.82268 7.03802 6.82268C7.03802 6.82268 7.46402 6.68535 8.15135 6.65268C8.16069 6.80601 8.16735 6.95468 8.16735 7.08335C8.16735 7.19068 8.16335 7.34201 8.15669 7.51601C7.32869 7.49401 6.36135 7.40668 6.36135 7.40668C6.19669 7.40668 6.06335 7.54001 6.06335 7.70468V8.10868C6.06335 8.27335 6.19669 8.40668 6.36135 8.40668C6.36135 8.40668 7.24069 8.33468 8.11802 8.32135C8.06269 9.34201 7.98002 10.536 7.98002 10.536C7.98002 10.7007 8.11335 10.834 8.27802 10.834H8.68135C8.84602 10.834 8.97935 10.7007 8.97935 10.536C8.97935 10.536 8.90535 9.35401 8.85602 8.32468C9.70402 8.34468 10.5767 8.40668 10.5767 8.40668C10.7414 8.40668 10.8747 8.27335 10.8747 8.10868V7.70468C10.8747 7.54001 10.7414 7.40601 10.5767 7.40601V7.40601Z" fill="white"/>
<path d="M11.386 10.6433C11.0473 9.91933 10.116 9.71467 9.67396 10.5993C9.38196 9.53667 8.5533 9.53667 8.5533 9.53667C8.5533 9.53667 7.72396 9.53667 7.43263 10.5993C6.99396 9.722 6.07263 9.91667 5.72729 10.6267C6.6033 12.0093 8.4893 12.9627 8.55863 12.9967V13L8.56196 12.998L8.5653 13V12.996C8.63396 12.962 10.5053 12.0167 11.386 10.6433Z" fill="#0A4EA2"/>
</svg>
